<svg xmlns="http://www.w3.org/2000/svg" xmlns:xlink="http://www.w3.org/1999/xlink" viewBox="0 0 610.94 610.94"><defs><style>.cls-1,.cls-6{fill:#fff;}.cls-2{fill:url(#Dégradé_sans_nom_31);}.cls-3{fill:url(#Dégradé_sans_nom_31-2);}.cls-4{fill:url(#Dégradé_sans_nom_31-3);}.cls-5{fill:url(#Dégradé_sans_nom_31-4);}.cls-6{stroke-miterlimit:10;stroke-width:8px;stroke:url(#Dégradé_sans_nom_31-5);}.cls-7{fill:url(#Dégradé_sans_nom_31-6);}.cls-8{fill:url(#Dégradé_sans_nom_31-7);}.cls-9{font-size:13px;font-family:SlimJoe, Slim Joe;letter-spacing:0.5em;}.cls-10,.cls-9{fill:#1d1d1b;}.cls-10{font-size:35px;font-family:BigJohn, Big John;letter-spacing:0.03em;}</style><linearGradient id="Dégradé_sans_nom_31" x1="443.69" y1="209.32" x2="607.77" y2="268.86" gradientUnits="userSpaceOnUse"><stop offset="0" stop-color="#76c6d0"/><stop offset="1" stop-color="#1d6fa7"/></linearGradient><linearGradient id="Dégradé_sans_nom_31-2" x1="544.77" y1="234.77" x2="266.46" y2="418.93" xlink:href="#Dégradé_sans_nom_31"/><linearGradient id="Dégradé_sans_nom_31-3" x1="357.31" y1="268.38" x2="156.07" y2="269.31" xlink:href="#Dégradé_sans_nom_31"/><linearGradient id="Dégradé_sans_nom_31-4" x1="194.24" y1="360.95" x2="53.15" y2="361.59" xlink:href="#Dégradé_sans_nom_31"/><linearGradient id="Dégradé_sans_nom_31-5" x1="52.59" y1="145.2" x2="142.13" y2="145.2" xlink:href="#Dégradé_sans_nom_31"/><linearGradient id="Dégradé_sans_nom_31-6" x1="171.41" y1="1688.22" x2="178.25" y2="1688.22" gradientTransform="translate(502.45 -1502.85) rotate(19.65)" xlink:href="#Dégradé_sans_nom_31"/><linearGradient id="Dégradé_sans_nom_31-7" x1="3953.44" y1="4207.3" x2="3960.27" y2="4207.3" gradientTransform="translate(3019.81 -4843.56) rotate(73.63)" xlink:href="#Dégradé_sans_nom_31"/></defs><title>axeDWv2</title><g id="Calque_2" data-name="Calque 2"><g id="Calque_1-2" data-name="Calque 1"><rect class="cls-1" width="610.94" height="610.94" rx="40.04"/><path class="cls-2" d="M583,295.9a9.85,9.85,0,0,1-9.39-12.82,46.46,46.46,0,1,0-88.61-28,9.85,9.85,0,1,1-18.78-5.94A66.16,66.16,0,1,1,592.43,289,9.87,9.87,0,0,1,583,295.9Z"/><path class="cls-3" d="M237.16,236.66h1.41a33.47,33.47,0,0,1,32.05,23.82l5.56,18.46c9.43,31.3,53.53,31.91,63.83.88L347,258.89A33.48,33.48,0,0,1,378.72,236h10.87a33.5,33.5,0,0,1,31.78,22.94l6.94,20.93c10.29,31,54.39,30.42,63.82-.89l5.56-18.45a33.47,33.47,0,0,1,32.05-23.82h0a33.48,33.48,0,0,1,31.77,44l-60.73,183A33.48,33.48,0,0,1,469,486.58H457a33.48,33.48,0,0,1-31.6-22.41L415,434.35c-10.47-29.93-52.81-29.88-63.22.07L341.45,464.1a33.46,33.46,0,0,1-31.62,22.48H297.89a33.47,33.47,0,0,1-31.77-22.92l-60.73-183A33.48,33.48,0,0,1,237.16,236.66Z"/><path class="cls-4" d="M191.65,145.2H106.79a10.86,10.86,0,0,0-10.86,10.86V367.29A26.06,26.06,0,0,0,122,393.35h98.12A111.56,111.56,0,0,0,331.67,281.78V267.86C331.67,196.24,280.27,145.2,191.65,145.2Zm59.7,123.85V300.5a8.3,8.3,0,0,1-8.3,8.3H184.56a8.31,8.31,0,0,1-8.31-8.3V231.85a2.1,2.1,0,0,1,2.1-2.1h28.39c28.24,0,44.61,16.26,44.61,39.07Z"/><path class="cls-5" d="M172.06,411.52H103.82a26.06,26.06,0,0,1-26.06-26.06V298.29a12.24,12.24,0,0,0-12.24-12.24h0a12.24,12.24,0,0,0-12.24,12.24v92.39a45.81,45.81,0,0,0,45.81,45.81h83A12.48,12.48,0,0,0,194.53,424h0a12.48,12.48,0,0,0-12.48-12.48Z"/><path class="cls-6" d="M122.49,121.24l-10,4.69a11,11,0,0,1-14.59-5.25l-4.69-10a11,11,0,0,0-14.6-5.25h0a11,11,0,0,0-5.25,14.6l4.69,10a11,11,0,0,1-5.25,14.59l-10,4.69a11,11,0,0,0-5.25,14.6h0a11,11,0,0,0,14.6,5.25l10-4.69a11,11,0,0,1,14.6,5.25l4.69,9.95a11,11,0,0,0,14.6,5.25h0a11,11,0,0,0,5.24-14.6l-4.69-9.95a11,11,0,0,1,5.25-14.6l10-4.69a11,11,0,0,0,5.25-14.59h0A11,11,0,0,0,122.49,121.24Z"/><path class="cls-7" d="M105.6,138.88l-5.81,16.27a3.41,3.41,0,0,1-4.37,2.07h0a3.43,3.43,0,0,1-2.07-4.37l5.81-16.27a3.43,3.43,0,0,1,4.37-2.07h0A3.43,3.43,0,0,1,105.6,138.88Z"/><path class="cls-8" d="M103.34,141l-7.6,2.24a3.42,3.42,0,0,1-4.24-2.32h0a3.41,3.41,0,0,1,2.31-4.24l7.61-2.24a3.42,3.42,0,0,1,4.24,2.32h0A3.41,3.41,0,0,1,103.34,141Z"/><text class="cls-9" transform="translate(263.86 555.15)">GROUPE 1</text><text class="cls-10" transform="translate(235.55 587.44)">annee 2</text></g></g></svg>