<svg xmlns="http://www.w3.org/2000/svg" xmlns:xlink="http://www.w3.org/1999/xlink" viewBox="0 0 841.89 594.74"><defs><style>.cls-1{fill:#fff;}.cls-2{font-size:8.18px;font-family:SlimJoe, Slim Joe;letter-spacing:0.5em;}.cls-2,.cls-3{fill:#1d1d1b;}.cls-3{font-size:22.02px;font-family:BigJohn, Big John;letter-spacing:0.03em;}.cls-12,.cls-4{fill:none;}.cls-5{fill:url(#Nouvelle_nuance_de_dégradé_1);}.cls-6{fill:url(#Nouvelle_nuance_de_dégradé_1-2);}.cls-7{fill:url(#Nouvelle_nuance_de_dégradé_1-3);}.cls-8{fill:url(#Nouvelle_nuance_de_dégradé_1-4);}.cls-9{fill:url(#Nouvelle_nuance_de_dégradé_1-5);}.cls-10{fill:url(#Nouvelle_nuance_de_dégradé_1-6);}.cls-11{fill:url(#Nouvelle_nuance_de_dégradé_1-7);}.cls-12{stroke-miterlimit:10;stroke-width:8px;stroke:url(#Nouvelle_nuance_de_dégradé_1-8);}.cls-13{fill:url(#Dégradé_sans_nom_2);}.cls-14{fill:url(#Dégradé_sans_nom_2-2);}.cls-15{fill:url(#Dégradé_sans_nom_2-3);}.cls-16{fill:url(#Dégradé_sans_nom_2-4);}.cls-17{fill:url(#Dégradé_sans_nom_2-5);}.cls-18{fill:url(#Dégradé_sans_nom_2-6);}.cls-19{fill:url(#Dégradé_sans_nom_2-7);}.cls-20{fill:url(#Dégradé_sans_nom_2-8);}.cls-21{fill:url(#Dégradé_sans_nom_2-9);}.cls-22{fill:url(#Dégradé_sans_nom_42);}.cls-23{fill:url(#Dégradé_sans_nom_44);}.cls-24{fill:url(#Dégradé_sans_nom_42-2);}.cls-25{fill:url(#Dégradé_sans_nom_44-2);}.cls-26{fill:url(#Dégradé_sans_nom_42-3);}.cls-27{fill:url(#Dégradé_sans_nom_44-3);}.cls-28{fill:url(#Dégradé_sans_nom_42-4);}.cls-29{fill:url(#Dégradé_sans_nom_44-4);}.cls-30{fill:url(#Dégradé_sans_nom_42-5);}.cls-31{fill:url(#Dégradé_sans_nom_44-5);}.cls-32{fill:url(#Dégradé_sans_nom_42-6);}.cls-33{fill:url(#Dégradé_sans_nom_42-7);}.cls-34{fill:url(#Dégradé_sans_nom_2-10);}.cls-35{fill:url(#Dégradé_sans_nom_42-8);}.cls-36{fill:url(#Dégradé_sans_nom_44-6);}.cls-37{fill:url(#Dégradé_sans_nom_42-9);}.cls-38{fill:url(#Dégradé_sans_nom_42-10);}.cls-39{fill:url(#Dégradé_sans_nom_44-7);}.cls-40{fill:url(#Dégradé_sans_nom_42-11);}.cls-41{fill:url(#Dégradé_sans_nom_44-8);}.cls-42{fill:url(#Dégradé_sans_nom_44-9);}.cls-43{fill:url(#Dégradé_sans_nom_44-10);}.cls-44{fill:url(#Dégradé_sans_nom_2-11);}.cls-45{fill:url(#Dégradé_sans_nom_2-12);}.cls-46{fill:url(#Dégradé_sans_nom_44-12);}.cls-47{fill:url(#Dégradé_sans_nom_42-12);}.cls-48{fill:url(#Dégradé_sans_nom_42-13);}.cls-49{fill:url(#Dégradé_sans_nom_42-14);}.cls-50{fill:url(#Dégradé_sans_nom_2-13);}.cls-51{fill:url(#Dégradé_sans_nom_42-15);}.cls-52{fill:url(#Dégradé_sans_nom_2-14);}.cls-53{fill:url(#Dégradé_sans_nom_42-16);}.cls-54{fill:url(#Dégradé_sans_nom_42-17);}.cls-55{fill:url(#Dégradé_sans_nom_2-15);}.cls-56{fill:url(#Dégradé_sans_nom_42-20);}.cls-57{fill:url(#Dégradé_sans_nom_44-13);}.cls-58{fill:url(#Dégradé_sans_nom_42-21);}.cls-59{fill:url(#Dégradé_sans_nom_44-14);}.cls-60{fill:url(#Dégradé_sans_nom_42-22);}.cls-61{fill:url(#Dégradé_sans_nom_44-15);}.cls-62{fill:url(#Dégradé_sans_nom_42-23);}.cls-63{fill:url(#Dégradé_sans_nom_44-16);}.cls-64{fill:url(#Dégradé_sans_nom_2-16);}.cls-65{fill:url(#Dégradé_sans_nom_42-24);}.cls-66{fill:url(#Dégradé_sans_nom_44-17);}.cls-67{fill:url(#Dégradé_sans_nom_44-18);}.cls-68{fill:url(#Dégradé_sans_nom_42-25);}.cls-69{fill:url(#Dégradé_sans_nom_44-19);}.cls-70{fill:url(#Dégradé_sans_nom_42-26);}.cls-71{fill:url(#Dégradé_sans_nom_44-20);}.cls-72{fill:url(#Dégradé_sans_nom_44-21);}.cls-73{fill:url(#Dégradé_sans_nom_2-17);}.cls-74{fill:url(#Dégradé_sans_nom_2-18);}.cls-75{fill:url(#Dégradé_sans_nom_2-19);}.cls-76{fill:url(#Dégradé_sans_nom_44-26);}.cls-77{fill:url(#Dégradé_sans_nom_42-27);}.cls-78{fill:url(#Dégradé_sans_nom_44-27);}.cls-79{fill:url(#Dégradé_sans_nom_42-28);}.cls-80{fill:url(#Dégradé_sans_nom_2-20);}.cls-81{fill:url(#Dégradé_sans_nom_44-28);}.cls-82{fill:url(#Dégradé_sans_nom_42-29);}.cls-83{fill:url(#Dégradé_sans_nom_44-29);}.cls-84{fill:url(#Dégradé_sans_nom_44-30);}.cls-85{fill:url(#Dégradé_sans_nom_42-30);}.cls-86{fill:url(#Dégradé_sans_nom_44-31);}.cls-87{fill:url(#Dégradé_sans_nom_44-32);}.cls-88{fill:url(#Dégradé_sans_nom_44-33);}.cls-89{fill:url(#Dégradé_sans_nom_42-31);}.cls-90{fill:url(#Dégradé_sans_nom_44-34);}</style><linearGradient id="Nouvelle_nuance_de_dégradé_1" x1="496.27" y1="201.76" x2="599.51" y2="239.23" gradientUnits="userSpaceOnUse"><stop offset="0" stop-color="#ee752b"/><stop offset="1" stop-color="#e73438"/></linearGradient><linearGradient id="Nouvelle_nuance_de_dégradé_1-2" x1="511.76" y1="145.07" x2="336.65" y2="260.94" xlink:href="#Nouvelle_nuance_de_dégradé_1"/><linearGradient id="Nouvelle_nuance_de_dégradé_1-3" x1="573.33" y1="238.12" x2="398.22" y2="353.99" xlink:href="#Nouvelle_nuance_de_dégradé_1"/><linearGradient id="Nouvelle_nuance_de_dégradé_1-4" x1="441.92" y1="238.95" x2="315.31" y2="239.53" xlink:href="#Nouvelle_nuance_de_dégradé_1"/><linearGradient id="Nouvelle_nuance_de_dégradé_1-5" x1="525.5" y1="165.84" x2="350.39" y2="281.71" xlink:href="#Nouvelle_nuance_de_dégradé_1"/><linearGradient id="Nouvelle_nuance_de_dégradé_1-6" x1="442.05" y1="267.24" x2="315.44" y2="267.82" xlink:href="#Nouvelle_nuance_de_dégradé_1"/><linearGradient id="Nouvelle_nuance_de_dégradé_1-7" x1="339.32" y1="297.17" x2="250.55" y2="297.57" xlink:href="#Nouvelle_nuance_de_dégradé_1"/><linearGradient id="Nouvelle_nuance_de_dégradé_1-8" x1="292.44" y1="189.74" x2="264.3" y2="133.1" xlink:href="#Nouvelle_nuance_de_dégradé_1"/><linearGradient id="Dégradé_sans_nom_2" x1="825.02" y1="137.51" x2="822.67" y2="163.09" gradientTransform="translate(-31.37 -98.83) rotate(8.31)" xlink:href="#Nouvelle_nuance_de_dégradé_1"/><linearGradient id="Dégradé_sans_nom_2-2" x1="294.89" y1="483.09" x2="450.47" y2="542.1" gradientTransform="translate(-71.94 -97.17) rotate(17.6)" xlink:href="#Nouvelle_nuance_de_dégradé_1"/><linearGradient id="Dégradé_sans_nom_2-3" x1="306.62" y1="452.17" x2="462.2" y2="511.18" gradientTransform="translate(-71.94 -97.17) rotate(17.6)" xlink:href="#Nouvelle_nuance_de_dégradé_1"/><linearGradient id="Dégradé_sans_nom_2-4" x1="300.64" y1="467.94" x2="456.22" y2="526.95" gradientTransform="translate(-71.94 -97.17) rotate(17.6)" xlink:href="#Nouvelle_nuance_de_dégradé_1"/><linearGradient id="Dégradé_sans_nom_2-5" x1="321.79" y1="412.17" x2="477.37" y2="471.19" gradientTransform="translate(-71.94 -97.17) rotate(17.6)" xlink:href="#Nouvelle_nuance_de_dégradé_1"/><linearGradient id="Dégradé_sans_nom_2-6" x1="293.46" y1="486.85" x2="449.05" y2="545.86" gradientTransform="translate(-71.94 -97.17) rotate(17.6)" xlink:href="#Nouvelle_nuance_de_dégradé_1"/><linearGradient id="Dégradé_sans_nom_2-7" x1="-365.06" y1="-671.57" x2="-367" y2="-650.58" gradientTransform="matrix(0.4, -0.91, 0.91, 0.4, 867.26, -10.22)" xlink:href="#Nouvelle_nuance_de_dégradé_1"/><linearGradient id="Dégradé_sans_nom_2-8" x1="472.72" y1="46.64" x2="489.03" y2="96.42" xlink:href="#Nouvelle_nuance_de_dégradé_1"/><linearGradient id="Dégradé_sans_nom_2-9" x1="647.41" y1="450.64" x2="718.01" y2="431.23" xlink:href="#Nouvelle_nuance_de_dégradé_1"/><linearGradient id="Dégradé_sans_nom_42" x1="420.58" y1="-342.7" x2="487.99" y2="-342.7" gradientTransform="matrix(-2.02, 1.54, -1.72, -2.25, 1084.02, -1421.34)" gradientUnits="userSpaceOnUse"><stop offset="0" stop-color="#fff" stop-opacity="0"/><stop offset="0.09" stop-color="#fef7f5" stop-opacity="0.05"/><stop offset="0.26" stop-color="#fbe1da" stop-opacity="0.18"/><stop offset="0.48" stop-color="#f7bdae" stop-opacity="0.4"/><stop offset="0.75" stop-color="#f08c71" stop-opacity="0.69"/><stop offset="1" stop-color="#ea5832"/></linearGradient><linearGradient id="Dégradé_sans_nom_44" x1="344.46" y1="-360.62" x2="479.42" y2="-360.62" gradientTransform="matrix(-2.02, 1.54, -1.72, -2.25, 1084.02, -1421.34)" gradientUnits="userSpaceOnUse"><stop offset="0" stop-color="#fff" stop-opacity="0"/><stop offset="0.09" stop-color="#fef8f2" stop-opacity="0.05"/><stop offset="0.26" stop-color="#fbe7d1" stop-opacity="0.18"/><stop offset="0.48" stop-color="#f7cb9b" stop-opacity="0.4"/><stop offset="0.75" stop-color="#f0a451" stop-opacity="0.69"/><stop offset="1" stop-color="#ea7b03"/></linearGradient><linearGradient id="Dégradé_sans_nom_42-2" x1="399.11" y1="-291.03" x2="534.07" y2="-291.03" xlink:href="#Dégradé_sans_nom_42"/><linearGradient id="Dégradé_sans_nom_44-2" x1="448.86" y1="-298.86" x2="516.26" y2="-298.86" xlink:href="#Dégradé_sans_nom_44"/><linearGradient id="Dégradé_sans_nom_42-3" x1="399.11" y1="-295.96" x2="534.07" y2="-295.96" xlink:href="#Dégradé_sans_nom_42"/><linearGradient id="Dégradé_sans_nom_44-3" x1="448.86" y1="-295.96" x2="516.26" y2="-295.96" xlink:href="#Dégradé_sans_nom_44"/><linearGradient id="Dégradé_sans_nom_42-4" x1="440.78" y1="-388.83" x2="489.79" y2="-388.83" xlink:href="#Dégradé_sans_nom_42"/><linearGradient id="Dégradé_sans_nom_44-4" x1="431.08" y1="-384.31" x2="506.78" y2="-384.31" xlink:href="#Dégradé_sans_nom_44"/><linearGradient id="Dégradé_sans_nom_42-5" x1="440.78" y1="-386.72" x2="489.79" y2="-386.72" xlink:href="#Dégradé_sans_nom_42"/><linearGradient id="Dégradé_sans_nom_44-5" x1="431.08" y1="-386.72" x2="506.78" y2="-386.72" xlink:href="#Dégradé_sans_nom_44"/><linearGradient id="Dégradé_sans_nom_42-6" x1="370.2" y1="-373.61" x2="506.04" y2="-373.61" xlink:href="#Dégradé_sans_nom_42"/><linearGradient id="Dégradé_sans_nom_42-7" x1="370.2" y1="-369.89" x2="506.04" y2="-369.89" xlink:href="#Dégradé_sans_nom_42"/><linearGradient id="Dégradé_sans_nom_2-10" x1="816.82" y1="136.75" x2="814.46" y2="162.33" gradientTransform="translate(-31.37 -98.83) rotate(8.31)" xlink:href="#Nouvelle_nuance_de_dégradé_1"/><linearGradient id="Dégradé_sans_nom_42-8" x1="370.2" y1="-373.41" x2="506.04" y2="-373.41" xlink:href="#Dégradé_sans_nom_42"/><linearGradient id="Dégradé_sans_nom_44-6" x1="344.46" y1="-366.43" x2="479.42" y2="-366.43" xlink:href="#Dégradé_sans_nom_44"/><linearGradient id="Dégradé_sans_nom_42-9" x1="370.2" y1="-366.43" x2="506.04" y2="-366.43" xlink:href="#Dégradé_sans_nom_42"/><linearGradient id="Dégradé_sans_nom_42-10" x1="459.24" y1="-318.7" x2="516.97" y2="-318.7" xlink:href="#Dégradé_sans_nom_42"/><linearGradient id="Dégradé_sans_nom_44-7" x1="509.6" y1="-274.84" x2="543.37" y2="-274.84" xlink:href="#Dégradé_sans_nom_44"/><linearGradient id="Dégradé_sans_nom_42-11" x1="489.79" y1="-351.48" x2="522.46" y2="-351.48" xlink:href="#Dégradé_sans_nom_42"/><linearGradient id="Dégradé_sans_nom_44-8" x1="233.36" y1="98.48" x2="369.19" y2="98.48" gradientTransform="matrix(2.02, -1.54, 1.72, 2.25, -774.47, 813.03)" xlink:href="#Dégradé_sans_nom_44"/><linearGradient id="Dégradé_sans_nom_44-9" x1="233.36" y1="100.03" x2="369.19" y2="100.03" gradientTransform="matrix(2.02, -1.54, 1.72, 2.25, -774.47, 813.03)" xlink:href="#Dégradé_sans_nom_44"/><linearGradient id="Dégradé_sans_nom_44-10" x1="233.36" y1="105.81" x2="369.19" y2="105.81" gradientTransform="matrix(2.02, -1.54, 1.72, 2.25, -774.47, 813.03)" xlink:href="#Dégradé_sans_nom_44"/><linearGradient id="Dégradé_sans_nom_2-11" x1="290.89" y1="493.63" x2="446.47" y2="552.64" gradientTransform="translate(-71.94 -97.17) rotate(17.6)" xlink:href="#Nouvelle_nuance_de_dégradé_1"/><linearGradient id="Dégradé_sans_nom_2-12" x1="302.83" y1="462.14" x2="458.42" y2="521.16" gradientTransform="translate(-71.94 -97.17) rotate(17.6)" xlink:href="#Nouvelle_nuance_de_dégradé_1"/><linearGradient id="Dégradé_sans_nom_44-12" x1="233.36" y1="94.52" x2="369.19" y2="94.52" gradientTransform="matrix(2.02, -1.54, 1.72, 2.25, -774.47, 813.03)" xlink:href="#Dégradé_sans_nom_44"/><linearGradient id="Dégradé_sans_nom_42-12" x1="716.03" y1="-526.82" x2="864.82" y2="-526.82" gradientTransform="matrix(1.36, -1.03, 2.21, 2.91, 233.4, 2908.25)" xlink:href="#Dégradé_sans_nom_42"/><linearGradient id="Dégradé_sans_nom_42-13" x1="716.03" y1="-527.34" x2="864.82" y2="-527.34" gradientTransform="matrix(1.36, -1.03, 2.21, 2.91, 233.4, 2908.25)" xlink:href="#Dégradé_sans_nom_42"/><linearGradient id="Dégradé_sans_nom_42-14" x1="716.03" y1="-521.94" x2="864.82" y2="-521.94" gradientTransform="matrix(1.36, -1.03, 2.21, 2.91, 233.4, 2908.25)" xlink:href="#Dégradé_sans_nom_42"/><linearGradient id="Dégradé_sans_nom_2-13" x1="302.91" y1="461.94" x2="458.49" y2="520.96" gradientTransform="translate(-71.94 -97.17) rotate(17.6)" xlink:href="#Nouvelle_nuance_de_dégradé_1"/><linearGradient id="Dégradé_sans_nom_42-15" x1="716.03" y1="-527.34" x2="864.82" y2="-527.34" gradientTransform="matrix(1.36, -1.03, 2.21, 2.91, 233.4, 2908.25)" xlink:href="#Dégradé_sans_nom_42"/><linearGradient id="Dégradé_sans_nom_2-14" x1="293.83" y1="485.87" x2="449.42" y2="544.88" gradientTransform="translate(-71.94 -97.17) rotate(17.6)" xlink:href="#Nouvelle_nuance_de_dégradé_1"/><linearGradient id="Dégradé_sans_nom_42-16" x1="716.03" y1="-527.33" x2="864.82" y2="-527.33" gradientTransform="matrix(1.36, -1.03, 2.21, 2.91, 233.4, 2908.25)" xlink:href="#Dégradé_sans_nom_42"/><linearGradient id="Dégradé_sans_nom_42-17" x1="334.86" y1="182.29" x2="367.54" y2="182.29" gradientTransform="matrix(2.02, -1.54, 1.72, 2.25, -928.92, 578.55)" xlink:href="#Dégradé_sans_nom_42"/><linearGradient id="Dégradé_sans_nom_2-15" x1="314.12" y1="432.38" x2="469.7" y2="491.4" gradientTransform="translate(-71.94 -97.17) rotate(17.6)" xlink:href="#Nouvelle_nuance_de_dégradé_1"/><linearGradient id="Dégradé_sans_nom_42-20" x1="248.21" y1="168.36" x2="382.31" y2="168.36" gradientTransform="matrix(2.02, -1.54, 1.72, 2.25, -928.92, 578.55)" xlink:href="#Dégradé_sans_nom_42"/><linearGradient id="Dégradé_sans_nom_44-13" x1="305.33" y1="245.34" x2="414.13" y2="245.34" gradientTransform="matrix(2.02, -1.54, 1.72, 2.25, -928.92, 578.55)" xlink:href="#Dégradé_sans_nom_44"/><linearGradient id="Dégradé_sans_nom_42-21" x1="716.03" y1="-513" x2="864.82" y2="-513" gradientTransform="matrix(1.36, -1.03, 2.21, 2.91, 233.4, 2908.25)" xlink:href="#Dégradé_sans_nom_42"/><linearGradient id="Dégradé_sans_nom_44-14" x1="305.33" y1="243.08" x2="414.13" y2="243.08" gradientTransform="matrix(2.02, -1.54, 1.72, 2.25, -928.92, 578.55)" xlink:href="#Dégradé_sans_nom_44"/><linearGradient id="Dégradé_sans_nom_42-22" x1="716.03" y1="-523.96" x2="864.82" y2="-523.96" gradientTransform="matrix(1.36, -1.03, 2.21, 2.91, 233.4, 2908.25)" xlink:href="#Dégradé_sans_nom_42"/><linearGradient id="Dégradé_sans_nom_44-15" x1="322.04" y1="228.82" x2="369.43" y2="228.82" gradientTransform="matrix(2.02, -1.54, 1.72, 2.25, -928.92, 578.55)" xlink:href="#Dégradé_sans_nom_44"/><linearGradient id="Dégradé_sans_nom_42-23" x1="716.03" y1="-525.49" x2="864.82" y2="-525.49" gradientTransform="matrix(1.36, -1.03, 2.21, 2.91, 233.4, 2908.25)" xlink:href="#Dégradé_sans_nom_42"/><linearGradient id="Dégradé_sans_nom_44-16" x1="322.04" y1="226.9" x2="369.43" y2="226.9" gradientTransform="matrix(2.02, -1.54, 1.72, 2.25, -928.92, 578.55)" xlink:href="#Dégradé_sans_nom_44"/><linearGradient id="Dégradé_sans_nom_2-16" x1="297.79" y1="475.44" x2="453.37" y2="534.46" gradientTransform="translate(-71.94 -97.17) rotate(17.6)" xlink:href="#Nouvelle_nuance_de_dégradé_1"/><linearGradient id="Dégradé_sans_nom_42-24" x1="716.03" y1="-524.66" x2="864.82" y2="-524.66" gradientTransform="matrix(1.36, -1.03, 2.21, 2.91, 233.4, 2908.25)" xlink:href="#Dégradé_sans_nom_42"/><linearGradient id="Dégradé_sans_nom_44-17" x1="322.04" y1="227.97" x2="369.43" y2="227.97" gradientTransform="matrix(2.02, -1.54, 1.72, 2.25, -928.92, 578.55)" xlink:href="#Dégradé_sans_nom_44"/><linearGradient id="Dégradé_sans_nom_44-18" x1="281.94" y1="161.43" x2="351.74" y2="161.43" gradientTransform="matrix(2.02, -1.54, 1.72, 2.25, -928.92, 578.55)" xlink:href="#Dégradé_sans_nom_44"/><linearGradient id="Dégradé_sans_nom_42-25" x1="248.21" y1="164.43" x2="382.31" y2="164.43" gradientTransform="matrix(2.02, -1.54, 1.72, 2.25, -928.92, 578.55)" xlink:href="#Dégradé_sans_nom_42"/><linearGradient id="Dégradé_sans_nom_44-19" x1="281.94" y1="164.43" x2="351.74" y2="164.43" gradientTransform="matrix(2.02, -1.54, 1.72, 2.25, -928.92, 578.55)" xlink:href="#Dégradé_sans_nom_44"/><linearGradient id="Dégradé_sans_nom_42-26" x1="373.96" y1="275.99" x2="430.06" y2="275.99" gradientTransform="matrix(2.02, -1.54, 1.72, 2.25, -928.92, 578.55)" xlink:href="#Dégradé_sans_nom_42"/><linearGradient id="Dégradé_sans_nom_44-20" x1="390.92" y1="257.29" x2="433.95" y2="257.29" gradientTransform="matrix(2.02, -1.54, 1.72, 2.25, -928.92, 578.55)" xlink:href="#Dégradé_sans_nom_44"/><linearGradient id="Dégradé_sans_nom_44-21" x1="339.65" y1="216.04" x2="382.68" y2="216.04" gradientTransform="matrix(2.02, -1.54, 1.72, 2.25, -928.92, 578.55)" xlink:href="#Dégradé_sans_nom_44"/><linearGradient id="Dégradé_sans_nom_2-17" x1="295.37" y1="481.81" x2="450.96" y2="540.83" gradientTransform="translate(-71.94 -97.17) rotate(17.6)" xlink:href="#Nouvelle_nuance_de_dégradé_1"/><linearGradient id="Dégradé_sans_nom_2-18" x1="309.71" y1="444.02" x2="465.29" y2="503.03" gradientTransform="translate(-71.94 -97.17) rotate(17.6)" xlink:href="#Nouvelle_nuance_de_dégradé_1"/><linearGradient id="Dégradé_sans_nom_2-19" x1="319.9" y1="417.14" x2="475.49" y2="476.16" gradientTransform="translate(-71.94 -97.17) rotate(17.6)" xlink:href="#Nouvelle_nuance_de_dégradé_1"/><linearGradient id="Dégradé_sans_nom_44-26" x1="339.65" y1="214.95" x2="382.68" y2="214.95" gradientTransform="matrix(2.02, -1.54, 1.72, 2.25, -928.92, 578.55)" xlink:href="#Dégradé_sans_nom_44"/><linearGradient id="Dégradé_sans_nom_42-27" x1="234.79" y1="207.86" x2="343.58" y2="207.86" gradientTransform="matrix(2.02, -1.54, 1.72, 2.25, -928.92, 578.55)" xlink:href="#Dégradé_sans_nom_42"/><linearGradient id="Dégradé_sans_nom_44-27" x1="233.36" y1="104.32" x2="369.19" y2="104.32" gradientTransform="matrix(2.02, -1.54, 1.72, 2.25, -774.47, 813.03)" xlink:href="#Dégradé_sans_nom_44"/><linearGradient id="Dégradé_sans_nom_42-28" x1="234.79" y1="203.18" x2="343.58" y2="203.18" gradientTransform="matrix(2.02, -1.54, 1.72, 2.25, -928.92, 578.55)" xlink:href="#Dégradé_sans_nom_42"/><linearGradient id="Dégradé_sans_nom_2-20" x1="288.07" y1="501.07" x2="443.65" y2="560.08" gradientTransform="translate(-71.94 -97.17) rotate(17.6)" xlink:href="#Nouvelle_nuance_de_dégradé_1"/><linearGradient id="Dégradé_sans_nom_44-28" x1="233.36" y1="104.26" x2="369.19" y2="104.26" gradientTransform="matrix(2.02, -1.54, 1.72, 2.25, -774.47, 813.03)" xlink:href="#Dégradé_sans_nom_44"/><linearGradient id="Dégradé_sans_nom_42-29" x1="234.79" y1="203.12" x2="343.58" y2="203.12" gradientTransform="matrix(2.02, -1.54, 1.72, 2.25, -928.92, 578.55)" xlink:href="#Dégradé_sans_nom_42"/><linearGradient id="Dégradé_sans_nom_44-29" x1="255.53" y1="151.62" x2="364.32" y2="151.62" gradientTransform="matrix(2.02, -1.54, 1.72, 2.25, -928.92, 578.55)" xlink:href="#Dégradé_sans_nom_44"/><linearGradient id="Dégradé_sans_nom_44-30" x1="810.72" y1="-806.5" x2="959.51" y2="-806.5" gradientTransform="matrix(-1.36, 1.03, -2.21, -2.91, 157.65, -3239.81)" xlink:href="#Dégradé_sans_nom_44"/><linearGradient id="Dégradé_sans_nom_42-30" x1="420.58" y1="-339.92" x2="487.99" y2="-339.92" xlink:href="#Dégradé_sans_nom_42"/><linearGradient id="Dégradé_sans_nom_44-31" x1="810.72" y1="-814.77" x2="959.51" y2="-814.77" gradientTransform="matrix(-1.36, 1.03, -2.21, -2.91, 157.65, -3239.81)" xlink:href="#Dégradé_sans_nom_44"/><linearGradient id="Dégradé_sans_nom_44-32" x1="447.09" y1="-324.12" x2="479.2" y2="-324.12" xlink:href="#Dégradé_sans_nom_44"/><linearGradient id="Dégradé_sans_nom_44-33" x1="810.72" y1="-802.62" x2="959.51" y2="-802.62" gradientTransform="matrix(-1.36, 1.03, -2.21, -2.91, 157.65, -3239.81)" xlink:href="#Dégradé_sans_nom_44"/><linearGradient id="Dégradé_sans_nom_42-31" x1="459.24" y1="-319.3" x2="516.97" y2="-319.3" xlink:href="#Dégradé_sans_nom_42"/><linearGradient id="Dégradé_sans_nom_44-34" x1="810.72" y1="-798.97" x2="959.51" y2="-798.97" gradientTransform="matrix(-1.36, 1.03, -2.21, -2.91, 157.65, -3239.81)" xlink:href="#Dégradé_sans_nom_44"/></defs><title>axeDW</title><g id="Calque_2" data-name="Calque 2"><g id="White"><rect class="cls-1" width="841.89" height="594.74"/><text class="cls-2" transform="translate(383.13 419.36)">GROUPE 1</text><text class="cls-3" transform="translate(365.31 439.67)">annee 2</text><path class="cls-4" d="M197.18,479.94a15.63,15.63,0,0,0-8.71,7.84l11.65-8.91Z"/><path class="cls-4" d="M96.54,476.7a15.69,15.69,0,0,0-10.29,13.83l25.11-19.21Z"/><path class="cls-4" d="M159.06,530.38a15.62,15.62,0,0,0,3.64,5.69l24.9-18.89L183.19,505l-26.08,20Z"/><path class="cls-4" d="M120.6,59.52a3.27,3.27,0,0,1-.44-4.6l1.8-2.17a2.35,2.35,0,0,0-.32-3.32,2.34,2.34,0,0,0-3.31.32l-1.8,2.17a3.26,3.26,0,0,1-4.59.44l-2.18-1.8a2.36,2.36,0,0,0-3.31.32,2.35,2.35,0,0,0,.31,3.31l2.18,1.8a3.28,3.28,0,0,1,.44,4.6l-1.8,2.17a2.4,2.4,0,0,0-.34.55,2.36,2.36,0,0,0,.66,2.76,2.35,2.35,0,0,0,3.31-.31l1.8-2.18a3.27,3.27,0,0,1,2.2-1.17,3.24,3.24,0,0,1,2.39.74l2.18,1.79a2.35,2.35,0,0,0,3-3.63Z"/><path class="cls-4" d="M329.32,214.62a1.32,1.32,0,0,0-1.32,1.32v43.19a5.23,5.23,0,0,0,5.23,5.23h19l-5.88-17.7a21.05,21.05,0,0,1,18.25-27.61c-4.51-2.83-10.37-4.43-17.39-4.43Z"/><path class="cls-4" d="M773.1,208a6,6,0,0,1-8.37-1.12,6.14,6.14,0,0,1-.62-1l-27,20.66a9.23,9.23,0,0,1-11.21-14.66l116-88.74v-19l-77.34,59.17-.07.16a2.86,2.86,0,0,0,1.45,3.79l3.13,1.4a4,4,0,1,1-3.24,7.27l-3.13-1.4A2.87,2.87,0,0,0,758.9,176l-1.4,3.14a4,4,0,0,1-2.21,2.09,3.89,3.89,0,0,1-2,.22,4,4,0,0,1-3.07-5.56l1.09-2.44-27.26,20.85A16.55,16.55,0,1,1,704,168l40.72-31.15a16.39,16.39,0,0,1,1-25.24l96.18-73.58V0H826.42a8.22,8.22,0,0,1-3.09,8l-122.8,93.94A8.21,8.21,0,0,1,689,100.38a8.1,8.1,0,0,1-1.51-3.3l-6.36,4.83a32.88,32.88,0,0,1-46.06-6.32h0a32.78,32.78,0,0,1-6.56-22.75l-28,21.4A7,7,0,1,1,592,83.06L697.2,2.6a7,7,0,0,1,7.16-.83L706.7,0H629.05L568,46.73a8.23,8.23,0,0,1-13-4.5L531.66,60.09a16.45,16.45,0,0,1-20-26.13l44.4-34H514.4L467.75,35.69a4.12,4.12,0,1,1-5-6.54L500.85,0H0V392.08l47.79-36.56A13.26,13.26,0,0,1,63.9,376.58L0,425.46v14.13L49.14,402a8.49,8.49,0,0,1,10.58.2l48.82-37.34a16.34,16.34,0,1,1,19.86,25.95L0,489v67.47L80.47,495a21.68,21.68,0,0,1,14-23.95l17.62-6.4a15.64,15.64,0,0,0,9.38-20.06l-4.06-11.2-52,39.81a4,4,0,1,1-4.84-6.32l54.09-41.38a21.71,21.71,0,0,1,41.28-13.35l6.39,17.63a15.7,15.7,0,0,0,20.07,9.38l17.62-6.4a21.71,21.71,0,1,1,14.81,40.82l-1.16.43a4.57,4.57,0,0,1,.63.68,5.24,5.24,0,0,1-1,7.35l-25.07,19.17,4.42,12.18,20.88-15.84a32.88,32.88,0,0,1,46.06,6.33h0a32.75,32.75,0,0,1,6.66,18.86l43.26-33.1a13.26,13.26,0,0,1,16.11,21.06L215.71,594.74H325.58l77.81-59.53a6.83,6.83,0,1,1,8.3,10.86l-63.61,48.67H841.89V155.39ZM124.27,64.44a3.3,3.3,0,0,1-2.68,1.94,3.24,3.24,0,0,1-2.39-.74L117,63.85a2.35,2.35,0,0,0-3.31.31l-1.8,2.18a3.23,3.23,0,0,1-2.2,1.17,3.27,3.27,0,0,1-2.39-.73,3.27,3.27,0,0,1-.44-4.6L108.67,60a2.36,2.36,0,0,0-.31-3.32l-2.18-1.79A3.29,3.29,0,0,1,105,52.69a3.27,3.27,0,0,1,5.33-2.83l2.18,1.8a2.36,2.36,0,0,0,3.31-.32l1.8-2.17a3.26,3.26,0,0,1,5,4.16l-1.79,2.17a2.35,2.35,0,0,0,.31,3.31l2.18,1.8a3.27,3.27,0,0,1,1.17,2.21A3.32,3.32,0,0,1,124.27,64.44Zm341.45,3.42a4.27,4.27,0,0,1,5.52-2.45l4,1.54a4.27,4.27,0,0,0,5.52-2.46l1.54-4a4.28,4.28,0,0,1,8,3.07l-1.54,4a4.27,4.27,0,0,0,2.45,5.52l4,1.54a4.27,4.27,0,1,1-3.06,8l-4-1.53a4.28,4.28,0,0,0-5.53,2.45l-1.53,4a4.28,4.28,0,1,1-8-3.07l1.54-4a4.27,4.27,0,0,0-2.46-5.52l-4-1.53A4.28,4.28,0,0,1,465.72,67.86ZM279.45,344.7a28.82,28.82,0,0,1-28.82-28.83V257.74a7.7,7.7,0,0,1,7.7-7.7h0a7.7,7.7,0,0,1,7.7,7.7v54.85a16.4,16.4,0,0,0,16.4,16.4h49.22a7.84,7.84,0,0,1,7.85,7.85h0a7.85,7.85,0,0,1-7.85,7.86ZM387.62,495.75l-78.38,60a5.25,5.25,0,0,1-6.38-8.33l78.39-60a5.24,5.24,0,0,1,6.37,8.33ZM570.4,246.66,532.19,361.79a21.08,21.08,0,0,1-20,14.43h-7.55a21.07,21.07,0,0,1-19.88-14.11l-6.56-18.76c-6.59-18.83-33.23-18.8-39.78,0l-6.49,18.68a21.05,21.05,0,0,1-19.89,14.15h-7.52a21.05,21.05,0,0,1-20-14.43l-15.14-45.6a70.61,70.61,0,0,1-13.81,1.36H293.86a16.4,16.4,0,0,1-16.4-16.4V175.92a6.88,6.88,0,0,0-8.64-2.37l-6.26,2.95a6.91,6.91,0,0,1-9.19-3.31h0a6.91,6.91,0,0,1,3.3-9.18l6.27-2.95a6.9,6.9,0,0,0,3.3-9.18l-2.95-6.27a6.9,6.9,0,0,1,12.49-5.88l3,6.26a6.9,6.9,0,0,0,9.18,3.31l6.26-3a6.9,6.9,0,0,1,5.89,12.49l-5.5,2.59h43.13c55.76,0,88.1,32.12,88.1,77.17v8.77a70,70,0,0,1-.43,7.71,21,21,0,0,0,5.67-8.95L435.4,233a21.08,21.08,0,0,1,20-14.43h6.84a21.06,21.06,0,0,1,20,14.43l4.37,13.17c6.48,19.52,34.23,19.14,40.16-.55l3.5-11.61a21.06,21.06,0,0,1,20.16-15h0A21.05,21.05,0,0,1,570.4,246.66Zm19.45,5.25a6.19,6.19,0,0,1-5.9,4.33,6.08,6.08,0,0,1-1.87-.29,6.19,6.19,0,0,1-4-7.77,29.23,29.23,0,1,0-55.75-17.61,6.2,6.2,0,0,1-11.82-3.74,41.62,41.62,0,1,1,79.38,25.08Zm46.2-76.76a4,4,0,0,1,.75-5.58L696.33,124a4,4,0,1,1,4.84,6.32l-59.53,45.55A4,4,0,0,1,636.05,175.15Zm87.73,263.61L715.44,441a8.62,8.62,0,0,0-6.09,10.54l2.23,8.34A8.6,8.6,0,0,1,695,464.3L692.73,456a8.61,8.61,0,0,0-10.54-6.09l-8.33,2.23a8.61,8.61,0,0,1-4.45-16.63l8.34-2.22a8.61,8.61,0,0,0,6.09-10.54l-2.23-8.34a8.61,8.61,0,0,1,16.63-4.44l2.23,8.34A8.59,8.59,0,0,0,711,424.36l8.34-2.23a8.61,8.61,0,0,1,4.44,16.63Z"/><path class="cls-4" d="M153.37,532.44l-1.3-3.6L134.91,542a5.24,5.24,0,1,1-6.37-8.32l19.78-15.14L147,514.82a15.66,15.66,0,0,0-20.07-9.38l-10.78,3.91-.77.59a13.22,13.22,0,0,1,.88,21.66L33.72,594.74H85.35l72.47-55A21.78,21.78,0,0,1,153.37,532.44Z"/><path class="cls-4" d="M751.24,176.37a2.87,2.87,0,0,0,1.46,3.79,2.78,2.78,0,0,0,2.19.06,2.81,2.81,0,0,0,1.59-1.51l1.4-3.13a4,4,0,0,1,2.21-2.1,3.94,3.94,0,0,1,3,.09l3.13,1.4a2.87,2.87,0,0,0,3.79-1.46,2.78,2.78,0,0,0,.06-2.19,2.81,2.81,0,0,0-1.51-1.59l-3.13-1.4a4,4,0,0,1-2.34-3.89l-10.22,7.81a3.49,3.49,0,0,1-.28,1Z"/><path class="cls-4" d="M141.45,500.49a21.61,21.61,0,0,1,11.22,12.26l.69,1.9,27.48-21a21.73,21.73,0,0,1,14.28-19.37l17.62-6.4a15.66,15.66,0,1,0-10.69-29.44l-17.62,6.4a21.75,21.75,0,0,1-27.82-13l-6.39-17.62a15.45,15.45,0,0,0-2-3.8,15.68,15.68,0,0,0-18.07-5.58A15.63,15.63,0,0,0,120,421.38l.12-.09a4,4,0,0,1,4.84,6.32l-2.46,1.89,4.71,13a21.61,21.61,0,0,1-.74,16.61,22.25,22.25,0,0,1-2.4,4,16.54,16.54,0,0,1,14.71,29l-8.5,6.5A21.58,21.58,0,0,1,141.45,500.49Z"/><path class="cls-5" d="M562.7,199.68a41.67,41.67,0,0,0-52.23,27.15,6.2,6.2,0,0,0,11.82,3.74A29.23,29.23,0,1,1,578,248.18a6.19,6.19,0,0,0,4,7.77,6.08,6.08,0,0,0,1.87.29,6.19,6.19,0,0,0,5.9-4.33A41.67,41.67,0,0,0,562.7,199.68Z"/><path class="cls-6" d="M346.33,246.66l5.88,17.7H370a5.23,5.23,0,0,0,5.22-5.23V239.2c0-8.67-3.77-15.84-10.67-20.15A21.05,21.05,0,0,0,346.33,246.66Z"/><path class="cls-7" d="M550.41,219h0a21.06,21.06,0,0,0-20.16,15l-3.5,11.61c-5.93,19.69-33.68,20.07-40.16.55L482.22,233a21.06,21.06,0,0,0-20-14.43h-6.84a21.08,21.08,0,0,0-20,14.43L431,246.12a21,21,0,0,1-5.67,8.95,70.24,70.24,0,0,1-55.95,61.12l15.14,45.6a21.05,21.05,0,0,0,20,14.43h7.52a21.05,21.05,0,0,0,19.89-14.15l6.49-18.68c6.55-18.84,33.19-18.87,39.78,0l6.56,18.76a21.07,21.07,0,0,0,19.88,14.11h7.55a21.08,21.08,0,0,0,20-14.43L570.4,246.66A21.05,21.05,0,0,0,550.41,219Z"/><path class="cls-8" d="M346.9,264.36H333.23a5.23,5.23,0,0,1-5.23-5.23V215.94a1.32,1.32,0,0,1,1.32-1.32h17.87c7,0,12.88,1.6,17.39,4.43.58-.05,1.15-.08,1.74-.08h.89a21.06,21.06,0,0,1,20.17,15l3.5,11.61c4.81,16,23.95,19.24,34.48,9.5a70,70,0,0,0,.43-7.71v-8.77c0-45.05-32.34-77.17-88.1-77.17H294.56l-.77.36a6.92,6.92,0,0,0-3.3,9.19l2.95,6.26A6.9,6.9,0,1,1,281,183.11l-3-6.26a6.1,6.1,0,0,0-.54-.93V301.15a16.4,16.4,0,0,0,16.4,16.4H355.6a70.61,70.61,0,0,0,13.81-1.36l-17.2-51.83Z"/><path class="cls-9" d="M425.36,255.07c-10.53,9.74-29.67,6.46-34.48-9.5L387.38,234a21.06,21.06,0,0,0-20.17-15h-.89c-.59,0-1.16,0-1.74.08,6.9,4.31,10.67,11.48,10.67,20.15v19.93a5.23,5.23,0,0,1-5.22,5.23H352.21l17.2,51.83A70.24,70.24,0,0,0,425.36,255.07Z"/><path class="cls-10" d="M425.36,255.07c-10.53,9.74-29.67,6.46-34.48-9.5L387.38,234a21.06,21.06,0,0,0-20.17-15h-.89c-.59,0-1.16,0-1.74.08,6.9,4.31,10.67,11.48,10.67,20.15v19.93a5.23,5.23,0,0,1-5.22,5.23H352.21l17.2,51.83A70.24,70.24,0,0,0,425.36,255.07Z"/><path class="cls-11" d="M339.5,336.84h0a7.84,7.84,0,0,0-7.85-7.85H282.43a16.4,16.4,0,0,1-16.4-16.4V257.74a7.7,7.7,0,0,0-7.7-7.7h0a7.7,7.7,0,0,0-7.7,7.7v58.13a28.82,28.82,0,0,0,28.82,28.83h52.2A7.85,7.85,0,0,0,339.5,336.84Z"/><path class="cls-12" d="M281,183.11a6.9,6.9,0,1,0,12.48-5.88L290.49,171a6.92,6.92,0,0,1,3.3-9.19l.77-.36,5.5-2.59a6.9,6.9,0,0,0-5.89-12.49l-6.26,3a6.9,6.9,0,0,1-9.18-3.31l-3-6.26a6.9,6.9,0,0,0-12.49,5.88l2.95,6.27a6.9,6.9,0,0,1-3.3,9.18L256.67,164a6.91,6.91,0,0,0-3.3,9.18h0a6.91,6.91,0,0,0,9.19,3.31l6.26-2.95a6.88,6.88,0,0,1,8.64,2.37,6.1,6.1,0,0,1,.54.93Z"/><path class="cls-13" d="M765.48,168.33l3.13,1.4a2.81,2.81,0,0,1,1.51,1.59,2.78,2.78,0,0,1-.06,2.19,2.87,2.87,0,0,1-3.79,1.46l-3.13-1.4a3.94,3.94,0,0,0-3-.09,4,4,0,0,0-2.21,2.1l-1.4,3.13a2.81,2.81,0,0,1-1.59,1.51,2.78,2.78,0,0,1-2.19-.06,2.87,2.87,0,0,1-1.46-3.79l1.4-3.13a3.49,3.49,0,0,0,.28-1l-1.6,1.23-1.09,2.44a4,4,0,0,0,3.07,5.56,3.89,3.89,0,0,0,2-.22,4,4,0,0,0,2.21-2.09l1.4-3.14a2.87,2.87,0,0,1,3.79-1.45l3.13,1.4a4,4,0,1,0,3.24-7.27l-3.13-1.4a2.86,2.86,0,0,1-1.45-3.79l.07-.16-1.41,1.08A4,4,0,0,0,765.48,168.33Z"/><path class="cls-14" d="M152.67,512.75a21.67,21.67,0,0,0-22.43-14.19l-14.11,10.79,10.78-3.91A15.66,15.66,0,0,1,147,514.82l1.34,3.68,5-3.85Z"/><polygon class="cls-15" points="187.6 517.18 192.65 513.35 188.23 501.17 183.19 505.03 187.6 517.18"/><path class="cls-16" d="M96.54,476.7l14.82-5.38,7.27-5.56A16.36,16.36,0,0,1,124,463a22.25,22.25,0,0,0,2.4-4,21.61,21.61,0,0,0,.74-16.61l-4.71-13-5,3.85,4.06,11.2a15.64,15.64,0,0,1-9.38,20.06L94.48,471a21.68,21.68,0,0,0-14,23.95l5.78-4.43A15.69,15.69,0,0,1,96.54,476.7Z"/><path class="cls-17" d="M121.31,412.89a15.53,15.53,0,0,1,8.84-8.09,15.68,15.68,0,0,1,18.07,5.58,15.45,15.45,0,0,1,2,3.8l6.39,17.62a21.75,21.75,0,0,0,27.82,13l17.62-6.4a15.66,15.66,0,1,1,10.69,29.44l-17.62,6.4a21.73,21.73,0,0,0-14.28,19.37l7.63-5.84a15.63,15.63,0,0,1,8.71-7.84l2.94-1.07,6.8-5.2a5.24,5.24,0,0,1,6.72.3l1.16-.43A21.71,21.71,0,1,0,200,432.72l-17.62,6.4a15.7,15.7,0,0,1-20.07-9.38l-6.39-17.63a21.71,21.71,0,0,0-41.28,13.35l5.33-4.08A15.51,15.51,0,0,1,121.31,412.89Z"/><path class="cls-18" d="M159.06,530.38l-1.95-5.4-5,3.86,1.3,3.6a21.78,21.78,0,0,0,4.45,7.32l4.88-3.69A15.62,15.62,0,0,1,159.06,530.38Z"/><path class="cls-19" d="M121.18,58.81a2.35,2.35,0,0,1-.31-3.31l1.79-2.17a3.26,3.26,0,1,0-5-4.16l-1.8,2.17a2.36,2.36,0,0,1-3.31.32l-2.18-1.8A3.27,3.27,0,0,0,105,52.69a3.29,3.29,0,0,0,1.17,2.21l2.18,1.79a2.36,2.36,0,0,1,.31,3.32l-1.79,2.17a3.27,3.27,0,0,0,.44,4.6,3.27,3.27,0,0,0,2.39.73,3.23,3.23,0,0,0,2.2-1.17l1.8-2.18a2.35,2.35,0,0,1,3.31-.31l2.18,1.79a3.24,3.24,0,0,0,2.39.74,3.3,3.3,0,0,0,2.68-1.94,3.32,3.32,0,0,0,.26-1.62,3.27,3.27,0,0,0-1.17-2.21Zm1.91,5.82a2.35,2.35,0,0,1-3.31.31l-2.18-1.79a3.24,3.24,0,0,0-2.39-.74,3.27,3.27,0,0,0-2.2,1.17l-1.8,2.18a2.36,2.36,0,0,1-4-2.45,2.4,2.4,0,0,1,.34-.55l1.8-2.17a3.28,3.28,0,0,0-.44-4.6l-2.18-1.8a2.35,2.35,0,0,1,3-3.63l2.18,1.8a3.26,3.26,0,0,0,4.59-.44l1.8-2.17a2.34,2.34,0,0,1,3.31-.32,2.35,2.35,0,0,1,.32,3.32l-1.8,2.17a3.27,3.27,0,0,0,.44,4.6l2.18,1.79a2.36,2.36,0,0,1,.31,3.32Z"/><path class="cls-20" d="M468.17,73.39l4,1.53a4.27,4.27,0,0,1,2.46,5.52l-1.54,4a4.28,4.28,0,1,0,8,3.07l1.53-4a4.28,4.28,0,0,1,5.53-2.45l4,1.53a4.27,4.27,0,1,0,3.06-8l-4-1.54a4.27,4.27,0,0,1-2.45-5.52l1.54-4a4.28,4.28,0,0,0-8-3.07l-1.54,4A4.27,4.27,0,0,1,475.24,67l-4-1.54a4.28,4.28,0,0,0-3.07,8Z"/><path class="cls-21" d="M719.34,422.13,711,424.36a8.59,8.59,0,0,1-10.53-6.09l-2.23-8.34a8.61,8.61,0,0,0-16.63,4.44l2.23,8.34a8.61,8.61,0,0,1-6.09,10.54l-8.34,2.22a8.61,8.61,0,0,0,4.45,16.63l8.33-2.23A8.61,8.61,0,0,1,692.73,456L695,464.3a8.6,8.6,0,0,0,16.62-4.44l-2.23-8.34A8.62,8.62,0,0,1,715.44,441l8.34-2.22a8.61,8.61,0,0,0-4.44-16.63Z"/><path class="cls-22" d="M689,100.38a8.21,8.21,0,0,0,11.51,1.53L823.33,8a8.22,8.22,0,0,0,3.09-8H815.5l-128,97.08A8.1,8.1,0,0,0,689,100.38Z"/><path class="cls-23" d="M742.64,134.7a16.31,16.31,0,0,0,2,2.19l97.22-74.38V38.07l-96.18,73.58A16.44,16.44,0,0,0,742.64,134.7Z"/><path class="cls-24" d="M508.61,57a16.44,16.44,0,0,0,23,3.07L555,42.23a8.23,8.23,0,0,1,3-8.55L602,0H556.08l-44.4,34A16.45,16.45,0,0,0,508.61,57Z"/><path class="cls-25" d="M556.45,45.19A8.22,8.22,0,0,0,568,46.73L629.05,0H610.21L555,42.23A8.22,8.22,0,0,0,556.45,45.19Z"/><path class="cls-26" d="M555,42.23,610.21,0H602L558,33.68A8.23,8.23,0,0,0,555,42.23Z"/><path class="cls-27" d="M555,42.23,610.21,0H602L558,33.68A8.23,8.23,0,0,0,555,42.23Z"/><path class="cls-28" d="M764.73,206.9A6,6,0,0,0,773.1,208l68.79-52.63v-9L764.11,205.9A6.14,6.14,0,0,0,764.73,206.9Z"/><path class="cls-29" d="M724.17,224.84a9.23,9.23,0,0,0,12.93,1.72l27-20.66a6,6,0,0,1,1.73-7.37l76-58.18V123.16l-116,88.74A9.25,9.25,0,0,0,724.17,224.84Z"/><path class="cls-30" d="M764.11,205.9l77.78-59.51v-6l-76,58.18A6,6,0,0,0,764.11,205.9Z"/><path class="cls-31" d="M764.11,205.9l77.78-59.51v-6l-76,58.18A6,6,0,0,0,764.11,205.9Z"/><path class="cls-32" d="M763.47,163.07l1.39-3.13a2.86,2.86,0,0,0-1.45-3.79,2.78,2.78,0,0,0-2.19-.06,2.81,2.81,0,0,0-1.59,1.51l-1.4,3.13a4,4,0,0,1-5.26,2l-3.13-1.4a2.61,2.61,0,0,0-.76-.21,2.86,2.86,0,0,0-3,1.67A2.78,2.78,0,0,0,746,165a2.81,2.81,0,0,0,1.51,1.59l3.13,1.4a4,4,0,0,1,2.1,2.22,3.89,3.89,0,0,1,.19,2.05l10.22-7.81A4,4,0,0,1,763.47,163.07Z"/><path class="cls-33" d="M744.67,136.89,704,168a16.55,16.55,0,1,0,20.11,26.29l27.26-20.85.31-.69a2.89,2.89,0,0,0,.06-2.2,2.84,2.84,0,0,0-1.51-1.59L747,167.6a4,4,0,0,1,3.25-7.27l3.13,1.4a2.86,2.86,0,0,0,3.79-1.45l1.4-3.13a4,4,0,1,1,7.27,3.24l-1.33,3,77.34-59.17V79.48L765.7,137.77A16.43,16.43,0,0,1,744.67,136.89Z"/><path class="cls-34" d="M763.87,155.13a4,4,0,0,0-5.26,2l-1.4,3.13a2.86,2.86,0,0,1-3.79,1.45l-3.13-1.4A4,4,0,0,0,747,167.6l3.14,1.4a2.84,2.84,0,0,1,1.51,1.59,2.89,2.89,0,0,1-.06,2.2l-.31.69,1.6-1.23a3.89,3.89,0,0,0-.19-2.05,4,4,0,0,0-2.1-2.22l-3.13-1.4A2.81,2.81,0,0,1,746,165a2.78,2.78,0,0,1,.06-2.19,2.86,2.86,0,0,1,3-1.67,2.61,2.61,0,0,1,.76.21l3.13,1.4a4,4,0,0,0,5.26-2l1.4-3.13a2.81,2.81,0,0,1,1.59-1.51,2.78,2.78,0,0,1,2.19.06,2.86,2.86,0,0,1,1.45,3.79l-1.39,3.13a4,4,0,0,0-.33,1.37l1.41-1.08,1.33-3A4,4,0,0,0,763.87,155.13Z"/><path class="cls-35" d="M763.87,155.13a4,4,0,0,0-5.26,2l-1.4,3.13a2.86,2.86,0,0,1-3.79,1.45l-3.13-1.4A4,4,0,0,0,747,167.6l3.14,1.4a2.84,2.84,0,0,1,1.51,1.59,2.89,2.89,0,0,1-.06,2.2l-.31.69,1.6-1.23a3.89,3.89,0,0,0-.19-2.05,4,4,0,0,0-2.1-2.22l-3.13-1.4A2.81,2.81,0,0,1,746,165a2.78,2.78,0,0,1,.06-2.19,2.86,2.86,0,0,1,3-1.67,2.61,2.61,0,0,1,.76.21l3.13,1.4a4,4,0,0,0,5.26-2l1.4-3.13a2.81,2.81,0,0,1,1.59-1.51,2.78,2.78,0,0,1,2.19.06,2.86,2.86,0,0,1,1.45,3.79l-1.39,3.13a4,4,0,0,0-.33,1.37l1.41-1.08,1.33-3A4,4,0,0,0,763.87,155.13Z"/><path class="cls-36" d="M765.7,137.77l76.19-58.29v-17l-97.22,74.38A16.43,16.43,0,0,0,765.7,137.77Z"/><path class="cls-37" d="M765.7,137.77l76.19-58.29v-17l-97.22,74.38A16.43,16.43,0,0,0,765.7,137.77Z"/><path class="cls-38" d="M641.41,49.53l63-47.76a7,7,0,0,0-7.16.83L592,83.06a7,7,0,1,0,8.54,11.18l28-21.4A32.8,32.8,0,0,1,641.41,49.53Z"/><path class="cls-39" d="M462,34.92a4.11,4.11,0,0,0,5.77.77L514.4,0H500.85l-38.1,29.15A4.11,4.11,0,0,0,462,34.92Z"/><path class="cls-40" d="M701.91,124.76a4,4,0,0,0-5.58-.74L636.8,169.57a4,4,0,1,0,4.84,6.32l59.53-45.55A4,4,0,0,0,701.91,124.76Z"/><path class="cls-41" d="M92.69,511.09a21.54,21.54,0,0,1-8.43-7,22.33,22.33,0,0,1-2.79-5.3,21.39,21.39,0,0,1-1-3.87L0,556.51v30.64l97.38-74.5A21.71,21.71,0,0,1,92.69,511.09Z"/><path class="cls-42" d="M141.83,468.85A16.54,16.54,0,0,0,124,463a21.46,21.46,0,0,1-9.87,7.26l-2.8,1L86.25,490.53a15.65,15.65,0,0,0,21,15.61l17.62-6.39a21.61,21.61,0,0,1,5.39-1.19l8.5-6.5A16.57,16.57,0,0,0,141.83,468.85Z"/><path class="cls-43" d="M115.36,509.94l.77-.59-1.08.39Z"/><path class="cls-44" d="M84.26,504.13a21.68,21.68,0,0,0,13.12,8.52l2.75-2.11a13.26,13.26,0,0,1,14.92-.8l1.08-.39,14.11-10.79a21.61,21.61,0,0,0-5.39,1.19l-17.62,6.39a15.65,15.65,0,0,1-21-15.61L80.47,495a21.39,21.39,0,0,0,1,3.87A22.33,22.33,0,0,0,84.26,504.13Z"/><path class="cls-42" d="M84.26,504.13a21.68,21.68,0,0,0,13.12,8.52l2.75-2.11a13.26,13.26,0,0,1,14.92-.8l1.08-.39,14.11-10.79a21.61,21.61,0,0,0-5.39,1.19l-17.62,6.39a15.65,15.65,0,0,1-21-15.61L80.47,495a21.39,21.39,0,0,0,1,3.87A22.33,22.33,0,0,0,84.26,504.13Z"/><path class="cls-45" d="M124,463a16.36,16.36,0,0,0-5.4,2.72l-7.27,5.56,2.8-1A21.46,21.46,0,0,0,124,463Z"/><path class="cls-46" d="M124,463a16.36,16.36,0,0,0-5.4,2.72l-7.27,5.56,2.8-1A21.46,21.46,0,0,0,124,463Z"/><path class="cls-47" d="M115.14,588.8l55.31-42.31a21.79,21.79,0,0,1-5.86-1.79,21.55,21.55,0,0,1-6.77-4.94l-72.47,55H113A5.79,5.79,0,0,1,115.14,588.8Z"/><path class="cls-48" d="M179.13,539.75l.28-.11,7-5.39a16.18,16.18,0,0,0,1.52-2.58,15.52,15.52,0,0,0,.54-12l-.91-2.51-24.9,18.89A15.66,15.66,0,0,0,179.13,539.75Z"/><path class="cls-49" d="M259.59,503.84h0a32.88,32.88,0,0,0-46.06-6.33l-20.88,15.84,1.55,4.28a21.54,21.54,0,0,1,1.15,9.81l6.12-4.68a5.77,5.77,0,0,1,7,9.17l-82.09,62.81h45.68l94.18-72A32.75,32.75,0,0,0,259.59,503.84Z"/><path class="cls-50" d="M188.51,519.69a15.52,15.52,0,0,1-.54,12,16.18,16.18,0,0,1-1.52,2.58l8.9-6.81a21.54,21.54,0,0,0-1.15-9.81l-1.55-4.28-5.05,3.83Z"/><path class="cls-51" d="M188.51,519.69a15.52,15.52,0,0,1-.54,12,16.18,16.18,0,0,1-1.52,2.58l8.9-6.81a21.54,21.54,0,0,0-1.15-9.81l-1.55-4.28-5.05,3.83Z"/><path class="cls-52" d="M179.13,539.75a15.66,15.66,0,0,1-16.43-3.68l-4.88,3.69a21.55,21.55,0,0,0,6.77,4.94,21.79,21.79,0,0,0,5.86,1.79l9-6.85Z"/><path class="cls-53" d="M179.13,539.75a15.66,15.66,0,0,1-16.43-3.68l-4.88,3.69a21.55,21.55,0,0,0,6.77,4.94,21.79,21.79,0,0,0,5.86,1.79l9-6.85Z"/><path class="cls-54" d="M114.63,425.46,60.54,466.84a4,4,0,1,0,4.84,6.32l52-39.81-2.34-6.42C114.91,426.44,114.77,426,114.63,425.46Z"/><path class="cls-54" d="M125.66,422a4,4,0,0,0-5.58-.74l-.12.09a15.69,15.69,0,0,0,.81,3.48l1.69,4.64,2.46-1.89A4,4,0,0,0,125.66,422Z"/><path class="cls-55" d="M120.77,424.86a15.69,15.69,0,0,1-.81-3.48l-5.33,4.08c.14.49.28,1,.45,1.47l2.34,6.42,5-3.85Z"/><path class="cls-54" d="M120.77,424.86a15.69,15.69,0,0,1-.81-3.48l-5.33,4.08c.14.49.28,1,.45,1.47l2.34,6.42,5-3.85Z"/><path class="cls-56" d="M131.45,367.91a16.34,16.34,0,0,0-22.91-3.05L59.72,402.2a8.35,8.35,0,0,1,1.34,1.38,8.5,8.5,0,0,1-1.59,11.93L0,461v28l128.4-98.23A16.33,16.33,0,0,0,131.45,367.91Z"/><path class="cls-57" d="M328.09,492.08a13.25,13.25,0,0,0-18.58-2.48l-43.26,33.1a32.84,32.84,0,0,1-13,27.2l-59.11,44.84h21.56l109.91-84.08A13.26,13.26,0,0,0,328.09,492.08Z"/><path class="cls-58" d="M266.25,522.7l-94.18,72h22.08l59.11-44.84A32.84,32.84,0,0,0,266.25,522.7Z"/><path class="cls-59" d="M266.25,522.7l-94.18,72h22.08l59.11-44.84A32.84,32.84,0,0,0,266.25,522.7Z"/><path class="cls-60" d="M209.56,523.84a5.77,5.77,0,0,0-8.09-1.08l-6.12,4.68a21.71,21.71,0,0,1-24.9,19L115.14,588.8a5.79,5.79,0,0,0-2.1,5.94h13.35l82.09-62.81A5.76,5.76,0,0,0,209.56,523.84Z"/><path class="cls-61" d="M209.56,523.84a5.77,5.77,0,0,0-8.09-1.08l-6.12,4.68a21.71,21.71,0,0,1-24.9,19L115.14,588.8a5.79,5.79,0,0,0-2.1,5.94h13.35l82.09-62.81A5.76,5.76,0,0,0,209.56,523.84Z"/><path class="cls-62" d="M186.45,534.25l-7,5.39A15.57,15.57,0,0,0,186.45,534.25Z"/><path class="cls-63" d="M186.45,534.25l-7,5.39A15.57,15.57,0,0,0,186.45,534.25Z"/><path class="cls-64" d="M179.41,539.64l-9,6.85a21.65,21.65,0,0,0,24.9-19l-8.9,6.81A15.57,15.57,0,0,1,179.41,539.64Z"/><path class="cls-65" d="M179.41,539.64l-9,6.85a21.65,21.65,0,0,0,24.9-19l-8.9,6.81A15.57,15.57,0,0,1,179.41,539.64Z"/><path class="cls-66" d="M179.41,539.64l-9,6.85a21.65,21.65,0,0,0,24.9-19l-8.9,6.81A15.57,15.57,0,0,1,179.41,539.64Z"/><path class="cls-67" d="M49.14,402,0,439.59v8.3L59.72,402.2A8.49,8.49,0,0,0,49.14,402Z"/><path class="cls-68" d="M61.06,403.58a8.35,8.35,0,0,0-1.34-1.38L0,447.89V461l59.47-45.5A8.5,8.5,0,0,0,61.06,403.58Z"/><path class="cls-69" d="M61.06,403.58a8.35,8.35,0,0,0-1.34-1.38L0,447.89V461l59.47-45.5A8.5,8.5,0,0,0,61.06,403.58Z"/><path class="cls-70" d="M413,536.49a6.84,6.84,0,0,0-9.58-1.28l-77.81,59.53h22.5l63.61-48.67A6.83,6.83,0,0,0,413,536.49Z"/><path class="cls-71" d="M381.25,487.42l-78.39,60a5.25,5.25,0,0,0,6.38,8.33l78.38-60a5.24,5.24,0,0,0-6.37-8.33Z"/><path class="cls-72" d="M188.47,487.78A15.66,15.66,0,0,0,187.8,500l.43,1.17L213.3,482a5.24,5.24,0,0,0,1-7.35,4.57,4.57,0,0,0-.63-.68l-13.52,4.9Z"/><path class="cls-72" d="M157.11,525l26.08-20-1.08-3a21.58,21.58,0,0,1-1.27-8.45l-27.48,21Z"/><path class="cls-72" d="M128.54,533.64a5.24,5.24,0,1,0,6.37,8.32l17.16-13.12-3.75-10.34Z"/><polygon class="cls-73" points="153.36 514.65 148.32 518.5 152.07 528.84 157.11 524.98 153.36 514.65"/><polygon class="cls-72" points="153.36 514.65 148.32 518.5 152.07 528.84 157.11 524.98 153.36 514.65"/><path class="cls-74" d="M188.47,487.78l-7.63,5.84a21.58,21.58,0,0,0,1.27,8.45l1.08,3,5-3.86L187.8,500A15.66,15.66,0,0,1,188.47,487.78Z"/><path class="cls-72" d="M188.47,487.78l-7.63,5.84a21.58,21.58,0,0,0,1.27,8.45l1.08,3,5-3.86L187.8,500A15.66,15.66,0,0,1,188.47,487.78Z"/><path class="cls-75" d="M206.92,473.67l-6.8,5.2,13.52-4.9A5.24,5.24,0,0,0,206.92,473.67Z"/><path class="cls-76" d="M206.92,473.67l-6.8,5.2,13.52-4.9A5.24,5.24,0,0,0,206.92,473.67Z"/><path class="cls-77" d="M118.72,513a13.24,13.24,0,0,0-3.36-3.08L4.52,594.74h29.2l82.52-63.14A13.25,13.25,0,0,0,118.72,513Z"/><path class="cls-78" d="M115.05,509.74l-5.76,2.09a21.54,21.54,0,0,1-11.91.82L0,587.15v7.59H4.52l110.84-84.8Z"/><path class="cls-79" d="M115.05,509.74l-5.76,2.09a21.54,21.54,0,0,1-11.91.82L0,587.15v7.59H4.52l110.84-84.8Z"/><path class="cls-80" d="M100.13,510.54l-2.75,2.11a21.54,21.54,0,0,0,11.91-.82l5.76-2.09A13.26,13.26,0,0,0,100.13,510.54Z"/><path class="cls-81" d="M100.13,510.54l-2.75,2.11a21.54,21.54,0,0,0,11.91-.82l5.76-2.09A13.26,13.26,0,0,0,100.13,510.54Z"/><path class="cls-82" d="M100.13,510.54l-2.75,2.11a21.54,21.54,0,0,0,11.91-.82l5.76-2.09A13.26,13.26,0,0,0,100.13,510.54Z"/><path class="cls-83" d="M66.37,358a13.25,13.25,0,0,0-18.58-2.47L0,392.08v33.38l63.9-48.88A13.26,13.26,0,0,0,66.37,358Z"/><path class="cls-84" d="M707.06,3.91a7,7,0,0,1-1.32,9.86L628.53,72.84a32.78,32.78,0,0,0,6.56,22.75h0a32.88,32.88,0,0,0,46.06,6.32l6.36-4.83a8.18,8.18,0,0,1,3-8.21L806.71,0H741.65a3.92,3.92,0,0,1-1.52,2.86l-58.5,44.75a3.91,3.91,0,0,1-4.75-6.21L731,0H706.7l-2.34,1.77A7.12,7.12,0,0,1,707.06,3.91Z"/><path class="cls-85" d="M687.51,97.08,815.5,0h-8.79L690.55,88.87A8.18,8.18,0,0,0,687.51,97.08Z"/><path class="cls-86" d="M687.51,97.08,815.5,0h-8.79L690.55,88.87A8.18,8.18,0,0,0,687.51,97.08Z"/><path class="cls-87" d="M676.15,46.88a3.9,3.9,0,0,0,5.48.73l58.5-44.75A3.92,3.92,0,0,0,741.65,0H731L676.88,41.4A3.9,3.9,0,0,0,676.15,46.88Z"/><path class="cls-88" d="M676.15,46.88a3.9,3.9,0,0,0,5.48.73l58.5-44.75A3.92,3.92,0,0,0,741.65,0H731L676.88,41.4A3.9,3.9,0,0,0,676.15,46.88Z"/><path class="cls-89" d="M707.06,3.91a7.12,7.12,0,0,0-2.7-2.14l-63,47.76a32.8,32.8,0,0,0-12.88,23.31l77.21-59.07A7,7,0,0,0,707.06,3.91Z"/><path class="cls-90" d="M707.06,3.91a7.12,7.12,0,0,0-2.7-2.14l-63,47.76a32.8,32.8,0,0,0-12.88,23.31l77.21-59.07A7,7,0,0,0,707.06,3.91Z"/></g></g></svg>