<svg xmlns="http://www.w3.org/2000/svg" xmlns:xlink="http://www.w3.org/1999/xlink" viewBox="0 0 792 612"><defs><style>.cls-1{fill:#1d1d1b;}.cls-2{fill:#fff;}.cls-3{fill:url(#Nouvelle_nuance_de_dégradé_1);}.cls-4{fill:url(#Nouvelle_nuance_de_dégradé_1-2);}.cls-5{fill:url(#Nouvelle_nuance_de_dégradé_1-3);}.cls-6{fill:url(#Nouvelle_nuance_de_dégradé_1-4);}.cls-7{fill:url(#Dégradé_sans_nom_2);}.cls-8{fill:url(#Dégradé_sans_nom_2-2);}.cls-9{fill:url(#Dégradé_sans_nom_2-3);}.cls-10{fill:url(#Nouvelle_nuance_de_dégradé_1-5);}.cls-11{fill:url(#Nouvelle_nuance_de_dégradé_1-6);}.cls-12{fill:url(#Nouvelle_nuance_de_dégradé_1-7);}.cls-13{fill:url(#Nouvelle_nuance_de_dégradé_1-8);}.cls-14{fill:url(#Dégradé_sans_nom_2-4);}.cls-15{fill:url(#Dégradé_sans_nom_2-5);}.cls-16{fill:url(#Dégradé_sans_nom_2-6);}</style><linearGradient id="Nouvelle_nuance_de_dégradé_1" x1="276.73" y1="249.18" x2="350.63" y2="276" gradientUnits="userSpaceOnUse"><stop offset="0" stop-color="#ee752b"/><stop offset="1" stop-color="#e73438"/></linearGradient><linearGradient id="Nouvelle_nuance_de_dégradé_1-2" x1="322.26" y1="260.64" x2="196.9" y2="343.59" xlink:href="#Nouvelle_nuance_de_dégradé_1"/><linearGradient id="Nouvelle_nuance_de_dégradé_1-3" x1="237.82" y1="275.78" x2="147.18" y2="276.2" xlink:href="#Nouvelle_nuance_de_dégradé_1"/><linearGradient id="Nouvelle_nuance_de_dégradé_1-4" x1="164.38" y1="317.47" x2="100.83" y2="317.77" xlink:href="#Nouvelle_nuance_de_dégradé_1"/><linearGradient id="Dégradé_sans_nom_2" x1="275.33" y1="233.98" x2="282.68" y2="256.4" xlink:href="#Nouvelle_nuance_de_dégradé_1"/><linearGradient id="Dégradé_sans_nom_2-2" x1="2038.3" y1="1732.82" x2="2042.9" y2="1746.83" gradientTransform="translate(-2496.79 110.72) rotate(-35.16)" xlink:href="#Nouvelle_nuance_de_dégradé_1"/><linearGradient id="Dégradé_sans_nom_2-3" x1="2515.89" y1="5811.14" x2="2517.79" y2="5816.94" gradientTransform="translate(-4758.1 4108.44) rotate(-103.16)" xlink:href="#Nouvelle_nuance_de_dégradé_1"/><linearGradient id="Nouvelle_nuance_de_dégradé_1-5" x1="621.76" y1="249.18" x2="695.67" y2="276" xlink:href="#Nouvelle_nuance_de_dégradé_1"/><linearGradient id="Nouvelle_nuance_de_dégradé_1-6" x1="667.29" y1="260.64" x2="541.94" y2="343.59" xlink:href="#Nouvelle_nuance_de_dégradé_1"/><linearGradient id="Nouvelle_nuance_de_dégradé_1-7" x1="582.86" y1="275.78" x2="492.22" y2="276.2" xlink:href="#Nouvelle_nuance_de_dégradé_1"/><linearGradient id="Nouvelle_nuance_de_dégradé_1-8" x1="509.41" y1="317.47" x2="445.86" y2="317.77" xlink:href="#Nouvelle_nuance_de_dégradé_1"/><linearGradient id="Dégradé_sans_nom_2-4" x1="473.69" y1="192.05" x2="481.04" y2="214.48" xlink:href="#Nouvelle_nuance_de_dégradé_1"/><linearGradient id="Dégradé_sans_nom_2-5" x1="2322.13" y1="1932.43" x2="2326.72" y2="1946.44" gradientTransform="translate(-2496.79 110.72) rotate(-35.16)" xlink:href="#Nouvelle_nuance_de_dégradé_1"/><linearGradient id="Dégradé_sans_nom_2-6" x1="2469.03" y1="6156.55" x2="2470.93" y2="6162.36" gradientTransform="translate(-4758.1 4108.44) rotate(-103.16)" xlink:href="#Nouvelle_nuance_de_dégradé_1"/></defs><title>axeDWvF</title><g id="Calque_2" data-name="Calque 2"><g id="Calque_1-2" data-name="Calque 1"><rect class="cls-1" width="792" height="612"/><rect class="cls-2" x="85.89" y="168.41" width="275.18" height="275.18" rx="40.04"/><path class="cls-3" d="M339.5,288.18a4.45,4.45,0,0,1-4.24-5.78,20.93,20.93,0,0,0-39.91-12.6,4.43,4.43,0,0,1-8.45-2.67,29.79,29.79,0,1,1,56.82,17.95A4.42,4.42,0,0,1,339.5,288.18Z"/><path class="cls-4" d="M183.71,261.5h.63a15.07,15.07,0,0,1,14.44,10.72l2.5,8.32c4.25,14.09,24.11,14.37,28.75.39l3.13-9.42a15.07,15.07,0,0,1,14.31-10.33h4.9a15.08,15.08,0,0,1,14.31,10.33l3.12,9.42c4.64,14,24.5,13.7,28.75-.4l2.5-8.31a15.08,15.08,0,0,1,14.44-10.72h0a15.07,15.07,0,0,1,14.31,19.82l-27.36,82.42a15.07,15.07,0,0,1-14.31,10.32h-5.4A15.07,15.07,0,0,1,268.5,364l-4.7-13.43c-4.72-13.48-23.79-13.46-28.47,0l-4.65,13.36a15.06,15.06,0,0,1-14.24,10.13h-5.38a15.08,15.08,0,0,1-14.31-10.32L169.4,281.32A15.07,15.07,0,0,1,183.71,261.5Z"/><path class="cls-5" d="M163.21,220.3H125a4.9,4.9,0,0,0-4.9,4.89v95.14a11.74,11.74,0,0,0,11.74,11.74H176a50.25,50.25,0,0,0,50.25-50.25v-6.27C226.28,243.29,203.12,220.3,163.21,220.3Zm26.89,55.78v14.17a3.75,3.75,0,0,1-3.74,3.74H160a3.75,3.75,0,0,1-3.74-3.74V259.33a1,1,0,0,1,.95-.95H170c12.71,0,20.09,7.33,20.09,17.6Z"/><path class="cls-6" d="M154.38,340.25H123.65a11.74,11.74,0,0,1-11.74-11.73V289.25a5.51,5.51,0,0,0-5.51-5.51h0a5.51,5.51,0,0,0-5.51,5.51v41.62a20.63,20.63,0,0,0,20.63,20.63h37.36a5.63,5.63,0,0,0,5.63-5.62h0a5.63,5.63,0,0,0-5.63-5.63Z"/><path class="cls-1" d="M194.86,395.25h2.84v.21a2.83,2.83,0,1,1-.85-2l-.1.1a2.72,2.72,0,0,0-1.89-.77,2.69,2.69,0,1,0,2.69,2.69v0h-2.69Z"/><path class="cls-1" d="M204.4,396h-1.61v2.32h-.15v-5.66h1.91a1.67,1.67,0,0,1,0,3.34l1.33,2.32h-.17Zm.15-3.2h-1.76v3.06h1.76a1.53,1.53,0,0,0,0-3.06Z"/><path class="cls-1" d="M213.72,392.63a2.83,2.83,0,1,1-2.83,2.83A2.83,2.83,0,0,1,213.72,392.63Zm0,5.51a2.69,2.69,0,1,0-2.69-2.68A2.68,2.68,0,0,0,213.72,398.14Z"/><path class="cls-1" d="M221.34,392.63h.15v3.42a2.09,2.09,0,0,0,4.17,0v-3.43h.15v3.42a2.24,2.24,0,1,1-4.47,0Z"/><path class="cls-1" d="M234.5,394.3a1.67,1.67,0,0,1-1.67,1.67h-1.77v2.32h-.14v-5.66h1.91A1.67,1.67,0,0,1,234.5,394.3Zm-3.44-1.53v3.06h1.77a1.53,1.53,0,0,0,0-3.06Z"/><path class="cls-1" d="M239.41,392.63h3.52v.15h-3.38v2.54h3.15v.15h-3.15v2.67h3.38v.15h-3.52Z"/><path class="cls-1" d="M256.44,392.63h.15v5.66h-.15Z"/><path class="cls-1" d="M175.64,417l7.11-15.23h1.8L191.72,417h-4l-.93-2h-6.24l-.91,2Zm6.48-5.37h3.1l-1.54-3.35Z"/><path class="cls-1" d="M205.45,417l-7.19-7.21V417h-4V401.8h1.63L203.1,409V401.8h4V417Z"/><path class="cls-1" d="M221.86,417l-7.19-7.21V417h-4V401.8h1.63l7.21,7.18V401.8h4V417Z"/><path class="cls-1" d="M227.08,401.8h9.47v3.3h-5.46v2.48h4.83V411h-4.83v2.81h5.46V417h-9.47Z"/><path class="cls-1" d="M239.92,401.8h9.46v3.3h-5.46v2.48h4.83V411h-4.83v2.81h5.46V417h-9.46Z"/><path class="cls-1" d="M268.35,408.31a2.42,2.42,0,0,0,.67-1.56,1.86,1.86,0,0,0-1.8-1.75,1.78,1.78,0,0,0-1.77,1.81h-3.27a5,5,0,0,1,10.09.06,5.17,5.17,0,0,1-.91,2.8l-2.91,4.13h4.31V417H262.22Z"/><path class="cls-7" d="M279.65,240.21,279,242a1.92,1.92,0,0,1-2.48,1.1l-1.8-.69a1.92,1.92,0,0,0-2.49,1.11h0a1.92,1.92,0,0,0,1.1,2.48l1.81.69a1.93,1.93,0,0,1,1.1,2.49l-.69,1.8a1.92,1.92,0,0,0,1.11,2.49h0a1.91,1.91,0,0,0,2.48-1.11l.69-1.8a1.93,1.93,0,0,1,2.49-1.1l1.8.69a1.92,1.92,0,0,0,2.49-1.11h0a1.91,1.91,0,0,0-1.11-2.48l-1.8-.7a1.92,1.92,0,0,1-1.1-2.48l.69-1.8a1.92,1.92,0,0,0-1.11-2.49h0A1.92,1.92,0,0,0,279.65,240.21Z"/><path class="cls-8" d="M171.93,355.23l.29,1.17a1.19,1.19,0,0,1-.87,1.46l-1.17.29a1.21,1.21,0,0,0-.87,1.46h0a1.21,1.21,0,0,0,1.46.88l1.17-.3a1.21,1.21,0,0,1,1.46.87l.29,1.17a1.21,1.21,0,0,0,1.46.88h0a1.21,1.21,0,0,0,.88-1.46l-.3-1.17a1.2,1.2,0,0,1,.87-1.46l1.17-.3a1.2,1.2,0,0,0,.88-1.46h0a1.21,1.21,0,0,0-1.46-.87l-1.17.3a1.2,1.2,0,0,1-1.46-.88l-.3-1.17a1.2,1.2,0,0,0-1.46-.87h0A1.21,1.21,0,0,0,171.93,355.23Z"/><path class="cls-2" d="M319.84,276.9a.71.71,0,0,0,0-.2,1.93,1.93,0,0,0,0-.24,2.26,2.26,0,0,0,0-.26l0-.19a2.47,2.47,0,0,0-.06-.29v0c0-.06-.05-.1-.07-.16a2.77,2.77,0,0,0-.1-.26l-.12-.2-.14-.21a1.29,1.29,0,0,0-.16-.17l-.17-.18-.19-.14-.21-.14-.24-.12-.16-.07h0l-.28-.07-.2,0h-.49l-.2,0a2.47,2.47,0,0,0-.29.06h0l-5.56,1.63a2.5,2.5,0,1,0,1.41,4.79l.85-.25-2.59,7.26a2.5,2.5,0,1,0,4.7,1.68l4.24-11.88a.06.06,0,0,0,0,0A2.29,2.29,0,0,0,319.84,276.9Z"/><path class="cls-9" d="M329,334.25l.49.07a.5.5,0,0,1,.43.56l-.07.5a.5.5,0,0,0,.42.56h0a.5.5,0,0,0,.57-.43l.06-.49a.51.51,0,0,1,.57-.43l.49.07a.49.49,0,0,0,.56-.42h0a.48.48,0,0,0-.42-.56l-.5-.07a.5.5,0,0,1-.42-.57l.07-.49a.51.51,0,0,0-.43-.56h0a.5.5,0,0,0-.56.42l-.07.5a.5.5,0,0,1-.56.42l-.5-.06a.5.5,0,0,0-.56.42h0A.5.5,0,0,0,329,334.25Z"/><rect class="cls-2" x="430.93" y="168.41" width="275.18" height="275.18" rx="40.04"/><path class="cls-10" d="M684.53,288.18a4.51,4.51,0,0,1-1.34-.21,4.44,4.44,0,0,1-2.89-5.57,20.93,20.93,0,0,0-39.91-12.6,4.44,4.44,0,0,1-8.46-2.67,29.8,29.8,0,1,1,56.83,17.95A4.45,4.45,0,0,1,684.53,288.18Z"/><path class="cls-11" d="M528.74,261.5h.64a15.05,15.05,0,0,1,14.43,10.72l2.51,8.32c4.24,14.09,24.11,14.37,28.74.39l3.13-9.42a15.07,15.07,0,0,1,14.31-10.33h4.9a15.07,15.07,0,0,1,14.31,10.33l3.13,9.42c4.63,14,24.5,13.7,28.74-.4l2.51-8.31a15.06,15.06,0,0,1,14.43-10.72h0a15.07,15.07,0,0,1,14.31,19.82l-27.35,82.42a15.09,15.09,0,0,1-14.31,10.32h-5.41A15.09,15.09,0,0,1,613.53,364l-4.7-13.43c-4.71-13.48-23.78-13.46-28.47,0l-4.64,13.36a15.08,15.08,0,0,1-14.25,10.13h-5.38a15.09,15.09,0,0,1-14.31-10.32l-27.35-82.42A15.07,15.07,0,0,1,528.74,261.5Z"/><path class="cls-12" d="M508.24,220.3H470a4.89,4.89,0,0,0-4.89,4.89v95.14a11.74,11.74,0,0,0,11.74,11.74h44.19a50.25,50.25,0,0,0,50.25-50.25v-6.27C571.31,243.29,548.16,220.3,508.24,220.3Zm26.89,55.78v14.17a3.74,3.74,0,0,1-3.74,3.74H505.05a3.74,3.74,0,0,1-3.74-3.74V259.33a.94.94,0,0,1,.94-.95H515c12.72,0,20.09,7.33,20.09,17.6Z"/><path class="cls-13" d="M499.42,340.25H468.68a11.74,11.74,0,0,1-11.74-11.73V289.25a5.51,5.51,0,0,0-5.51-5.51h0a5.51,5.51,0,0,0-5.51,5.51v41.62a20.63,20.63,0,0,0,20.63,20.63h37.37a5.62,5.62,0,0,0,5.62-5.62h0a5.63,5.63,0,0,0-5.62-5.63Z"/><path class="cls-1" d="M539.89,395.25h2.85v.21a2.83,2.83,0,1,1-.85-2l-.11.1a2.69,2.69,0,1,0,.8,1.92v0h-2.69Z"/><path class="cls-1" d="M549.44,396h-1.62v2.32h-.14v-5.66h1.91a1.67,1.67,0,0,1,0,3.34l1.34,2.32h-.18Zm.15-3.2h-1.77v3.06h1.77a1.53,1.53,0,0,0,0-3.06Z"/><path class="cls-1" d="M558.75,392.63a2.83,2.83,0,1,1-2.83,2.83A2.83,2.83,0,0,1,558.75,392.63Zm0,5.51a2.69,2.69,0,1,0-2.68-2.68A2.68,2.68,0,0,0,558.75,398.14Z"/><path class="cls-1" d="M566.37,392.63h.15v3.42a2.09,2.09,0,0,0,4.18,0v-3.43h.15v3.42a2.24,2.24,0,1,1-4.48,0Z"/><path class="cls-1" d="M579.54,394.3a1.68,1.68,0,0,1-1.68,1.67H576.1v2.32H576v-5.66h1.91A1.68,1.68,0,0,1,579.54,394.3Zm-3.44-1.53v3.06h1.76a1.53,1.53,0,0,0,0-3.06Z"/><path class="cls-1" d="M584.44,392.63H588v.15h-3.38v2.54h3.15v.15h-3.15v2.67H588v.15h-3.52Z"/><path class="cls-1" d="M601.48,392.63h.15v5.66h-.15Z"/><path class="cls-1" d="M520.67,417l7.11-15.23h1.81L536.76,417h-4l-.94-2h-6.23l-.92,2Zm6.48-5.37h3.11l-1.55-3.35Z"/><path class="cls-1" d="M550.49,417l-7.19-7.21V417h-4V401.8h1.62l7.21,7.18V401.8h4V417Z"/><path class="cls-1" d="M566.9,417l-7.19-7.21V417h-4V401.8h1.62l7.21,7.18V401.8h4V417Z"/><path class="cls-1" d="M572.12,401.8h9.46v3.3h-5.46v2.48H581V411h-4.83v2.81h5.46V417h-9.46Z"/><path class="cls-1" d="M585,401.8h9.46v3.3H589v2.48h4.83V411H589v2.81h5.46V417H585Z"/><path class="cls-1" d="M613.39,408.31a2.47,2.47,0,0,0,.67-1.56,1.86,1.86,0,0,0-1.81-1.75,1.79,1.79,0,0,0-1.77,1.81h-3.27a5.05,5.05,0,0,1,10.1.06,5.14,5.14,0,0,1-.92,2.8l-2.9,4.13h4.3V417H607.25Z"/><path class="cls-14" d="M478,198.29l-.7,1.8a1.91,1.91,0,0,1-2.48,1.11l-1.8-.69a1.92,1.92,0,0,0-2.49,1.1h0a1.92,1.92,0,0,0,1.11,2.49l1.8.69a1.93,1.93,0,0,1,1.1,2.49l-.69,1.8a1.92,1.92,0,0,0,1.11,2.49h0a1.92,1.92,0,0,0,2.48-1.11l.7-1.8a1.92,1.92,0,0,1,2.48-1.11l1.8.7a1.93,1.93,0,0,0,2.49-1.11h0a1.93,1.93,0,0,0-1.11-2.49L482,204a1.92,1.92,0,0,1-1.1-2.48l.69-1.81a1.91,1.91,0,0,0-1.11-2.48h0A1.92,1.92,0,0,0,478,198.29Z"/><path class="cls-15" d="M518.92,355l.3,1.17a1.21,1.21,0,0,1-.88,1.46l-1.17.29a1.21,1.21,0,0,0-.87,1.46h0a1.21,1.21,0,0,0,1.46.87l1.17-.29a1.2,1.2,0,0,1,1.46.87l.3,1.17a1.2,1.2,0,0,0,1.46.87h0a1.2,1.2,0,0,0,.87-1.46l-.3-1.17a1.21,1.21,0,0,1,.88-1.46l1.17-.29a1.21,1.21,0,0,0,.87-1.46h0a1.19,1.19,0,0,0-1.46-.87l-1.17.29a1.2,1.2,0,0,1-1.46-.87l-.3-1.17a1.19,1.19,0,0,0-1.46-.87h0A1.2,1.2,0,0,0,518.92,355Z"/><path class="cls-2" d="M666.14,274.32a1.6,1.6,0,0,0,.05-.21,1.69,1.69,0,0,0,0-.23,2.26,2.26,0,0,0,0-.26,1.25,1.25,0,0,0,0-.19c0-.1,0-.2,0-.3s0,0,0,0l-.06-.15c0-.09-.07-.18-.11-.26l-.12-.2-.14-.21-.16-.18a1.37,1.37,0,0,0-.17-.17l-.19-.14-.2-.14c-.08-.05-.17-.08-.25-.12l-.16-.07h0l-.27-.07-.21-.05h-.49a1.38,1.38,0,0,0-.2,0l-.29.05h0L657.46,273a2.5,2.5,0,1,0,1.4,4.79l.86-.25-2.6,7.27a2.5,2.5,0,0,0,4.7,1.68l4.25-11.88s0,0,0,0A2.8,2.8,0,0,0,666.14,274.32Z"/><path class="cls-16" d="M676,301.25l.5.07a.49.49,0,0,1,.42.56l-.07.49a.5.5,0,0,0,.43.56h0a.5.5,0,0,0,.56-.42l.07-.5a.5.5,0,0,1,.56-.42l.5.07a.5.5,0,0,0,.56-.43h0a.51.51,0,0,0-.43-.56l-.49-.07a.5.5,0,0,1-.43-.56l.07-.49a.5.5,0,0,0-.43-.57h0a.51.51,0,0,0-.56.43l-.07.49a.49.49,0,0,1-.56.43l-.49-.07a.49.49,0,0,0-.56.43h0A.5.5,0,0,0,676,301.25Z"/></g></g></svg>