<svg xmlns="http://www.w3.org/2000/svg" xmlns:xlink="http://www.w3.org/1999/xlink" viewBox="0 0 396.29 406"><defs><style>.cls-1{fill:#1d759f;}.cls-2{fill:#293b56;}.cls-3{fill:#69c4d1;}.cls-4{fill:#010101;opacity:0.24;}.cls-5{fill:url(#Dégradé_sans_nom_3);}.cls-6{fill:url(#Dégradé_sans_nom_3-2);}.cls-7{fill:url(#Dégradé_sans_nom_3-3);}.cls-8{fill:url(#Dégradé_sans_nom_5);}</style><linearGradient id="Dégradé_sans_nom_3" x1="345.62" y1="384.84" x2="374.88" y2="411.9" gradientUnits="userSpaceOnUse"><stop offset="0" stop-color="#69c4d1"/><stop offset="1" stop-color="#1d759f"/></linearGradient><linearGradient id="Dégradé_sans_nom_3-2" x1="348.71" y1="381.49" x2="377.98" y2="408.56" xlink:href="#Dégradé_sans_nom_3"/><linearGradient id="Dégradé_sans_nom_3-3" x1="359.54" y1="369.78" x2="388.8" y2="396.85" xlink:href="#Dégradé_sans_nom_3"/><radialGradient id="Dégradé_sans_nom_5" cx="88.91" cy="344.53" r="140.74" xlink:href="#Dégradé_sans_nom_3"/></defs><title>devlab</title><g id="Calque_2" data-name="Calque 2"><g id="Calque_1-2" data-name="Calque 1"><path class="cls-1" d="M195.06,7.39A155.94,155.94,0,1,0,351,163.32,156,156,0,0,0,195.06,7.39Z"/><path class="cls-2" d="M245.82,170.42c16.1-6.62,21.44-18.75,21.8-19.61h0v0l0,0c-.85-.39-13-5.61-29.18.43-1-.7-8.81-5.76-20-1.36,0,0,8.09,2.08,9.8,6.43l.33-.15-.31.19v0a21.25,21.25,0,0,0-4.67,6.63s.86.71,2.23,4.19,1.21,4.57,1.21,4.57A21.4,21.4,0,0,0,235,173.4c1.71,4.35-2.8,11.38-2.8,11.38C244.06,180.1,245.79,170.57,245.82,170.42Z"/><path class="cls-2" d="M218.4,21.22a8.13,8.13,0,0,0-2.39-5h0l-6.15-9.56L189.62,9c-1,0-2,.08-3,.15a65,65,0,0,0-8,1.09l-16.4,1.87s-4.82,10-5,11.4h0a7,7,0,0,0-.21,2.27c.59,7.93,14.8,13.34,31.73,12.09S219,29.15,218.4,21.22Z"/><ellipse class="cls-3" cx="186.64" cy="11.57" rx="24.46" ry="11.46" transform="translate(-0.34 13.86) rotate(-4.25)"/><ellipse class="cls-2" cx="291.8" cy="129.4" rx="13.53" ry="17.54" transform="translate(49.95 337.73) rotate(-64.66)"/><ellipse class="cls-3" cx="295.61" cy="124.58" rx="10.95" ry="14.2" transform="translate(56.49 338.42) rotate(-64.66)"/><ellipse class="cls-2" cx="143.34" cy="121.03" rx="39.08" ry="24.51" transform="translate(-40.13 81.88) rotate(-28.13)"/><ellipse class="cls-3" cx="149.82" cy="128.28" rx="26.14" ry="11.79" transform="translate(-44.07 92.1) rotate(-30)"/><ellipse class="cls-2" cx="127.91" cy="272.16" rx="10.98" ry="20.52" transform="translate(-170.62 308.42) rotate(-71.75)"/><ellipse class="cls-3" cx="126" cy="277.95" rx="7.6" ry="14.2" transform="translate(-177.43 310.59) rotate(-71.75)"/><path class="cls-2" d="M75.43,69.24A3.82,3.82,0,0,0,73,68.4h0L67.7,67.3l-5.92,7.58c-.31.34-.62.68-.93,1a30.6,30.6,0,0,0-2.26,3l-4.8,6.14S55.56,90,56,90.57h0a3.29,3.29,0,0,0,.7.83c2.86,2.42,9.39-.57,14.57-6.69S78.29,71.66,75.43,69.24Z"/><ellipse class="cls-3" cx="61.67" cy="76.74" rx="11.55" ry="5.41" transform="translate(-36.75 74.2) rotate(-49.74)"/><ellipse class="cls-2" cx="278" cy="253.77" rx="15.85" ry="9.09" transform="translate(-97.65 229.86) rotate(-38.75)"/><ellipse class="cls-3" cx="276.68" cy="252.48" rx="12.15" ry="5.95" transform="translate(-97.13 228.76) rotate(-38.75)"/><path class="cls-2" d="M345.49,201.7a2.06,2.06,0,0,0,1.4-.32h0l2.77-1,.58-5.26c.05-.24.09-.5.13-.75a15.12,15.12,0,0,0,.18-2.08L351,188s-2.25-1.79-2.59-1.92h0a1.67,1.67,0,0,0-.57-.19c-2-.3-4.22,3-4.88,7.34S343.45,201.4,345.49,201.7Z"/><ellipse class="cls-3" cx="349.76" cy="194.22" rx="6.35" ry="2.97" transform="translate(105.71 511.23) rotate(-81.45)"/><path class="cls-4" d="M322,254A156,156,0,0,1,51.11,103.26c29.67,91.24,115.4,157.21,216.55,157.21A228.12,228.12,0,0,0,322,254Z"/><path class="cls-2" d="M39.49,173.49q-7.79,4.27-15.26,9A138.42,138.42,0,0,0,9.92,192.83,34.2,34.2,0,0,0,4,199a6,6,0,0,0-1.27,3.3,1.77,1.77,0,0,0,.52,1.13,4.28,4.28,0,0,0,1.35.89,15.4,15.4,0,0,0,3.85,1c1.38.19,2.81.27,4.24.33,2.85.11,5.78,0,8.73-.09a606.1,606.1,0,0,0,70.36-6.92,677.78,677.78,0,0,0,69.18-14.42A609,609,0,0,0,228,162.35l2.69,7a590.9,590.9,0,0,1-68.19,21.07,680.63,680.63,0,0,1-70,13.22,610.88,610.88,0,0,1-71,5.63c-3,0-6,.08-9-.14a36.38,36.38,0,0,1-4.58-.6A17.19,17.19,0,0,1,3.25,207a7.1,7.1,0,0,1-2.19-1.72A4.58,4.58,0,0,1,0,202.35a6.29,6.29,0,0,1,.69-2.69A12.4,12.4,0,0,1,2,197.57a37.12,37.12,0,0,1,6.69-6.25,133.85,133.85,0,0,1,15-9.63Q31.47,177.33,39.49,173.49Z"/><path class="cls-5" d="M360.8,399.11c.9-.71,1.69-1.36,2.38-2a11.06,11.06,0,0,0,1.68-1.79,6.72,6.72,0,0,0,1-1.91,7.09,7.09,0,0,0,.34-2.3v-.06a6.47,6.47,0,0,0-.51-2.61,5.83,5.83,0,0,0-1.44-2A6.68,6.68,0,0,0,362,385.2a8.91,8.91,0,0,0-2.9-.45,9.68,9.68,0,0,0-2.46.28,7,7,0,0,0-2,.83A8.45,8.45,0,0,0,353,387.2a19.5,19.5,0,0,0-1.54,1.83l3.17,2.56a12,12,0,0,1,2.07-2.09,3.53,3.53,0,0,1,2.13-.67,2.91,2.91,0,0,1,2,.67,2.53,2.53,0,0,1,.76,2,3.44,3.44,0,0,1-.19,1.18,4.2,4.2,0,0,1-.62,1.12,9,9,0,0,1-1.1,1.2c-.45.42-1,.89-1.64,1.42L351.2,402v3.57h15.21v-3.9h-9Z"/><rect class="cls-6" x="369.87" y="400.9" width="4.73" height="4.7"/><path class="cls-7" d="M395.63,391.09a10.31,10.31,0,0,0-1.85-3.36,8.34,8.34,0,0,0-2.87-2.23,8.52,8.52,0,0,0-3.72-.81,8.38,8.38,0,0,0-3.74.82,8.62,8.62,0,0,0-2.89,2.26,10.37,10.37,0,0,0-1.87,3.38,12.83,12.83,0,0,0-.66,4.17v.06a13.2,13.2,0,0,0,.65,4.17,10.28,10.28,0,0,0,1.83,3.36,8.41,8.41,0,0,0,2.88,2.23,8.66,8.66,0,0,0,10.38-2.28,10.38,10.38,0,0,0,1.86-3.37,12.83,12.83,0,0,0,.66-4.17v-.06A12.83,12.83,0,0,0,395.63,391.09Zm-4,4.29a10.52,10.52,0,0,1-.3,2.59,6.69,6.69,0,0,1-.9,2.06,4.31,4.31,0,0,1-1.41,1.35,3.72,3.72,0,0,1-3.71,0A4.55,4.55,0,0,1,383.9,400a7,7,0,0,1-.91-2.07,10.25,10.25,0,0,1-.32-2.61v-.06a10.12,10.12,0,0,1,.32-2.6,7.33,7.33,0,0,1,.9-2.06,4.46,4.46,0,0,1,1.39-1.35,3.62,3.62,0,0,1,1.85-.48,3.55,3.55,0,0,1,1.84.5,4.5,4.5,0,0,1,1.44,1.38,6.75,6.75,0,0,1,.92,2.07,9.7,9.7,0,0,1,.32,2.6Z"/><polygon class="cls-8" points="76.31 382.5 103.14 382.5 103.14 371.37 76.31 371.37 76.31 359.82 106.79 359.82 106.79 348.68 63.87 348.68 63.87 405.59 107.2 405.59 107.2 394.46 76.31 394.46 76.31 382.5"/><polygon class="cls-8" points="142.16 388.76 127.29 348.68 113.47 348.68 136.47 406 147.53 406 170.54 348.68 157.04 348.68 142.16 388.76"/><polygon class="cls-8" points="191.84 348.68 179.32 348.68 179.32 405.59 220.22 405.59 220.22 394.21 191.84 394.21 191.84 348.68"/><path class="cls-8" d="M249.16,348.28l-24.39,57.31h12.77l5.2-12.76H266.8L272,405.59H285.1l-24.39-57.31Zm-1.95,33.49,7.56-18.45,7.56,18.45Z"/><path class="cls-8" d="M331.6,375.84c4.07-2.28,7.48-5.86,7.48-12.28v-.16a13.09,13.09,0,0,0-3.9-9.68c-3.25-3.25-8.37-5-14.88-5H293.88v56.91H321c12.85,0,21.31-5.2,21.31-15.61v-.16C342.26,382.18,338.19,378.36,331.6,375.84Zm-25.52-16.18h12.35c5.29,0,8.22,2.11,8.22,5.85v.17c0,4.22-3.5,6-9,6H306.08Zm23.74,28.78c0,4.23-3.34,6.18-8.87,6.18H306.08V382.1h14.47c6.42,0,9.27,2.36,9.27,6.18Z"/><path class="cls-8" d="M28.46,348.44H7.28l14.93,15.32h6.33a13.53,13.53,0,1,1,0,27.05H22.21L7.28,405.59H28.46a28.58,28.58,0,1,0,0-57.15Z"/><polygon class="cls-8" points="22.21 370.33 7.28 355.01 7.28 398.28 22.21 383.5 22.21 370.33"/></g></g></svg>