<svg xmlns="http://www.w3.org/2000/svg" xmlns:xlink="http://www.w3.org/1999/xlink" width="1920" height="4191" viewBox="0 0 1920 4191">
  <defs>
    <linearGradient id="linear-gradient" x1="0.5" x2="0.5" y2="1" gradientUnits="objectBoundingBox">
      <stop offset="0" stop-color="#6a7ff4"/>
      <stop offset="1" stop-color="#45539f"/>
    </linearGradient>
    <filter id="Rectangle_3" x="871" y="607" width="184" height="63" filterUnits="userSpaceOnUse">
      <feOffset dx="4" dy="5" input="SourceAlpha"/>
      <feGaussianBlur stdDeviation="3" result="blur"/>
      <feFlood flood-opacity="0.161"/>
      <feComposite operator="in" in2="blur"/>
      <feComposite in="SourceGraphic"/>
    </filter>
    <filter id="Tracé_135" x="-11.841" y="1399.838" width="1946.486" height="1468.452" filterUnits="userSpaceOnUse">
      <feOffset dx="4" dy="1" input="SourceAlpha"/>
      <feGaussianBlur stdDeviation="4" result="blur-2"/>
      <feFlood flood-opacity="0.161"/>
      <feComposite operator="in" in2="blur-2"/>
      <feComposite in="SourceGraphic"/>
    </filter>
    <linearGradient id="linear-gradient-2" x1="-0.036" y1="1.066" x2="0.543" y2="0.381" xlink:href="#linear-gradient"/>
    <linearGradient id="linear-gradient-3" x1="1.021" y1="0.5" x2="-0.037" y2="0.5" gradientUnits="objectBoundingBox">
      <stop offset="0" stop-color="#3c488a"/>
      <stop offset="0.5" stop-color="#7a8cef"/>
      <stop offset="1" stop-color="#677bed"/>
    </linearGradient>
    <filter id="Rectangle_4" x="404" y="1278" width="362" height="362" filterUnits="userSpaceOnUse">
      <feOffset dy="6" input="SourceAlpha"/>
      <feGaussianBlur stdDeviation="3" result="blur-3"/>
      <feFlood flood-opacity="0.161"/>
      <feComposite operator="in" in2="blur-3"/>
      <feComposite in="SourceGraphic"/>
    </filter>
    <filter id="Rectangle_5" x="779" y="1278" width="362" height="362" filterUnits="userSpaceOnUse">
      <feOffset dy="6" input="SourceAlpha"/>
      <feGaussianBlur stdDeviation="3" result="blur-4"/>
      <feFlood flood-opacity="0.161"/>
      <feComposite operator="in" in2="blur-4"/>
      <feComposite in="SourceGraphic"/>
    </filter>
    <filter id="Rectangle_6" x="1154" y="1278" width="362" height="362" filterUnits="userSpaceOnUse">
      <feOffset dy="6" input="SourceAlpha"/>
      <feGaussianBlur stdDeviation="3" result="blur-5"/>
      <feFlood flood-opacity="0.161"/>
      <feComposite operator="in" in2="blur-5"/>
      <feComposite in="SourceGraphic"/>
    </filter>
    <filter id="Rectangle_3-2" x="868" y="1683" width="190" height="69" filterUnits="userSpaceOnUse">
      <feOffset dx="4" dy="5" input="SourceAlpha"/>
      <feGaussianBlur stdDeviation="3" result="blur-6"/>
      <feFlood flood-opacity="0.161"/>
      <feComposite operator="in" in2="blur-6"/>
      <feComposite in="SourceGraphic"/>
    </filter>
    <linearGradient id="linear-gradient-6" x1="0.5" y1="1.194" x2="0.5" y2="0.045" gradientUnits="objectBoundingBox">
      <stop offset="0" stop-color="#45539f"/>
      <stop offset="1" stop-color="#6a7ff4"/>
    </linearGradient>
    <clipPath id="clip-path">
      <path id="Tracé_312" data-name="Tracé 312" d="M104.06,116.636,23.085,69.571c-.345-.211-.689-.421-1.015-.651l80.976,47.065C103.371,116.215,103.716,116.425,104.06,116.636Z" transform="translate(-22.07 -68.92)"/>
    </clipPath>
    <clipPath id="clip-path-2">
      <path id="Tracé_156" data-name="Tracé 156" d="M-398.163,148.828l-26.8,15.574c.157-.091.313-.184.466-.279l26.8-15.574C-397.85,148.643-398.006,148.737-398.163,148.828Z" transform="translate(424.962 -148.549)" fill="none"/>
    </clipPath>
    <clipPath id="clip-Web_1920_8">
      <rect width="1920" height="4191"/>
    </clipPath>
  </defs>
  <g id="Web_1920_8" data-name="Web 1920 – 8" clip-path="url(#clip-Web_1920_8)">
    <rect width="1920" height="4191" fill="#fff"/>
    <g id="Groupe_221" data-name="Groupe 221">
      <path id="Tracé_324" data-name="Tracé 324" d="M9117,1161h1921.49l.931,890.033s-218.294,99.973-487.717,70.151-287.965-212.164-588.826-198.029-396.7,218.34-607.646,271.49-238.188-74.883-238.188-74.883Z" transform="translate(-9117 -1161)" fill="#41bca0" stroke="#707070" stroke-width="1"/>
      <path id="Tracé_323" data-name="Tracé 323" d="M9117,1161h1921.49v855.886s-217.363,131.517-486.786,101.773-290.045-234.846-590.906-220.748-401.59,224.128-612.539,277.139-231.259-65.1-231.259-65.1Z" transform="translate(-9117 -1161)" stroke="#707070" stroke-width="1" fill="url(#linear-gradient)"/>
    </g>
    <text id="FREELANCE" transform="translate(705 494)" fill="#fff" font-size="40" font-family="GothamNarrow-Black, Gotham Narrow" font-weight="800" letter-spacing="0.05em"><tspan x="139.62" y="32">FREELANCE</tspan></text>
    <text id="Front-end_developper" data-name="Front-end developper" transform="translate(705 545)" fill="#fff" font-size="30" font-family="Gotham-Book, Gotham" letter-spacing="0.005em"><tspan x="90.59" y="24">Front-end developper</tspan></text>
    <g transform="matrix(1, 0, 0, 1, 0, 0)" filter="url(#Rectangle_3)">
      <rect id="Rectangle_3-3" data-name="Rectangle 3" width="166" height="45" rx="22.5" transform="translate(876 611)" fill="#41bca0"/>
    </g>
    <text id="Home" transform="translate(690 75)" fill="#fff" font-size="30" font-family="Gotham-Book, Gotham" letter-spacing="0.005em"><tspan x="0" y="24">Home</tspan></text>
    <text id="Projects" transform="translate(894 75)" fill="#fff" font-size="30" font-family="Gotham-Book, Gotham" letter-spacing="0.005em"><tspan x="0" y="24">Projects</tspan></text>
    <text id="Contact" transform="translate(1136 75)" fill="#fff" font-size="30" font-family="Gotham-Book, Gotham" letter-spacing="0.005em"><tspan x="0" y="24">Contact</tspan></text>
    <text id="View_more" data-name="View more" transform="translate(915 624)" fill="#fff" font-size="16" font-family="Gotham-Book, Gotham" letter-spacing="0.005em"><tspan x="0" y="13">View more</tspan></text>
    <g id="Groupe_2" data-name="Groupe 2" transform="translate(1740 837.004)">
      <path id="Tracé_9" data-name="Tracé 9" d="M198.539,180.055h.007v-9.9c0-4.844-1.043-8.575-6.705-8.575a5.878,5.878,0,0,0-5.295,2.91h-.079v-2.458H181.1v18.023h5.59V171.13c0-2.35.445-4.622,3.355-4.622,2.867,0,2.91,2.682,2.91,4.773v8.775Z" transform="translate(-171.55 -153.06)" fill="#fff"/>
      <path id="Tracé_10" data-name="Tracé 10" d="M8.448,170.176h5.6V188.2h-5.6Z" transform="translate(-8.003 -161.203)" fill="#fff"/>
      <path id="Tracé_11" data-name="Tracé 11" d="M3.242,0A3.257,3.257,0,1,0,6.483,3.242,3.243,3.243,0,0,0,3.242,0Z" fill="#fff"/>
    </g>
    <g id="Groupe_3" data-name="Groupe 3" transform="translate(1628.923 836.004)">
      <path id="Tracé_12" data-name="Tracé 12" d="M36.707.006,33.061,0c-4.1,0-6.744,2.716-6.744,6.92v3.191H22.65a.573.573,0,0,0-.573.574v4.623a.573.573,0,0,0,.573.573h3.666V27.545a.573.573,0,0,0,.573.573h4.783a.573.573,0,0,0,.573-.573V15.881h4.287a.573.573,0,0,0,.573-.573l0-4.623a.574.574,0,0,0-.574-.574H32.247v-2.7c0-1.3.31-1.96,2-1.96h2.456a.573.573,0,0,0,.573-.573V.579A.574.574,0,0,0,36.707.006Z" fill="#fff"/>
    </g>
    <g id="Groupe_4" data-name="Groupe 4" transform="translate(1660.819 836)">
      <path id="Tracé_13" data-name="Tracé 13" d="M53.051,2.977A11.14,11.14,0,0,0,45.26,0a12.248,12.248,0,0,0-9.033,3.483,10.292,10.292,0,0,0-3.045,7.134c0,3.234,1.353,5.715,3.618,6.639a1.2,1.2,0,0,0,.455.094,1.012,1.012,0,0,0,.988-.814c.076-.288.254-1,.331-1.306a1.225,1.225,0,0,0-.328-1.325,4.222,4.222,0,0,1-.96-2.885,7.261,7.261,0,0,1,7.528-7.309c3.88,0,6.29,2.205,6.29,5.755a11.958,11.958,0,0,1-1.359,5.842,4.018,4.018,0,0,1-3.324,2.326,2.2,2.2,0,0,1-1.752-.8,2.016,2.016,0,0,1-.353-1.751c.173-.732.409-1.5.637-2.234a13.825,13.825,0,0,0,.81-3.638A2.641,2.641,0,0,0,43.1,6.3c-2.021,0-3.6,2.052-3.6,4.672a6.948,6.948,0,0,0,.5,2.615c-.255,1.079-1.767,7.491-2.054,8.7-.166.706-1.166,6.281.489,6.726,1.859.5,3.521-4.93,3.69-5.544.137-.5.617-2.386.911-3.546a5.62,5.62,0,0,0,3.748,1.449,8.36,8.36,0,0,0,6.712-3.358,13.481,13.481,0,0,0,2.523-8.243A9.505,9.505,0,0,0,53.051,2.977Z" fill="#fff"/>
    </g>
    <text id="Web_solutions_design_wireframe_logo_UI_UX" data-name="Web solutions, design, wireframe, logo, UI &amp; UX" transform="translate(581 694)" fill="#fff" font-size="20" font-family="Gotham-Medium, Gotham" font-weight="500" letter-spacing="0.005em"><tspan x="91.6" y="16">WEB SOLUTIONS, DESIGN, WIREFRAME, LOGO, UI &amp; UX</tspan></text>
    <g id="Groupe_114" data-name="Groupe 114">
      <g transform="matrix(1, 0, 0, 1, 0, 0)" filter="url(#Tracé_135)">
        <path id="Tracé_135-2" data-name="Tracé 135" d="M3876.644,1182.542v-203.9s-43.715-15.4-165.171-31.382c-190.851-30.846-439.061,110.331-561.959,62.1-130.4-35.128-167.179-116.112-206.076-176.244s-92.885-86.74-111.734-94.017c-135.72-52.4-315.585,135.514-447.319,41.479s-77.508-343.235-214.629-453.111-210.133-100.423-210.133-100.423l-5.464,757,3.7,687.248s70.175-76.751,160.983-134.565c75.944-48.193,134.357-91.063,241.459-112.35,162.985-7.934,177.164,36.98,352.248,75.026,72.314,14.173,218.31-.978,274.074-59.575,36.736-38.6,72-148.8,86.143-176.115,35.539-68.636,103.385-88.568,222.62-63.042s187.8,110.228,278.644,118.571S3824.872,1293.25,3876.644,1182.542Z" transform="translate(-1958 1184)" fill="#41bca0"/>
      </g>
      <path id="Tracé_134" data-name="Tracé 134" d="M3552.688,929.863c-190.158,50.975-244.558,85.748-417.735,34.784S2962.44,765.309,2859.981,726.008c-136.613-52.4-303.531,106.551-436.131,12.515S2319.2,405.15,2187.6,301.636s-196.668-87.468-196.668-87.468V949.432l-.073,205.381v479.235s130.206-190.1,360.585-238.4,352.1,102.449,560.932,45.191,87.944-232.052,274.4-274.224,290.382,108.486,471.42,105.536,252.734-117.338,252.734-117.338V948.207S3742.846,878.888,3552.688,929.863Z" transform="translate(-1992 1215)" fill="url(#linear-gradient-2)"/>
    </g>
    <rect id="Rectangle_1" data-name="Rectangle 1" width="86" height="12" rx="6" transform="translate(1744 2090)" fill="url(#linear-gradient-3)"/>
    <g transform="matrix(1, 0, 0, 1, 0, 0)" filter="url(#Rectangle_4)">
      <rect id="Rectangle_4-2" data-name="Rectangle 4" width="344" height="344" rx="44" transform="translate(413 1281)" fill="#fff"/>
    </g>
    <g transform="matrix(1, 0, 0, 1, 0, 0)" filter="url(#Rectangle_5)">
      <rect id="Rectangle_5-2" data-name="Rectangle 5" width="344" height="344" rx="42" transform="translate(788 1281)" fill="#fff"/>
    </g>
    <g transform="matrix(1, 0, 0, 1, 0, 0)" filter="url(#Rectangle_6)">
      <rect id="Rectangle_6-2" data-name="Rectangle 6" width="344" height="344" rx="41" transform="translate(1163 1281)" fill="#fff"/>
    </g>
    <g transform="matrix(1, 0, 0, 1, 0, 0)" filter="url(#Rectangle_3-2)">
      <g id="Rectangle_3-4" data-name="Rectangle 3" transform="translate(876 1690)" stroke="#5e70d7" stroke-linecap="round" stroke-width="3" fill="url(#linear-gradient)">
        <rect width="166" height="45" rx="22.5" stroke="none"/>
        <rect x="-1.5" y="-1.5" width="169" height="48" rx="24" fill="none"/>
      </g>
    </g>
    <text id="LET_S_SEE" data-name="LET’S SEE" transform="translate(919 1704)" fill="#fff" font-size="16" font-family="Gotham-Book, Gotham" letter-spacing="0.005em"><tspan x="0" y="13">LET’S SEE</tspan></text>
    <g id="Groupe_85" data-name="Groupe 85" transform="translate(728 1137)">
      <path id="Tracé_136" data-name="Tracé 136" d="M-114,311.742h-24.742V287h-9.516v24.742H-173v9.516h24.742V346h9.516V321.258H-114Z" fill="#45539f"/>
      <path id="Tracé_137" data-name="Tracé 137" d="M-143,368a52.059,52.059,0,0,1-52-52,52.059,52.059,0,0,1,52-52,52.059,52.059,0,0,1,52,52A52.059,52.059,0,0,1-143,368Zm0-100a48.055,48.055,0,0,0-48,48,48.055,48.055,0,0,0,48,48,48.055,48.055,0,0,0,48-48A48.055,48.055,0,0,0-143,268Z" fill="#6a7ff4"/>
    </g>
    <g id="Groupe_86" data-name="Groupe 86" transform="translate(1103 1137)">
      <path id="Tracé_136-2" data-name="Tracé 136" d="M-114,311.742h-24.742V287h-9.516v24.742H-173v9.516h24.742V346h9.516V321.258H-114Z" fill="#45539f"/>
      <path id="Tracé_137-2" data-name="Tracé 137" d="M-143,368a52.059,52.059,0,0,1-52-52,52.059,52.059,0,0,1,52-52,52.059,52.059,0,0,1,52,52A52.059,52.059,0,0,1-143,368Zm0-100a48.055,48.055,0,0,0-48,48,48.055,48.055,0,0,0,48,48,48.055,48.055,0,0,0,48-48A48.055,48.055,0,0,0-143,268Z" fill="#6a7ff4"/>
    </g>
    <g id="Groupe_87" data-name="Groupe 87" transform="translate(1478 1137)">
      <path id="Tracé_136-3" data-name="Tracé 136" d="M-114,311.742h-24.742V287h-9.516v24.742H-173v9.516h24.742V346h9.516V321.258H-114Z" fill="#45539f"/>
      <path id="Tracé_137-3" data-name="Tracé 137" d="M-143,368a52.059,52.059,0,0,1-52-52,52.059,52.059,0,0,1,52-52,52.059,52.059,0,0,1,52,52A52.059,52.059,0,0,1-143,368Zm0-100a48.055,48.055,0,0,0-48,48,48.055,48.055,0,0,0,48,48,48.055,48.055,0,0,0,48-48A48.055,48.055,0,0,0-143,268Z" fill="#6a7ff4"/>
    </g>
    <text id="Students_projects_freelance_and_more_" data-name="Students projects, freelance and more… " transform="translate(608 1240)" fill="#707070" font-size="30" font-family="Gotham-Book, Gotham" letter-spacing="0.05em"><tspan x="0" y="24">Students projects, freelance and more… </tspan></text>
    <rect id="Rectangle_1-2" data-name="Rectangle 1" width="86" height="12" rx="6" transform="translate(65 3907)" fill="url(#linear-gradient-3)"/>
    <path id="Tracé_139" data-name="Tracé 139" d="M3977.159,1252.09s208.165-122.5,367.28-56.868,291.065,67.07,430.354,11.111,349.592-191.823,579.561-142.937,302.465,93.591,546.556,119.438v190H3977.159Z" transform="translate(-3978 2789)" fill="#41bca0"/>
    <path id="Tracé_138" data-name="Tracé 138" d="M3977.159,1237.608s194.165-135.974,392.4-47.876,364.619,27.8,503.908-28.162,250.92-147.06,480.89-98.175,302.465,93.591,546.556,119.438v190H3977.159Z" transform="translate(-3977 2819)" fill="url(#linear-gradient-6)"/>
    <text id="_2019_All_rights_reserved" data-name="©2019 All rights reserved" transform="translate(784 4136)" fill="#fff" font-size="25" font-family="Gotham-Book, Gotham" letter-spacing="0.05em"><tspan x="0" y="20">©2019 All rights reserved</tspan></text>
    <text id="Need_more_information_Ideas_about_projects_" data-name="Need more information ? 
Ideas about projects ?" transform="translate(67 2060)" fill="#fff" font-size="80" font-family="Gotham-Medium, Gotham" font-weight="500"><tspan x="0" y="64">Need more </tspan><tspan x="0" y="164">information ? </tspan><tspan font-size="40"><tspan x="0" y="264">Ideas about projects ?</tspan></tspan></text>
    <g id="Rectangle_7" data-name="Rectangle 7" transform="translate(789 3649)" stroke="#707070" stroke-width="1" fill="url(#linear-gradient)">
      <rect width="341" height="67" rx="33.5" stroke="none"/>
      <rect x="0.5" y="0.5" width="340" height="66" rx="33" fill="none"/>
    </g>
    <text id="SEND" transform="translate(913 3667)" fill="#fff" font-size="35" font-family="GothamNarrow-Black, Gotham Narrow" font-weight="800" letter-spacing="0.05em"><tspan x="0" y="28">SEND</tspan></text>
    <path id="Tracé_140" data-name="Tracé 140" d="M4605.231,920.141h623.9" transform="translate(-3958 2674)" fill="none" stroke="#41bca0" stroke-width="5"/>
    <text id="DESCRIPTION" transform="translate(647 3543)" fill="#5161ba" font-size="30" font-family="GothamNarrow-Black, Gotham Narrow" font-weight="800" letter-spacing="0.05em"><tspan x="0" y="24">DESCRIPTION</tspan></text>
    <path id="Tracé_141" data-name="Tracé 141" d="M4605.231,920.141h623.9" transform="translate(-3958 2422)" fill="none" stroke="#41bca0" stroke-width="5"/>
    <text id="MAIL" transform="translate(647 3280)" fill="#5161ba" font-size="30" font-family="GothamNarrow-Black, Gotham Narrow" font-weight="800" letter-spacing="0.05em"><tspan x="0" y="24">MAIL</tspan></text>
    <path id="Tracé_142" data-name="Tracé 142" d="M4605.231,920.141h623.9" transform="translate(-3958 2264)" fill="none" stroke="#41bca0" stroke-width="5"/>
    <text id="FIRST_NAME" data-name="FIRST NAME" transform="translate(647 3122)" fill="#5161ba" font-size="30" font-family="GothamNarrow-Black, Gotham Narrow" font-weight="800" letter-spacing="0.05em"><tspan x="0" y="24">FIRST NAME</tspan></text>
    <path id="Tracé_143" data-name="Tracé 143" d="M4605.231,920.141h623.9" transform="translate(-3958 2106)" fill="none" stroke="#41bca0" stroke-width="5"/>
    <text id="LAST_NAME" data-name="LAST NAME" transform="translate(647 2964)" fill="#5161ba" font-size="30" font-family="GothamNarrow-Black, Gotham Narrow" font-weight="800" letter-spacing="0.05em"><tspan x="0" y="24">LAST NAME</tspan></text>
    <g id="Groupe_88" data-name="Groupe 88" transform="translate(991 4080.004)">
      <path id="Tracé_9-2" data-name="Tracé 9" d="M198.539,180.055h.007v-9.9c0-4.844-1.043-8.575-6.705-8.575a5.878,5.878,0,0,0-5.295,2.91h-.079v-2.458H181.1v18.023h5.59V171.13c0-2.35.445-4.622,3.355-4.622,2.867,0,2.91,2.682,2.91,4.773v8.775Z" transform="translate(-171.55 -153.06)" fill="#fff"/>
      <path id="Tracé_10-2" data-name="Tracé 10" d="M8.448,170.176h5.6V188.2h-5.6Z" transform="translate(-8.003 -161.203)" fill="#fff"/>
      <path id="Tracé_11-2" data-name="Tracé 11" d="M3.242,0A3.257,3.257,0,1,0,6.483,3.242,3.243,3.243,0,0,0,3.242,0Z" fill="#fff"/>
    </g>
    <g id="Groupe_89" data-name="Groupe 89" transform="translate(879.923 4079.004)">
      <path id="Tracé_12-2" data-name="Tracé 12" d="M36.707.006,33.061,0c-4.1,0-6.744,2.716-6.744,6.92v3.191H22.65a.573.573,0,0,0-.573.574v4.623a.573.573,0,0,0,.573.573h3.666V27.545a.573.573,0,0,0,.573.573h4.783a.573.573,0,0,0,.573-.573V15.881h4.287a.573.573,0,0,0,.573-.573l0-4.623a.574.574,0,0,0-.574-.574H32.247v-2.7c0-1.3.31-1.96,2-1.96h2.456a.573.573,0,0,0,.573-.573V.579A.574.574,0,0,0,36.707.006Z" fill="#fff"/>
    </g>
    <g id="Groupe_90" data-name="Groupe 90" transform="translate(911.819 4079)">
      <path id="Tracé_13-2" data-name="Tracé 13" d="M53.051,2.977A11.14,11.14,0,0,0,45.26,0a12.248,12.248,0,0,0-9.033,3.483,10.292,10.292,0,0,0-3.045,7.134c0,3.234,1.353,5.715,3.618,6.639a1.2,1.2,0,0,0,.455.094,1.012,1.012,0,0,0,.988-.814c.076-.288.254-1,.331-1.306a1.225,1.225,0,0,0-.328-1.325,4.222,4.222,0,0,1-.96-2.885,7.261,7.261,0,0,1,7.528-7.309c3.88,0,6.29,2.205,6.29,5.755a11.958,11.958,0,0,1-1.359,5.842,4.018,4.018,0,0,1-3.324,2.326,2.2,2.2,0,0,1-1.752-.8,2.016,2.016,0,0,1-.353-1.751c.173-.732.409-1.5.637-2.234a13.825,13.825,0,0,0,.81-3.638A2.641,2.641,0,0,0,43.1,6.3c-2.021,0-3.6,2.052-3.6,4.672a6.948,6.948,0,0,0,.5,2.615c-.255,1.079-1.767,7.491-2.054,8.7-.166.706-1.166,6.281.489,6.726,1.859.5,3.521-4.93,3.69-5.544.137-.5.617-2.386.911-3.546a5.62,5.62,0,0,0,3.748,1.449,8.36,8.36,0,0,0,6.712-3.358,13.481,13.481,0,0,0,2.523-8.243A9.505,9.505,0,0,0,53.051,2.977Z" fill="#fff"/>
    </g>
    <path id="Tracé_153" data-name="Tracé 153" d="M202.023,417.944l-40.616,77.625,40.616-22.72,40.616,22.72Z" transform="translate(-94.407 3385.36)" fill="#41bca0"/>
    <g id="Groupe_113" data-name="Groupe 113" transform="translate(-168.275 -146.799)">
      <path id="Tracé_166" data-name="Tracé 166" d="M1128.443,422.252s53.817.532,62.748,44.973l-8.589,5.964s12.489,36.666,2.736,43.048-10.063,4.844-10.063,4.615-16.4,40.649-23.565,39.623-22.64,16.675-22.64,16.675-3.1-8.068-18.344-16.941c-.293-.171-13.949-.817-21.412-17.624s-8.826-22.943-8.826-22.943-16.294-23.778-7.129-44.9c0,0-9.724-7.266-5.181-15.167S1084.26,422.707,1128.443,422.252Z" transform="translate(-0.06 -0.252)" fill="#41bca0"/>
      <g id="Groupe_111" data-name="Groupe 111" transform="translate(1089.857 420.481)">
        <path id="Tracé_167" data-name="Tracé 167" d="M1090.107,452.969s-.353-24.842,25.734-32.248l2.232,13.56S1099.273,443.511,1090.107,452.969Z" transform="translate(-1090.099 -420.721)" fill="#6a7ff4"/>
        <path id="Tracé_168" data-name="Tracé 168" d="M1167.684,452.969s.352-24.842-25.734-32.248l-2.233,13.56S1158.519,443.511,1167.684,452.969Z" transform="translate(-1090.487 -420.721)" fill="#6a7ff4"/>
        <path id="Tracé_169" data-name="Tracé 169" d="M1128.985,458.167c.844-.894,13.252-14.195,13.706-24.983.452-10.75-12.712-11.783-13.7-11.845v-.006l-.048,0-.048,0v.006c-.987.062-14.151,1.1-13.7,11.845.454,10.788,12.862,24.089,13.706,24.983v.086l.041-.043.041.043Z" transform="translate(-1090.295 -420.726)" fill="#6a7ff4"/>
        <path id="Tracé_170" data-name="Tracé 170" d="M1094.631,466.869s-4.759,3.394-4.524,23.434c0,0,15.687-1.328,23.031-7.025l-3.76-19.2Z" transform="translate(-1090.099 -421.061)" fill="#6a7ff4"/>
        <path id="Tracé_171" data-name="Tracé 171" d="M1162.214,467.533s4.76,3.394,4.524,23.433c0,0-15.687-1.327-23.031-7.025l3.76-19.2Z" transform="translate(-1090.519 -421.066)" fill="#6a7ff4"/>
        <path id="Tracé_172" data-name="Tracé 172" d="M1148.083,499.954l-9.479-6.762-9.7,12.274-9.7-12.274-9.478,6.762c3.167,13.522,18.379,23.889,19.148,24.415v.026l.019-.013.019.013v-.026C1129.689,523.843,1144.159,513.476,1148.083,499.954Z" transform="translate(-1090.253 -421.289)" fill="#6a7ff4"/>
        <path id="Tracé_173" data-name="Tracé 173" d="M1104.435,534.244a8.865,8.865,0,0,0,4.309-6.229c1.018-4.711-9.948-16.561-9.948-16.561l-4.544,2.659S1097.777,527.1,1104.435,534.244Z" transform="translate(-1090.131 -421.432)" fill="#6a7ff4"/>
        <path id="Tracé_174" data-name="Tracé 174" d="M1154.5,532.937a8.869,8.869,0,0,1-4.308-6.23c-1.019-4.71,9.948-16.561,9.948-16.561l4.543,2.659S1161.154,525.8,1154.5,532.937Z" transform="translate(-1090.569 -421.422)" fill="#6a7ff4"/>
        <path id="Tracé_175" data-name="Tracé 175" d="M1137.753,548.972h-17.524c.991,7.063,8.355,10.983,8.744,11.186v.02l.018-.01.019.01v-.02C1129.4,559.955,1136.762,556.035,1137.753,548.972Z" transform="translate(-1090.335 -421.726)" fill="#6a7ff4"/>
      </g>
      <path id="Tracé_176" data-name="Tracé 176" d="M1197.775,466.67c-10.907-44.421-46.351-51.707-61.859-52.73h.067c.914-9.355,22.065-8.985,22.065-8.985l.283-14.785c-37.386-.855-37.64,23.8-37.64,23.8h.085c-15.687,1.111-50.677,8.616-61.5,52.7a16.8,16.8,0,0,0,8.46,5.166s-13.161,37.224,6.267,52.873c0,0,3.447.3,5.405-1.215,0,0,4.23,25.981,22.092,38.06a12.038,12.038,0,0,0,4.935-1.481s9.636,18.46,22.092,22.335c12.456-3.874,22.09-22.335,22.09-22.335a12.038,12.038,0,0,0,4.935,1.481c17.861-12.079,22.092-38.06,22.092-38.06,1.959,1.519,5.406,1.215,5.406,1.215,19.427-15.649,6.266-52.873,6.266-52.873A16.8,16.8,0,0,0,1197.775,466.67Zm-69.25,26.589S1116.3,486.117,1115.6,463.5s12.926-35.044,12.926-35.044,13.63,12.429,12.925,35.044S1128.525,493.259,1128.525,493.259Zm21.151,15.365s-4.113,18.859-21.151,28.659c-17.038-9.8-21.151-28.659-21.151-28.659,7.873-9.288,11.437-9.174,11.437-9.174,1.567,3.59,9.714,8.831,9.714,8.831s8.146-5.242,9.713-8.831C1138.238,499.45,1141.8,499.336,1149.676,508.623Zm-77.71-45.6c12.69-34.946,43.634-37.225,43.634-37.225-8.382,9.192-9.518,31.033-9.518,31.033C1097.268,466.062,1071.966,463.023,1071.966,463.023Zm5.914,48.505c-8.226-15.725.744-37.87.744-37.87,15.824-.835,24.872-5.773,24.872-5.773.666,11.4,8.343,21.822,8.343,21.822C1089.865,513.352,1077.88,511.529,1077.88,511.529Zm29.141,38.231c-6.815,3.361-17.2-21.4-17.626-31.394l7.638-4.444s8.721,17.777,18.54,25.982A16.908,16.908,0,0,1,1107.021,549.76Zm21.5,19.6c-6.052-3.419-12.809-9.344-10.576-13.96a17,17,0,0,1,6.4-6.894l4.172,4.159,4.171-4.159a17,17,0,0,1,6.4,6.894C1141.333,560.016,1134.576,565.941,1128.525,569.36Zm21.5-19.6a16.906,16.906,0,0,1-8.552-9.856c9.818-8.205,18.539-25.982,18.539-25.982l7.638,4.444C1167.225,528.364,1156.844,553.121,1150.028,549.76Zm29.182-38.231s-11.985,1.824-33.958-21.822c0,0,7.677-10.427,8.343-21.822,0,0,9.047,4.938,24.871,5.773C1178.467,473.658,1187.437,495.8,1179.211,511.529Zm-27.542-54.7s-1.135-21.84-9.518-31.033c0,0,30.944,2.279,43.635,37.225C1185.785,463.023,1160.482,466.062,1151.669,456.831Z" fill="#45539f"/>
    </g>
    <text id="CONTACT_ME" data-name="CONTACT ME" transform="translate(1090 2263)" fill="#fff" font-size="40" font-family="GothamNarrow-Black, Gotham Narrow" font-weight="800"><tspan x="519.88" y="32">CONTACT ME</tspan></text>
    <g id="Groupe_209" data-name="Groupe 209" transform="translate(237.731 2497.918)">
      <g id="Groupe_203" data-name="Groupe 203" transform="translate(-0.01)">
        <g id="Groupe_202" data-name="Groupe 202">
          <path id="Tracé_309" data-name="Tracé 309" d="M161.164,89.322l-2.355-1.359c.057-.153.134-.306.191-.46.115-.306.211-.594.306-.881l.345-.977c.23-.67.4-1.321.574-1.972.057-.249.153-.517.211-.766l.057-.23c.172-.747.287-1.474.383-2.183.019-.153.038-.326.057-.479.019-.23.057-.44.077-.67.057-.594.077-1.187.077-1.762,0-.306-.019-.594-.038-.881a4.9,4.9,0,0,0-.1-.517,7.394,7.394,0,0,0-.172-.977c-.038-.134-.038-.287-.077-.4a7.346,7.346,0,0,0-.268-.689.8.8,0,0,0-.077-.191,5.7,5.7,0,0,0-.728-1.13,1.1,1.1,0,0,0-.211-.211,4.53,4.53,0,0,0-1.053-.842L77.431,24.66a4.968,4.968,0,0,1,1.053.843l.211.211a4.957,4.957,0,0,1,.728,1.13.8.8,0,0,1,.077.191,6.069,6.069,0,0,1,.345,1.091,7.692,7.692,0,0,1,.172,1,10.292,10.292,0,0,1,.115,1.379,21.535,21.535,0,0,1-.153,2.432c-.019.153-.038.326-.057.479-.115.785-.249,1.589-.44,2.413-.057.249-.134.517-.211.766-.172.651-.364,1.3-.574,1.972-.115.326-.23.651-.345,1-.306.842-.613,1.685-1,2.547l2.853,1.666.153,58.611a13.343,13.343,0,0,1-.134,1.742c-.038.326-.1.651-.153.977a15.021,15.021,0,0,1-.345,1.551c-.019.077-.038.134-.057.211a16.156,16.156,0,0,1-.728,1.953l-.23.517a20.789,20.789,0,0,1-1.053,2.049,22.2,22.2,0,0,1-1.417,2.164c-.172.23-.345.4-.517.632-.345.421-.67.862-1.015,1.225a18.523,18.523,0,0,1-1.838,1.666,16.786,16.786,0,0,1-1.7,1.168l80.976,47.046a14.674,14.674,0,0,0,1.608-1.072c.038-.019.057-.057.1-.1a16.6,16.6,0,0,0,1.838-1.666l.019-.019a15.662,15.662,0,0,0,1.015-1.225c.172-.211.345-.383.5-.594.5-.67.957-1.4,1.417-2.164.4-.689.728-1.379,1.053-2.049l.23-.517c.077-.172.172-.364.23-.536a13.71,13.71,0,0,0,.479-1.417c.019-.077.038-.134.057-.211.1-.326.191-.651.249-.957.038-.191.057-.4.1-.594.057-.326.115-.651.153-.977.019-.172.057-.345.077-.517.038-.421.057-.823.057-1.225Z" transform="translate(65.123 22.558)" fill="#329680"/>
          <path id="Tracé_310" data-name="Tracé 310" d="M114.722,73.55,30.089,122.415a3.575,3.575,0,0,1-.383.191,10.742,10.742,0,0,1-1.551.689l-.4.115c-.134.038-.287.077-.421.115a3.244,3.244,0,0,1-.421.077l-.4.057h-.153a5.237,5.237,0,0,1-1.359-.1c-.019,0-.057-.019-.077-.019a4.741,4.741,0,0,1-1.3-.517c-.019-.019-.038-.019-.057-.038h0l80.976,47.046c.019.019.038.019.057.038a5.432,5.432,0,0,0,1.3.517c.019,0,.057.019.077.019a5.362,5.362,0,0,0,1.359.1h.1a.115.115,0,0,0,.077-.019l.4-.057a3.961,3.961,0,0,0,.421-.077c.134-.038.287-.077.421-.115.115-.038.23-.057.345-.1.019,0,.038-.019.057-.019a10.739,10.739,0,0,0,1.551-.689l.115-.057a1.748,1.748,0,0,0,.249-.153L195.7,120.558Z" transform="translate(21.571 67.281)" fill="#41bca0"/>
          <g id="Groupe_200" data-name="Groupe 200" transform="translate(42.278 131.966)">
            <g id="Groupe_199" data-name="Groupe 199" clip-path="url(#clip-path)">
              <path id="Tracé_311" data-name="Tracé 311" d="M104.06,116.636,23.085,69.571c-.345-.211-.689-.421-1.015-.651l80.976,47.065c.326.23.67.44,1.015.651" transform="translate(-22.07 -68.92)" fill="#858585"/>
            </g>
          </g>
          <path id="Tracé_313" data-name="Tracé 313" d="M160.122,6.319c-1.053-.613-2.125-1.187-3.236-1.7-.364-.172-.747-.326-1.13-.479-.747-.326-1.494-.67-2.259-.957-.46-.172-.938-.306-1.4-.479-.708-.249-1.4-.5-2.125-.708-.517-.153-1.034-.268-1.551-.4-.689-.172-1.379-.364-2.087-.517-.555-.115-1.111-.191-1.666-.287-.689-.115-1.4-.249-2.106-.345-.574-.077-1.187-.115-1.762-.172-.708-.077-1.417-.153-2.125-.191-.613-.038-1.225-.038-1.838-.057C136.13.019,135.4,0,134.675,0c-.632,0-1.283.057-1.915.077-.594.019-1.168.038-1.781.077a2.868,2.868,0,0,1-.421.038c-.785.057-1.57.172-2.355.249-.67.077-1.321.134-1.991.249-.8.115-1.628.287-2.451.421-.67.115-1.321.23-1.991.364-.842.172-1.7.4-2.566.613-.651.172-1.321.306-1.972.5-.9.249-1.8.536-2.7.823-.594.191-1.168.345-1.762.536-.057.019-.115.038-.191.057-.421.153-.862.306-1.283.46-1.034.364-2.087.747-3.14,1.168-.536.249-1.111.5-1.666.747-.938.383-1.857.785-2.8,1.206-.613.287-1.245.574-1.857.881q-1.35.632-2.7,1.321c-.651.326-1.3.67-1.934,1.015-.479.249-.938.479-1.417.747-.766.421-1.551.862-2.336,1.3-1.494.862-2.968,1.762-4.423,2.681-.479.287-.938.594-1.4.881q-1.522.977-3.044,2.011c-.517.345-1.034.708-1.532,1.072q-1.465,1.034-2.93,2.125c-.479.345-.938.689-1.417,1.053-.211.153-.421.306-.613.46-.421.326-.842.689-1.264,1.015-1.13.881-2.24,1.781-3.351,2.7q-.948.775-1.9,1.608Q70,29.8,68.424,31.211l-1.838,1.666c-1.091,1.015-2.183,2.049-3.255,3.083l-1.589,1.532c-1.455,1.436-2.891,2.91-4.289,4.4-.115.134-.249.249-.364.383-.019.019-.038.038-.038.057-.115.115-.23.249-.345.364q-1.781,1.9-3.5,3.849c-.421.479-.823.957-1.245,1.417-.843.977-1.7,1.953-2.528,2.949-.46.555-.919,1.111-1.379,1.647-.785.957-1.57,1.934-2.355,2.91-.44.555-.881,1.111-1.321,1.685-.823,1.053-1.628,2.145-2.451,3.217-.364.479-.728.957-1.072,1.436-1.149,1.57-2.279,3.14-3.389,4.749a2.493,2.493,0,0,0-.191.287c-1.034,1.513-2.068,3.025-3.083,4.576l-1.034,1.608c-.728,1.111-1.436,2.24-2.125,3.37-.383.613-.766,1.245-1.149,1.857l-1.953,3.274c-.364.613-.728,1.245-1.091,1.876-.67,1.168-1.321,2.355-1.972,3.523-.306.536-.613,1.091-.9,1.628-.919,1.723-1.838,3.447-2.719,5.189-.019.038-.038.1-.057.134-.862,1.7-1.685,3.408-2.508,5.132-.268.574-.536,1.149-.785,1.7-.555,1.206-1.111,2.413-1.647,3.619-.287.651-.574,1.321-.862,1.972-.5,1.149-.977,2.317-1.455,3.466-.268.67-.536,1.321-.8,1.991-.153.364-.306.728-.44,1.111-.191.5-.364.977-.555,1.474-.555,1.436-1.072,2.853-1.589,4.289-.287.8-.574,1.608-.842,2.413-.5,1.474-1,2.93-1.455,4.4-.23.728-.479,1.455-.689,2.183-.574,1.9-1.13,3.81-1.647,5.706-.077.287-.172.555-.23.843-.574,2.183-1.111,4.366-1.608,6.529-.038.153-.077.306-.115.44-.23.977-.4,1.953-.613,2.93-.153.747-.326,1.474-.46,2.221-.249,1.3-.479,2.585-.689,3.887-.153.632-.268,1.206-.364,1.8-.287,1.876-.555,3.753-.785,5.61-.019.172-.038.345-.057.536-.191,1.608-.364,3.236-.5,4.825a.651.651,0,0,1-.019.191C.354,164.44.3,165.723.22,167.006c-.038.651-.1,1.3-.115,1.934-.077,1.915-.115,3.83-.115,5.706,0,1.666.057,3.313.115,4.921.019.5.057.977.077,1.455.038.632.057,1.283.1,1.915.019.383.077.766.115,1.149.077.919.172,1.838.268,2.738.1.8.191,1.628.287,2.413q.172,1.321.4,2.642c.134.766.249,1.551.4,2.3.153.862.345,1.685.517,2.527.153.747.326,1.474.5,2.2.211.823.421,1.608.651,2.393.134.479.249.977.383,1.436.057.191.134.364.191.536.479,1.551,1,3.083,1.57,4.538.038.115.077.23.115.326.613,1.57,1.283,3.064,1.972,4.538.211.44.44.862.651,1.283.517,1.034,1.072,2.03,1.647,3.006.268.44.517.9.785,1.321.632,1.015,1.283,1.972,1.953,2.93l.632.919q1.35,1.809,2.815,3.447c.23.249.46.479.689.728q1.178,1.264,2.413,2.413c.345.326.708.632,1.053.938.785.689,1.57,1.321,2.393,1.953.345.268.689.536,1.034.785,1.168.823,2.336,1.628,3.581,2.336l80.976,47.046c-1.225-.708-2.413-1.513-3.581-2.336-.345-.249-.689-.517-1.034-.785-.823-.613-1.608-1.264-2.393-1.953-.364-.306-.708-.632-1.053-.938q-1.235-1.149-2.413-2.413c-.23-.249-.46-.479-.689-.728q-1.465-1.637-2.815-3.447c-.211-.287-.421-.613-.632-.919q-1.005-1.407-1.953-2.93c-.268-.44-.536-.881-.785-1.321-.574-.977-1.111-1.972-1.647-3.006-.211-.421-.44-.842-.651-1.283-.708-1.455-1.379-2.968-1.972-4.538-.038-.1-.077-.211-.115-.326-.574-1.474-1.091-2.987-1.57-4.557-.191-.651-.383-1.321-.574-1.972-.23-.785-.44-1.589-.651-2.413-.172-.728-.345-1.455-.5-2.183-.191-.842-.364-1.666-.517-2.527l-.4-2.3c-.134-.862-.287-1.742-.4-2.642-.115-.785-.191-1.608-.287-2.413-.1-.9-.191-1.819-.268-2.757-.077-1-.153-2.01-.211-3.044-.019-.479-.057-.977-.077-1.455-.077-1.608-.115-3.255-.115-4.921,0-1.9.038-3.791.115-5.706.019-.632.077-1.283.115-1.915.077-1.283.134-2.566.249-3.868.134-1.647.306-3.293.5-4.94.019-.211.038-.4.057-.613.23-1.857.5-3.734.785-5.61.1-.594.211-1.206.306-1.8q.316-1.924.689-3.849c.134-.747.306-1.474.46-2.221.23-1.13.46-2.259.728-3.37.5-2.183,1.034-4.347,1.608-6.529.077-.287.172-.574.249-.862.517-1.9,1.072-3.791,1.647-5.687.23-.728.46-1.455.708-2.2.46-1.474.957-2.93,1.455-4.4.268-.8.555-1.608.842-2.413.517-1.436,1.053-2.853,1.589-4.289.326-.862.651-1.723,1-2.566.268-.67.536-1.321.8-1.991.479-1.149.957-2.317,1.455-3.466.287-.651.574-1.321.862-1.972.536-1.206,1.091-2.413,1.647-3.619.268-.574.517-1.149.785-1.7.8-1.723,1.647-3.427,2.508-5.132.019-.038.038-.1.057-.134.881-1.742,1.8-3.466,2.719-5.189.287-.536.594-1.091.9-1.628.651-1.187,1.3-2.355,1.972-3.523.364-.632.728-1.245,1.091-1.876q.948-1.637,1.953-3.274c.383-.613.747-1.245,1.13-1.857.708-1.13,1.417-2.259,2.125-3.37l1.034-1.608c1.015-1.532,2.03-3.064,3.064-4.557a2.5,2.5,0,0,0,.191-.287c1.111-1.608,2.24-3.179,3.389-4.749.364-.479.728-.957,1.091-1.455.8-1.072,1.608-2.145,2.432-3.217.44-.555.881-1.13,1.321-1.685.766-.977,1.551-1.953,2.355-2.91l1.379-1.666c.823-1,1.666-1.972,2.527-2.949.421-.479.823-.957,1.245-1.436,1.149-1.3,2.317-2.566,3.485-3.83a3.438,3.438,0,0,1,.364-.383l.4-.4c1.417-1.513,2.853-2.968,4.308-4.423.517-.517,1.053-1.015,1.57-1.532q1.608-1.58,3.274-3.1l1.838-1.666q1.58-1.407,3.159-2.757l1.9-1.608c1.111-.919,2.24-1.819,3.351-2.7.632-.5,1.245-1,1.876-1.474.479-.364.938-.708,1.417-1.053q1.465-1.091,2.93-2.125c.517-.364,1.034-.728,1.532-1.072q1.522-1.034,3.044-2.011c.46-.306.919-.594,1.379-.9,1.474-.919,2.949-1.819,4.423-2.681,1.264-.728,2.508-1.4,3.734-2.049.651-.345,1.3-.689,1.934-1.015q1.35-.689,2.7-1.321c.632-.287,1.245-.594,1.857-.881.938-.421,1.876-.823,2.8-1.206.574-.23,1.13-.479,1.7-.708,1.053-.421,2.087-.785,3.14-1.168.421-.153.862-.326,1.3-.479.651-.211,1.283-.4,1.934-.594.9-.287,1.819-.574,2.719-.823.67-.191,1.321-.326,1.972-.5.862-.211,1.723-.44,2.566-.613.67-.134,1.34-.249,2.011-.364.823-.153,1.628-.306,2.451-.421.67-.1,1.321-.172,1.991-.249.785-.1,1.57-.191,2.355-.249.747-.057,1.455-.077,2.183-.115.632-.038,1.283-.077,1.915-.077.728-.019,1.436.019,2.164.038.613.019,1.245.019,1.838.057.708.038,1.417.115,2.125.191.594.057,1.187.1,1.762.172.708.1,1.4.23,2.106.345.555.1,1.13.172,1.666.287.708.153,1.4.345,2.087.517.517.134,1.053.249,1.551.4.708.211,1.417.46,2.106.708.46.153.938.306,1.4.479.766.287,1.513.632,2.259.957.364.172.747.306,1.13.479,1.091.517,2.183,1.091,3.236,1.7Z" transform="translate(0.01)" fill="#41bca0"/>
          <g id="Groupe_201" data-name="Groupe 201" transform="translate(80.975 47.039)">
            <path id="Tracé_314" data-name="Tracé 314" d="M135.721,37.421c51.756-29.89,93.862-5.878,94.015,53.594.172,59.473-41.646,131.928-93.422,161.817s-93.862,5.9-94.034-53.594C42.127,139.766,83.946,67.311,135.721,37.421Zm52.024,112.11-.153-52.465a76.351,76.351,0,0,1-5.744,9.076q-18.813,25.562-28.568,39.31c-2.164,3.1-3.944,5.591-5.3,7.391a71.357,71.357,0,0,1-5.419,6.3,28.992,28.992,0,0,1-6.319,5.266,15.937,15.937,0,0,1-6.434,2.106,19.489,19.489,0,0,1-5.457-.038c-1.359-.249-3.14-.67-5.323-1.264q-7.784-2.039-28.626-6.3a14.5,14.5,0,0,1-5.821-2.413l.153,52.465c0,2.91.9,4.883,2.719,5.9,1.8,1.034,3.964.823,6.491-.651l84.633-48.865a18.009,18.009,0,0,0,6.491-6.855,17.756,17.756,0,0,0,2.681-8.961m-3.006-60.277a28.844,28.844,0,0,0,2.8-11.6c0-2.91-.938-4.864-2.757-5.9-1.819-1.015-3.983-.8-6.472.632L93.673,121.25a17.034,17.034,0,0,0-6.8,7.372,21.924,21.924,0,0,0-2.355,9.957,9.65,9.65,0,0,0,3.179,7.2,13.68,13.68,0,0,0,6.74,3.753q1.953.46,11.833,2.6,9.851,2.154,15.088,3.351c.383.1,1.206.287,2.451.594,1.245.326,2.279.574,3.121.728a28.709,28.709,0,0,0,2.987.421,11.134,11.134,0,0,0,3.313-.134,8.805,8.805,0,0,0,2.872-1.072,15.4,15.4,0,0,0,2.987-2.317,37.262,37.262,0,0,0,3.293-3.7c1.168-1.455,2.164-2.757,2.987-3.887.823-1.111,1.857-2.547,3.083-4.308,1.245-1.742,2.068-2.891,2.432-3.427q5.285-7.3,26.864-37.013a62.791,62.791,0,0,0,6.989-12.12" transform="translate(-42.28 -24.566)" fill="#f4f4f4"/>
          </g>
        </g>
      </g>
      <g id="Groupe_208" data-name="Groupe 208" transform="translate(210.28 158.873)">
        <g id="Groupe_207" data-name="Groupe 207" transform="translate(0 0)">
          <path id="Tracé_315" data-name="Tracé 315" d="M109.06,164.813a4.53,4.53,0,0,1-1.053-.842,1.905,1.905,0,0,1-.191-.211,5.1,5.1,0,0,1-.4-.632,4.257,4.257,0,0,1-.46-.881c-.1-.249-.172-.517-.249-.785-.077-.306-.153-.632-.211-.957a10.249,10.249,0,0,1-.134-1.589l-9.44-5.5c0,.44.019.862.057,1.245.019.134.057.23.077.345.057.345.134.651.211.957a4.41,4.41,0,0,0,.115.536,2.56,2.56,0,0,1,.115.23,5.443,5.443,0,0,0,.46.881,4.839,4.839,0,0,0,.23.44c.057.077.115.115.172.191s.134.134.191.211a4.531,4.531,0,0,0,1.053.843h0Z" transform="translate(-96.685 -15.537)" fill="#329680"/>
          <path id="Tracé_316" data-name="Tracé 316" d="M199.388,94.95a76.16,76.16,0,0,1-5.725,9.076q-18.813,25.562-28.568,39.31c-.517.747-1.015,1.436-1.494,2.106-.153.23-.306.44-.46.651-.306.421-.613.862-.881,1.245-.172.249-.326.46-.5.689-.249.326-.479.67-.708.977-.172.23-.326.44-.479.651-.268.364-.555.747-.785,1.072a71.881,71.881,0,0,1-5.438,6.319q-.6.632-1.206,1.206-.488.488-.977.919c-.249.23-.5.46-.747.67-.326.268-.632.536-.957.785-.23.172-.46.364-.689.517-.632.46-1.264.881-1.877,1.245a13.462,13.462,0,0,1-1.283.651l-.517.23c-.306.134-.613.249-.938.364-.172.057-.364.115-.536.172-.345.1-.689.191-1.034.268-.153.038-.326.077-.479.115a13.741,13.741,0,0,1-1.551.23,20.106,20.106,0,0,1-5.438-.038,52.665,52.665,0,0,1-5.323-1.264q-7.784-2.039-28.645-6.28a17.482,17.482,0,0,1-2.527-.689,13.075,13.075,0,0,1-2.279-1.072h0l9.44,5.5a15.115,15.115,0,0,0,4.825,1.762q20.852,4.222,28.645,6.28c2.183.594,3.964,1.015,5.323,1.264a20.107,20.107,0,0,0,5.438.038q.775-.086,1.551-.23c.153-.038.326-.077.479-.115.345-.077.689-.172,1.034-.268.172-.057.364-.115.536-.172.326-.115.632-.23.938-.364.172-.077.345-.134.517-.23.1-.038.191-.077.268-.115.345-.172.689-.345,1.015-.536.632-.364,1.245-.785,1.9-1.245a1.29,1.29,0,0,1,.211-.134c.153-.115.306-.268.46-.383.326-.249.632-.5.957-.785.249-.211.5-.44.747-.651q.488-.431.977-.919c.134-.134.249-.23.383-.364.268-.268.536-.555.823-.842a75.308,75.308,0,0,0,5.438-6.319c.134-.172.249-.345.383-.517s.268-.383.4-.555c.153-.211.306-.4.46-.632.23-.306.479-.651.728-1,.153-.23.325-.44.479-.67.287-.4.594-.823.881-1.245.153-.211.306-.421.46-.651.479-.67.957-1.379,1.494-2.106q9.765-13.786,28.568-39.31a77.723,77.723,0,0,0,5.725-9.076Z" transform="translate(-96.292 -69.024)" fill="#329680"/>
          <g id="Groupe_204" data-name="Groupe 204" transform="translate(9.502 31.421)">
            <path id="Tracé_317" data-name="Tracé 317" d="M204.794,97.82l.153,52.465a20.271,20.271,0,0,1-9.172,15.873l-84.633,48.865c-2.528,1.455-4.71,1.685-6.51.651s-2.719-2.987-2.719-5.9l-.153-52.465a14.9,14.9,0,0,0,5.821,2.413q20.852,4.222,28.645,6.28c2.183.594,3.964,1.015,5.323,1.264a20.108,20.108,0,0,0,5.438.038,15.825,15.825,0,0,0,6.319-2.03,28.988,28.988,0,0,0,6.434-5.342,75.3,75.3,0,0,0,5.438-6.319q2.039-2.7,5.3-7.391,9.737-13.786,28.568-39.31A75.659,75.659,0,0,0,204.794,97.82Z" transform="translate(-101.76 -97.82)" fill="#41bca0"/>
          </g>
          <g id="Groupe_205" data-name="Groupe 205" transform="translate(0.062 85.418)">
            <path id="Tracé_318" data-name="Tracé 318" d="M106.423,183.98l-9.44-5.5L96.83,126.02l9.44,5.5Z" transform="translate(-96.83 -126.02)" fill="#329680"/>
          </g>
          <path id="Tracé_319" data-name="Tracé 319" d="M206.6,87.556l-9.44-5.5c-.019-.019-.038-.019-.057-.038a5.482,5.482,0,0,0-1.168-.46.451.451,0,0,0-.153-.038,4.964,4.964,0,0,0-1.206-.115h-.211a6.182,6.182,0,0,0-1.283.211l-.23.057a9.063,9.063,0,0,0-1.4.536c-.019,0-.019,0-.038.019-.249.134-.517.268-.785.421L105.993,131.52a17.076,17.076,0,0,0-1.685,1.111,1.727,1.727,0,0,0-.191.172c-.287.23-.555.479-.843.728-.249.23-.536.421-.766.67-.077.077-.134.172-.211.249-.268.287-.517.594-.766.881-.211.249-.44.46-.632.728-.1.134-.172.268-.268.4s-.191.287-.287.44a17.228,17.228,0,0,0-1.168,2.011,21.688,21.688,0,0,0-.938,2.2l-.23.689c-.172.536-.345,1.053-.479,1.589-.057.249-.134.5-.191.766-.115.555-.23,1.13-.306,1.7-.019.211-.057.4-.1.613a.815.815,0,0,1-.038.211,16.8,16.8,0,0,0-.1,2.2,10.421,10.421,0,0,0,.057,1.091c.038.268.077.536.134.8a.53.53,0,0,1,.019.172c.077.383.191.766.306,1.149.057.134.134.268.191.421l.23.517a8.3,8.3,0,0,0,.689,1.187c.1.134.153.268.249.383a1.07,1.07,0,0,1,.1.153,15.555,15.555,0,0,0,1.206,1.34,17.794,17.794,0,0,0,1.494,1.283,15.36,15.36,0,0,0,1.532,1.034l9.44,5.5A17.321,17.321,0,0,1,109.4,161.6a13.068,13.068,0,0,1-1.3-1.474c-.1-.134-.172-.268-.249-.383a12.016,12.016,0,0,1-.689-1.187l-.23-.517a8.618,8.618,0,0,1-.5-1.551.53.53,0,0,1-.019-.172,10.263,10.263,0,0,1-.191-1.9,19.833,19.833,0,0,1,.134-2.393c.019-.211.057-.4.1-.613.077-.574.172-1.13.306-1.7.057-.249.115-.517.191-.766.134-.536.306-1.072.479-1.589l.23-.689c.268-.747.594-1.474.938-2.2a17.232,17.232,0,0,1,1.168-2.011c.1-.153.191-.287.287-.44.268-.4.594-.766.881-1.13A11.477,11.477,0,0,1,111.7,140c.306-.326.651-.613.977-.919a10.451,10.451,0,0,1,.843-.728,16.2,16.2,0,0,1,1.876-1.283l84.633-48.865c.287-.153.555-.306.823-.44a9.06,9.06,0,0,1,1.4-.536l.23-.057a6.182,6.182,0,0,1,1.283-.211h.211a4.964,4.964,0,0,1,1.206.115.451.451,0,0,0,.153.038,4.367,4.367,0,0,1,1.168.46c.057-.038.077-.038.1-.019Z" transform="translate(-96.797 -81.41)" fill="#329680"/>
          <g id="Groupe_206" data-name="Groupe 206" transform="translate(9.444 5.478)">
            <path id="Tracé_320" data-name="Tracé 320" d="M195.554,85.533c2.489-1.436,4.653-1.647,6.472-.632,1.819,1.034,2.738,2.987,2.738,5.9a29.112,29.112,0,0,1-2.776,11.6A66.078,66.078,0,0,1,195,114.58q-21.57,29.727-26.845,37.013c-.383.536-1.187,1.666-2.432,3.427s-2.279,3.2-3.1,4.308-1.819,2.393-2.968,3.868a39.544,39.544,0,0,1-3.313,3.7,14.767,14.767,0,0,1-2.872,2.24,9.646,9.646,0,0,1-3.006,1.149,11.83,11.83,0,0,1-3.313.115c-1.168-.115-2.164-.268-3.006-.421-.823-.153-1.857-.4-3.121-.728-1.245-.306-2.068-.517-2.451-.594-3.485-.8-8.521-1.934-15.088-3.351-6.568-1.436-10.493-2.317-11.814-2.623a13.6,13.6,0,0,1-6.74-3.753,9.639,9.639,0,0,1-3.2-7.2,22.114,22.114,0,0,1,2.355-9.957A16.858,16.858,0,0,1,110.9,134.4Z" transform="translate(-101.73 -84.271)" fill="#41bca0"/>
          </g>
        </g>
      </g>
    </g>
    <g id="Groupe_219" data-name="Groupe 219" transform="translate(8 -50)">
      <g id="Groupe_109" data-name="Groupe 109" transform="translate(1879.559 3615.2)">
        <g id="Groupe_108" data-name="Groupe 108" transform="translate(-465.559 84.164)">
          <path id="Tracé_154" data-name="Tracé 154" d="M-412.9,190.054c.537-.086,1.065-.193,1.581-.329.089-.023.182-.041.273-.066a15.555,15.555,0,0,0,1.632-.56c.117-.048.231-.1.347-.149a14.614,14.614,0,0,0,1.562-.775l26.8-15.574a15.233,15.233,0,0,1-1.561.775c-.116.05-.232.1-.349.149a15.414,15.414,0,0,1-1.632.559c-.089.026-.182.045-.273.068q-.771.2-1.581.327c-.106.017-.21.038-.316.053a18.026,18.026,0,0,1-1.817.152c-.134,0-.269,0-.4.007-.607.008-1.222,0-1.85-.055-.041,0-.081,0-.121-.007-.658-.056-1.331-.154-2.01-.274q-.226-.04-.451-.084c-.68-.134-1.366-.293-2.063-.491-.091-.025-.185-.058-.278-.084q-.965-.285-1.952-.656c-.139-.051-.278-.1-.417-.154q-1.1-.429-2.227-.964c-.15-.071-.3-.147-.455-.222-.78-.382-1.564-.79-2.358-1.248s-1.6-.994-2.392-1.521c-.5-.332-1-.673-1.488-1.028q-.793-.575-1.577-1.189c-.483-.379-.964-.764-1.438-1.162s-.962-.83-1.437-1.256q-.851-.766-1.683-1.571-.67-.652-1.326-1.328-.816-.841-1.605-1.721c-.46-.511-.919-1.022-1.367-1.549q-.481-.568-.952-1.149c-.513-.632-1.015-1.278-1.509-1.931-.294-.387-.589-.774-.875-1.167-.524-.722-1.03-1.461-1.531-2.205-.228-.341-.465-.675-.689-1.018-.709-1.094-1.4-2.207-2.052-3.338-.036-.064-.069-.132-.107-.2q-.918-1.6-1.751-3.237c-.193-.379-.372-.762-.559-1.144-.387-.789-.765-1.582-1.123-2.381-.2-.441-.385-.886-.574-1.331q-.481-1.138-.921-2.283c-.172-.453-.344-.906-.508-1.359-.289-.808-.559-1.619-.815-2.429-.124-.39-.256-.78-.372-1.172-.334-1.128-.638-2.255-.9-3.381-.017-.069-.038-.139-.055-.208-.276-1.192-.5-2.381-.7-3.563-.06-.369-.1-.732-.154-1.1-.122-.86-.233-1.716-.311-2.566-.025-.279-.048-.559-.068-.837-.081-1.119-.137-2.234-.134-3.33s.064-2.113.149-3.123c.046-.547.124-1.066.193-1.592.074-.562.144-1.129.243-1.668.094-.5.217-.977.332-1.457.139-.57.269-1.147.436-1.686.046-.145.093-.291.141-.435a23.183,23.183,0,0,1,.909-2.32c.051-.112.107-.22.16-.331a19.506,19.506,0,0,1,1.17-2.118c.056-.086.121-.162.179-.246a17.173,17.173,0,0,1,1.22-1.612c.154-.179.314-.349.474-.521a15.7,15.7,0,0,1,1.171-1.131c.167-.145.329-.3.5-.433a15.152,15.152,0,0,1,1.8-1.252l0,0,0,0-26.8,15.575a14.8,14.8,0,0,0-1.8,1.25c-.174.139-.337.289-.5.435a15.99,15.99,0,0,0-1.169,1.129c-.16.172-.321.342-.476.522a17.269,17.269,0,0,0-1.217,1.607c-.06.088-.124.164-.182.251-.012.02-.026.035-.038.053a19.968,19.968,0,0,0-1.131,2.063c-.053.111-.109.218-.162.332a22.637,22.637,0,0,0-.908,2.32c-.048.144-.094.288-.141.435-.058.184-.124.36-.177.547-.1.36-.169.762-.26,1.136-.116.483-.238.957-.332,1.461-.1.536-.169,1.1-.243,1.662-.069.527-.147,1.048-.193,1.6-.012.139-.038.263-.05.4-.063.881-.1,1.787-.1,2.721,0,1.1.051,2.209.134,3.328q.03.419.068.838c.025.279.038.555.068.835.063.572.16,1.152.243,1.728.051.369.093.732.154,1.1.2,1.184.423,2.371.7,3.564.015.068.036.136.053.2.265,1.128.57,2.257.9,3.386.116.39.248.779.37,1.169.174.549.332,1.1.522,1.643.091.263.2.524.294.787.164.455.334.906.508,1.359q.439,1.146.921,2.283c.188.445.375.889.574,1.333.357.8.736,1.59,1.123,2.381.187.38.364.764.557,1.144q.836,1.632,1.749,3.229c.038.068.073.137.111.205l.012.021q.977,1.686,2.04,3.315c.223.346.46.678.689,1.018.5.746,1.005,1.483,1.531,2.205.286.4.58.78.875,1.169.494.653,1,1.3,1.509,1.931q.471.58.952,1.149c.21.246.408.506.622.749.241.276.5.526.744.8q.794.88,1.607,1.724.655.675,1.324,1.323c.554.539,1.116,1.061,1.685,1.574.256.23.5.484.76.711.221.192.453.357.676.546.474.4.954.782,1.437,1.161q.784.613,1.579,1.19c.493.354.987.694,1.486,1.027.278.185.547.4.827.572q.779.5,1.567.951c.794.458,1.577.865,2.356,1.247.152.074.3.152.456.223q1.126.533,2.225.962c.05.02.1.046.149.064.091.035.18.056.271.091.656.245,1.308.465,1.949.655.093.026.187.06.279.086.7.2,1.384.357,2.062.491.152.03.3.056.453.083.68.121,1.352.218,2.009.274.041,0,.081,0,.122.007.628.05,1.243.063,1.848.055.136,0,.271,0,.405-.007a17.639,17.639,0,0,0,1.817-.152C-413.109,190.09-413.005,190.07-412.9,190.054Z" transform="translate(468.805 -75.859)" fill="#329680"/>
          <g id="Groupe_104" data-name="Groupe 104" transform="translate(67.117 106.444)">
            <g id="Groupe_103" data-name="Groupe 103" clip-path="url(#clip-path-2)">
              <g id="Groupe_102" data-name="Groupe 102">
                <path id="Tracé_155" data-name="Tracé 155" d="M-424.5,164.123l26.8-15.574c-.154.094-.309.188-.466.279l-26.8,15.574c.157-.091.313-.184.466-.279" transform="translate(424.962 -148.549)" fill="#858585"/>
              </g>
            </g>
          </g>
          <g id="Groupe_105" data-name="Groupe 105" transform="translate(72.724 101.794)">
            <path id="Tracé_157" data-name="Tracé 157" d="M-421.571,161.311l26.8-15.574,66.434,76.2-26.8,15.574Z" transform="translate(421.571 -145.736)" fill="#41bca0"/>
          </g>
          <path id="Tracé_158" data-name="Tracé 158" d="M-389.4,147.18c.031-.213.066-.423.094-.641.1-.8.2-1.622.256-2.465,0-.045,0-.093.005-.137.074-1.068.119-2.166.122-3.295,0-1.3-.058-2.619-.149-3.946-.025-.362-.056-.724-.089-1.09-.035-.4-.053-.8-.1-1.205-.084-.785-.2-1.576-.309-2.367-.02-.136-.033-.271-.053-.408-.2-1.333-.458-2.673-.744-4.017-.066-.317-.137-.636-.21-.954-.306-1.359-.638-2.718-1.025-4.08l-26.8,15.574c.385,1.362.718,2.723,1.025,4.082.071.317.142.635.21.951.284,1.346.541,2.687.742,4.021.021.136.035.271.055.408.174,1.2.3,2.387.407,3.569.031.365.064.731.089,1.094.091,1.326.152,2.644.149,3.943,0,1.131-.048,2.227-.122,3.3q-.094,1.332-.261,2.6c-.028.22-.063.431-.094.648q-.149,1.017-.344,1.991c-.041.2-.079.41-.122.61-.174.8-.365,1.569-.584,2.316-.053.179-.114.347-.169.524-.184.59-.379,1.171-.59,1.731-.094.246-.193.486-.291.727-.2.483-.407.956-.625,1.414-.109.23-.218.46-.332.683-.256.5-.527.979-.808,1.448-.088.145-.169.3-.26.445-.4.627-.81,1.228-1.25,1.8h0l26.8-15.575q.617-.8,1.179-1.675c.025-.038.045-.081.069-.119.091-.144.174-.3.263-.45.279-.468.551-.946.805-1.445.114-.223.223-.451.332-.681q.327-.689.625-1.415c.1-.241.2-.479.291-.726.212-.562.407-1.141.59-1.733.055-.175.117-.344.169-.524.013-.045.03-.086.043-.131.2-.7.379-1.438.541-2.184.045-.2.081-.407.122-.61Q-389.545,148.2-389.4,147.18Z" transform="translate(494.295 -59.074)" fill="#329680"/>
          <path id="Tracé_159" data-name="Tracé 159" d="M-371.169,133.776c-.656-1.521-1.369-3.029-2.11-4.523-.139-.279-.273-.557-.415-.835q-1.091-2.153-2.295-4.254c-.061-.106-.112-.218-.175-.324-.122-.212-.258-.417-.382-.627q-.776-1.322-1.594-2.615c-.207-.329-.412-.658-.622-.984-.736-1.134-1.488-2.257-2.268-3.353-.061-.086-.124-.167-.185-.251-.726-1.015-1.475-2.007-2.235-2.986-.246-.314-.494-.623-.744-.934q-.95-1.188-1.933-2.331c-.159-.185-.308-.382-.468-.564-.1-.121-.213-.235-.317-.354-.246-.278-.5-.551-.746-.825q-.655-.724-1.323-1.428c-.266-.281-.534-.557-.805-.833q-.667-.684-1.351-1.346c-.266-.261-.532-.521-.8-.777-.5-.47-1-.926-1.506-1.379-.23-.207-.456-.417-.688-.618-.058-.051-.116-.107-.174-.157q-.98-.851-1.981-1.652c-.154-.124-.312-.241-.468-.364q-.873-.689-1.761-1.344c-.243-.179-.486-.352-.731-.526q-.811-.58-1.632-1.124c-.228-.15-.455-.306-.683-.453-.107-.069-.215-.145-.322-.213q-.992-.63-1.994-1.21c-1-.579-1.992-1.091-2.976-1.574-.193-.1-.388-.193-.58-.284q-1.421-.672-2.812-1.215c-.061-.025-.126-.058-.187-.081-.114-.045-.225-.071-.339-.114q-1.247-.466-2.467-.828c-.117-.035-.236-.076-.352-.109-.881-.25-1.747-.451-2.6-.62-.193-.038-.385-.071-.575-.106-.858-.152-1.708-.276-2.538-.346-.051,0-.1,0-.152-.008-.794-.063-1.572-.081-2.338-.071-.172,0-.342,0-.511.008a22.512,22.512,0,0,0-2.295.193c-.137.018-.269.045-.4.066q-1.019.161-2,.413c-.114.03-.232.053-.344.084a19.7,19.7,0,0,0-2.063.709c-.147.06-.294.124-.44.187a19.062,19.062,0,0,0-1.974.98l-26.8,15.574a18.859,18.859,0,0,1,1.972-.979c.147-.064.293-.129.441-.188a19.194,19.194,0,0,1,2.063-.708c.112-.031.23-.055.342-.084a20.15,20.15,0,0,1,2-.413c.134-.021.266-.048.4-.068a22.591,22.591,0,0,1,2.3-.192c.169-.007.339-.007.509-.008.769-.012,1.547.007,2.343.069.05,0,.1,0,.146.008.832.071,1.681.193,2.539.346.192.035.384.069.577.107.856.169,1.723.369,2.6.62.116.033.233.073.351.107.812.24,1.635.519,2.467.828.175.066.351.127.527.2q1.391.541,2.811,1.215c.193.093.388.19.582.286.984.481,1.974,1,2.974,1.574.779.45,1.551.927,2.318,1.422.228.149.455.3.681.453q.821.546,1.633,1.124.367.26.731.527.888.652,1.759,1.342c.157.122.314.24.47.365q1.089.875,2.154,1.807c.231.2.458.413.688.618.506.453,1.009.909,1.506,1.38.269.255.536.516.8.775.453.443.9.889,1.351,1.346q.4.414.805.835c.445.468.883.944,1.319,1.425.25.276.5.549.749.83.265.3.521.608.782.911q.985,1.148,1.938,2.338c.248.309.5.617.741.931q1.146,1.471,2.24,2.992c.06.083.122.162.18.243.78,1.1,1.534,2.222,2.27,3.358.21.322.413.651.62.977q.818,1.3,1.6,2.62c.187.316.375.632.557.951q1.2,2.1,2.293,4.251c.142.278.278.559.417.84.739,1.491,1.452,3,2.106,4.515l0,.007h0Z" transform="translate(470.092 -80.853)" fill="#41bca0"/>
          <path id="Tracé_160" data-name="Tracé 160" d="M-331.459,286.881c.537-.084,1.065-.193,1.579-.327.091-.023.184-.041.271-.066a15.455,15.455,0,0,0,1.633-.56c.116-.048.231-.1.346-.147a15.246,15.246,0,0,0,1.562-.775l26.8-15.574a14.885,14.885,0,0,1-1.561.774c-.116.05-.231.1-.347.149a15.541,15.541,0,0,1-1.632.559c-.089.026-.182.045-.273.068q-.771.2-1.577.327c-.106.017-.212.038-.319.053a18.015,18.015,0,0,1-1.815.152c-.132,0-.268,0-.4.007-.607.008-1.222,0-1.852-.056-.04,0-.078,0-.119,0-.656-.056-1.328-.154-2.007-.274-.152-.026-.3-.055-.455-.084-.678-.134-1.362-.293-2.06-.489-.093-.026-.187-.06-.279-.088-.641-.189-1.291-.408-1.948-.653-.141-.053-.279-.1-.42-.155q-1.1-.429-2.225-.962l-.456-.223c-.779-.382-1.562-.789-2.356-1.247s-1.6-1-2.4-1.524q-.746-.5-1.486-1.027-.8-.575-1.581-1.192c-.483-.377-.964-.762-1.438-1.162s-.962-.828-1.438-1.257q-.853-.766-1.685-1.574-.67-.65-1.324-1.323-.816-.843-1.609-1.726c-.46-.509-.919-1.02-1.366-1.547q-.481-.568-.951-1.147-.771-.95-1.513-1.934c-.293-.387-.587-.772-.873-1.166-.524-.722-1.03-1.46-1.529-2.2-.23-.342-.468-.678-.693-1.023-.709-1.094-1.4-2.205-2.05-3.336-.036-.061-.068-.126-.1-.187q-.92-1.6-1.757-3.247c-.193-.379-.372-.764-.559-1.144-.387-.79-.765-1.582-1.123-2.381-.2-.443-.385-.888-.574-1.333q-.481-1.136-.921-2.283c-.174-.451-.344-.9-.508-1.359-.291-.808-.559-1.62-.817-2.432-.122-.389-.255-.777-.37-1.166-.332-1.123-.635-2.245-.9-3.366-.016-.074-.041-.15-.059-.227-.276-1.192-.5-2.381-.7-3.563-.061-.367-.1-.731-.154-1.1-.122-.858-.233-1.716-.311-2.566-.025-.279-.048-.56-.068-.84-.083-1.119-.137-2.232-.134-3.328s.063-2.113.149-3.121c.046-.549.124-1.07.193-1.6.074-.562.142-1.128.243-1.665.094-.5.217-.979.332-1.46.139-.569.268-1.146.436-1.683.046-.145.093-.291.141-.435a22.778,22.778,0,0,1,.908-2.32c.051-.112.109-.222.162-.332a19.752,19.752,0,0,1,1.169-2.115c.056-.088.122-.164.179-.25a17.627,17.627,0,0,1,1.22-1.609c.154-.18.316-.35.476-.522a15.648,15.648,0,0,1,1.169-1.129c.167-.145.331-.3.5-.435a14.793,14.793,0,0,1,1.8-1.25l-26.8,15.574a14.952,14.952,0,0,0-1.8,1.252c-.172.137-.334.288-.5.433a15.387,15.387,0,0,0-1.171,1.131c-.16.172-.321.341-.474.521a17.179,17.179,0,0,0-1.222,1.612c-.056.086-.121.159-.177.246-.012.018-.026.035-.04.053a19.828,19.828,0,0,0-1.131,2.065c-.053.111-.109.217-.16.329a22.652,22.652,0,0,0-.908,2.321c-.048.144-.1.288-.141.433-.058.185-.124.36-.177.549-.1.36-.169.76-.26,1.136-.116.481-.238.956-.332,1.46-.1.537-.17,1.1-.245,1.665-.069.527-.145,1.045-.192,1.592-.012.139-.04.265-.05.4q-.1,1.322-.1,2.721c0,1.1.053,2.209.134,3.328.021.279.043.557.07.838s.038.554.068.835c.063.574.16,1.156.243,1.734.053.365.093.727.154,1.093.2,1.184.422,2.372.7,3.564.016.071.04.142.056.212.265,1.126.569,2.253.9,3.381.116.389.246.775.37,1.164.174.549.332,1.1.521,1.643.091.265.2.527.3.79.162.455.334.906.508,1.357q.439,1.148.921,2.286c.189.443.375.886.572,1.328.359.8.737,1.594,1.124,2.386.187.38.364.762.557,1.141q.846,1.654,1.771,3.272c.031.053.058.107.088.159l.013.023c.65,1.126,1.336,2.23,2.042,3.318.223.346.46.678.688,1.018.5.746,1.007,1.483,1.533,2.207.286.393.579.777.871,1.164q.744.985,1.516,1.938c.312.385.627.765.947,1.142.208.248.408.506.62.749.243.278.5.529.747.8.529.587,1.063,1.162,1.609,1.724.436.451.876.889,1.323,1.323.555.541,1.118,1.063,1.688,1.576.256.23.5.484.759.709.221.192.453.359.676.546.476.4.956.785,1.44,1.164.524.41,1.048.807,1.581,1.19.493.355.987.7,1.486,1.028.278.185.547.4.827.572q.779.5,1.569.951c.794.458,1.577.865,2.354,1.247.154.074.306.152.458.223q1.123.533,2.225.964c.05.018.1.045.149.063.089.035.177.056.268.091.656.245,1.308.465,1.951.655.093.026.187.06.279.086.7.2,1.382.357,2.058.489.154.03.3.058.456.084.678.121,1.351.218,2.007.274.04,0,.079,0,.119.007.63.05,1.245.063,1.852.055.134,0,.268,0,.4-.007a18.033,18.033,0,0,0,1.815-.152C-331.669,286.919-331.565,286.9-331.459,286.881Z" transform="translate(522.002 -12.606)" fill="#329680"/>
          <path id="Tracé_161" data-name="Tracé 161" d="M-284.2,268.277c.068-.314.131-.633.192-.954s.121-.676.175-1.02c.053-.327.1-.66.146-.994q.072-.528.129-1.066c.038-.342.071-.689.1-1.038.015-.175.038-.342.05-.517.01-.122.007-.255.015-.377.064-1,.109-2.01.112-3.06,0-.934-.028-1.878-.074-2.827-.013-.283-.033-.567-.051-.85q-.067-1.059-.174-2.124c-.017-.177-.023-.35-.043-.527-.01-.091-.028-.182-.038-.273q-.193-1.729-.486-3.475c-.038-.225-.081-.45-.121-.675-.21-1.182-.443-2.367-.717-3.556l-.02-.1c-.279-1.21-.6-2.422-.946-3.635-.068-.236-.134-.473-.2-.709q-.518-1.763-1.119-3.521c-.026-.081-.048-.162-.076-.241-.046-.134-.1-.266-.149-.4-.425-1.21-.873-2.42-1.356-3.624-.015-.036-.028-.074-.043-.111-.493-1.223-1.022-2.439-1.571-3.647-.1-.223-.2-.446-.3-.668q-.808-1.748-1.691-3.467c-.114-.22-.23-.438-.344-.658-.62-1.182-1.256-2.358-1.926-3.515l-.012-.021c-.013-.023-.028-.046-.043-.069-.67-1.157-1.369-2.295-2.086-3.422-.121-.19-.238-.38-.36-.569q-1.064-1.647-2.189-3.237c-.147-.208-.294-.413-.443-.618-.77-1.073-1.556-2.129-2.366-3.159-.084-.109-.172-.213-.258-.321q-1.178-1.485-2.407-2.9c-.079-.093-.154-.19-.233-.283-.05-.056-.1-.109-.149-.164-.377-.43-.761-.848-1.142-1.268-.22-.24-.437-.486-.658-.724-.481-.512-.969-1.013-1.458-1.511-.132-.134-.26-.271-.392-.4q-.935-.937-1.893-1.833c-.177-.164-.357-.321-.534-.483-.465-.427-.931-.851-1.4-1.263-.036-.031-.073-.066-.109-.1-.309-.268-.623-.521-.936-.782-.274-.23-.546-.465-.823-.689-.369-.3-.742-.585-1.114-.875-.265-.205-.526-.417-.792-.617-.4-.3-.8-.58-1.2-.868-.248-.177-.493-.36-.742-.534-.456-.317-.919-.617-1.38-.919-.2-.127-.39-.263-.587-.389l-.018-.012q-.984-.625-1.981-1.2c-1-.577-1.986-1.089-2.966-1.571-.2-.1-.39-.193-.585-.286-.944-.446-1.878-.853-2.8-1.212-.061-.023-.124-.056-.184-.079-.116-.045-.227-.073-.341-.116-.828-.307-1.648-.585-2.458-.825-.122-.036-.245-.078-.365-.112-.88-.25-1.746-.451-2.6-.62-.192-.036-.384-.071-.574-.106-.86-.152-1.709-.276-2.541-.346-.046,0-.089,0-.136-.008-.8-.063-1.581-.079-2.353-.069-.17,0-.341,0-.509.008a23.028,23.028,0,0,0-2.3.193c-.136.02-.268.046-.4.068a19.992,19.992,0,0,0-1.994.413c-.116.03-.233.053-.347.086a19.136,19.136,0,0,0-2.06.708c-.15.06-.3.126-.446.188a19.446,19.446,0,0,0-1.967.977l0,0-26.8,15.575a18.88,18.88,0,0,1,1.972-.98c.147-.063.294-.127.443-.188a19.4,19.4,0,0,1,2.062-.708c.114-.031.231-.056.346-.086q.977-.253,2-.413c.134-.021.265-.048.4-.066a22.125,22.125,0,0,1,2.3-.193c.169-.007.341-.007.511-.008.77-.012,1.552,0,2.353.069.045,0,.089,0,.134.007.833.071,1.683.2,2.544.347.188.033.379.068.57.106.856.169,1.723.369,2.6.618.121.035.243.078.364.112.81.24,1.632.517,2.46.827.175.066.349.126.522.193q1.386.541,2.8,1.214c.2.091.39.19.585.286.98.481,1.967.992,2.966,1.569q1,.58,2,1.214c.207.131.41.273.617.408.451.294.9.587,1.349.9.26.18.514.372.772.557.39.279.782.554,1.167.845.274.2.542.423.815.633.365.284.731.564,1.093.858.283.228.56.468.84.7.344.288.688.572,1.028.868.478.417.951.846,1.422,1.28.172.157.346.308.514.466q.96.9,1.895,1.832c.139.139.274.286.412.425.483.491.966.985,1.438,1.493.222.236.437.481.656.721.384.42.769.841,1.147,1.271.126.145.25.3.377.441q1.233,1.426,2.415,2.915c.083.1.169.207.25.311.81,1.032,1.6,2.09,2.367,3.161q.223.31.445.622,1.123,1.592,2.189,3.235c.121.188.24.379.36.569.718,1.128,1.419,2.268,2.09,3.427l.05.084c.671,1.161,1.309,2.338,1.929,3.523.112.215.228.432.339.648q.885,1.721,1.7,3.474c.1.22.2.441.3.663.549,1.21,1.08,2.427,1.572,3.65.015.035.026.069.04.1.484,1.205.931,2.417,1.357,3.631.076.213.154.428.227.641q.6,1.761,1.119,3.526c.068.233.134.468.2.7.344,1.214.666,2.427.947,3.637l.02.094c.274,1.19.508,2.377.717,3.559.04.225.083.45.119.673q.293,1.746.488,3.477c.03.266.055.532.081.8q.107,1.069.174,2.126c.018.283.038.565.051.846.046.949.076,1.895.074,2.83,0,1.05-.048,2.063-.114,3.059-.018.3-.038.6-.063.894q-.044.526-.1,1.038c-.04.36-.081.716-.129,1.068-.045.334-.093.663-.146.99q-.082.518-.177,1.027-.089.476-.19.946c-.069.331-.146.656-.223.979-.074.3-.152.607-.233.9s-.165.58-.251.866q-.169.558-.357,1.1c-.089.26-.18.519-.274.772-.134.359-.276.706-.422,1.051-.1.238-.2.479-.3.711-.16.35-.329.689-.5,1.027-.106.208-.208.422-.317.625-.2.367-.412.718-.625,1.066-.094.154-.18.312-.278.463a21.63,21.63,0,0,1-1.278,1.774c-.107.136-.218.269-.329.4-.435.524-.886,1.027-1.361,1.495-.033.031-.063.066-.094.1a19.475,19.475,0,0,1-1.581,1.362c-.132.1-.266.2-.4.3A18.63,18.63,0,0,1-321.553,300l26.8-15.575a18.956,18.956,0,0,0,1.724-1.151c.136-.1.269-.2.4-.306a19.38,19.38,0,0,0,1.579-1.361c.033-.033.064-.069.1-.1.474-.466.923-.967,1.357-1.49.111-.134.221-.266.331-.4.446-.564.876-1.151,1.278-1.776.012-.015.023-.03.035-.046.083-.129.155-.271.236-.4.215-.352.43-.708.63-1.078.111-.2.212-.415.317-.622.172-.337.341-.676.5-1.028.106-.233.2-.473.306-.713.144-.344.286-.691.42-1.048.1-.255.187-.516.276-.777q.186-.541.355-1.1c.045-.145.1-.283.139-.431s.073-.291.112-.435c.083-.3.159-.6.233-.908S-284.269,268.6-284.2,268.277Z" transform="translate(523.3 -17.601)" fill="#41bca0"/>
          <g id="Groupe_106" data-name="Groupe 106" transform="translate(72.123 45.631)">
            <path id="Tracé_162" data-name="Tracé 162" d="M-421.934,134.633l26.8-15.574,65.6-7.293-26.8,15.574Z" transform="translate(421.934 -111.765)" fill="#41bca0"/>
          </g>
          <path id="Tracé_163" data-name="Tracé 163" d="M-331.171,184.985c.537-.084,1.065-.193,1.579-.327.091-.023.182-.041.271-.066a15.293,15.293,0,0,0,1.632-.56c.117-.048.231-.1.347-.147a15.061,15.061,0,0,0,1.561-.775l26.8-15.574a14.732,14.732,0,0,1-1.561.774c-.116.05-.232.1-.349.149a15.772,15.772,0,0,1-1.63.56c-.089.025-.182.043-.273.066q-.771.2-1.577.327c-.106.017-.212.038-.319.053a18.033,18.033,0,0,1-1.815.152c-.134,0-.268,0-.4.007-.607.008-1.222,0-1.852-.056-.04,0-.079,0-.119,0-.656-.056-1.328-.154-2.007-.274-.152-.026-.3-.055-.456-.084-.676-.134-1.362-.293-2.058-.489-.093-.026-.187-.06-.279-.088-.643-.19-1.293-.41-1.951-.655-.139-.051-.276-.1-.417-.154q-1.1-.429-2.225-.962c-.152-.073-.3-.149-.456-.223-.779-.382-1.562-.789-2.356-1.247s-1.6-1-2.4-1.524q-.749-.5-1.486-1.027-.8-.575-1.581-1.192c-.483-.377-.964-.762-1.438-1.162s-.962-.828-1.438-1.256q-.853-.766-1.686-1.574-.667-.65-1.321-1.323-.818-.843-1.61-1.726c-.461-.511-.919-1.022-1.367-1.549q-.479-.565-.947-1.144c-.516-.633-1.018-1.28-1.514-1.936-.293-.387-.587-.772-.873-1.166-.524-.722-1.03-1.46-1.529-2.2-.23-.342-.468-.678-.693-1.023-.709-1.094-1.4-2.205-2.05-3.336-.038-.064-.069-.131-.106-.193q-.918-1.6-1.754-3.239c-.2-.382-.374-.767-.562-1.152-.385-.787-.762-1.576-1.118-2.372-.2-.443-.387-.889-.575-1.336q-.481-1.136-.921-2.28c-.174-.453-.346-.906-.508-1.361-.291-.808-.559-1.617-.815-2.427-.124-.392-.256-.782-.372-1.172-.332-1.123-.635-2.245-.9-3.366-.018-.076-.041-.15-.059-.225-.276-1.192-.5-2.381-.7-3.563-.061-.367-.1-.731-.154-1.1-.122-.86-.233-1.716-.311-2.566-.025-.281-.048-.56-.068-.84-.083-1.119-.137-2.232-.134-3.328s.063-2.113.149-3.123c.046-.547.122-1.068.193-1.594.074-.562.142-1.128.243-1.665.094-.5.217-.979.332-1.46.137-.569.268-1.146.436-1.683.045-.147.093-.291.141-.435a22.788,22.788,0,0,1,.908-2.32c.051-.114.107-.222.162-.332A19.348,19.348,0,0,1-348.333,97c.056-.086.122-.162.179-.248a17.114,17.114,0,0,1,1.22-1.609c.154-.18.316-.35.476-.522a15.365,15.365,0,0,1,1.169-1.131c.167-.146.331-.3.5-.433a14.992,14.992,0,0,1,1.8-1.252l-26.8,15.575a14.957,14.957,0,0,0-1.8,1.252c-.172.137-.336.288-.5.433a15.679,15.679,0,0,0-1.169,1.131c-.16.172-.321.341-.474.521a17.177,17.177,0,0,0-1.222,1.612c-.058.084-.122.159-.177.245a.641.641,0,0,1-.04.055A19.535,19.535,0,0,0-376.3,114.7c-.053.109-.109.217-.16.329a22.623,22.623,0,0,0-.908,2.32c-.048.144-.1.289-.142.436-.058.184-.122.359-.177.546-.1.36-.167.762-.258,1.136-.116.481-.238.957-.332,1.461-.1.537-.17,1.1-.245,1.665-.069.526-.146,1.045-.192,1.592-.012.139-.04.263-.05.4q-.1,1.322-.1,2.721c0,1.1.053,2.209.134,3.328.022.279.043.557.07.838s.036.554.068.835c.061.574.16,1.152.243,1.731.051.365.093.729.154,1.1.193,1.184.422,2.371.7,3.563.016.069.038.141.055.21q.4,1.686.9,3.379c.116.392.246.78.37,1.171.174.547.332,1.094.521,1.64.091.265.2.527.3.792.162.453.334.9.506,1.356q.441,1.146.923,2.283c.188.446.375.891.574,1.334.357.8.736,1.59,1.123,2.381.187.38.364.764.557,1.142q.838,1.639,1.756,3.242c.036.063.068.129.1.192l.012.02c.65,1.124,1.334,2.229,2.04,3.318.225.344.46.678.689,1.017.5.746,1.007,1.485,1.533,2.209.286.393.579.777.871,1.162q.744.985,1.514,1.939c.314.385.628.765.949,1.142.208.248.408.506.62.749.243.279.5.531.749.8q.791.878,1.605,1.723.655.675,1.324,1.323c.555.541,1.118,1.063,1.686,1.576.256.23.5.484.76.709.222.192.453.359.678.547.474.4.954.782,1.437,1.161.524.41,1.05.808,1.582,1.192.493.355.987.7,1.486,1.028.278.185.547.4.827.572q.779.5,1.569.951c.792.458,1.576.865,2.353,1.245.154.076.307.154.461.227.749.354,1.49.676,2.222.961.05.02.1.046.15.064.091.035.179.056.269.091.656.245,1.306.465,1.948.655.094.026.189.06.281.086.7.2,1.382.357,2.058.489q.228.045.456.084c.678.121,1.349.218,2.007.274.04,0,.079,0,.119.007.628.05,1.243.063,1.85.055.134,0,.269,0,.4-.007a18.033,18.033,0,0,0,1.815-.152C-331.381,185.023-331.276,185-331.171,184.985Z" transform="translate(522.191 -79.171)" fill="#329680"/>
          <path id="Tracé_164" data-name="Tracé 164" d="M-283.9,166.378q.1-.471.19-.952.094-.5.177-1.02c.053-.327.1-.66.146-.994q.072-.528.129-1.066c.038-.344.071-.689.1-1.04.015-.174.036-.341.05-.517.01-.121.007-.253.015-.375.064-1,.109-2.01.112-3.06,0-.934-.028-1.88-.074-2.829-.013-.281-.033-.564-.051-.848q-.067-1.059-.174-2.126c-.018-.177-.023-.349-.043-.526-.01-.089-.028-.18-.038-.271q-.193-1.728-.488-3.477c-.036-.223-.079-.448-.119-.673-.21-1.18-.443-2.366-.716-3.555l-.021-.1c-.279-1.209-.6-2.42-.946-3.632-.068-.236-.132-.473-.2-.709q-.518-1.763-1.118-3.523c-.028-.079-.05-.159-.076-.238-.046-.134-.1-.265-.149-.4-.425-1.209-.871-2.415-1.352-3.616-.017-.041-.031-.081-.046-.122-.493-1.222-1.022-2.437-1.571-3.645-.1-.222-.2-.443-.3-.665q-.811-1.748-1.695-3.47c-.111-.217-.227-.433-.341-.65-.62-1.185-1.258-2.363-1.928-3.521l-.008-.017-.035-.056c-.673-1.162-1.376-2.3-2.1-3.437-.121-.188-.238-.379-.359-.567q-1.061-1.642-2.189-3.234c-.147-.21-.3-.417-.446-.625-.77-1.071-1.556-2.128-2.364-3.158-.083-.1-.167-.207-.25-.311q-1.18-1.485-2.412-2.91c-.079-.091-.154-.19-.235-.283-.05-.056-.1-.109-.15-.167-.374-.425-.754-.84-1.133-1.256-.225-.245-.445-.494-.671-.737-.465-.5-.936-.98-1.41-1.463-.147-.149-.291-.3-.438-.451q-.935-.937-1.893-1.832c-.172-.16-.346-.311-.519-.47-.47-.43-.939-.86-1.415-1.275-.038-.031-.073-.066-.109-.1-.311-.269-.627-.526-.941-.787-.274-.23-.546-.465-.822-.689-.365-.3-.736-.579-1.1-.865-.268-.208-.534-.423-.8-.627-.4-.3-.81-.589-1.215-.88-.241-.172-.479-.352-.722-.519-.461-.321-.927-.623-1.392-.927-.193-.126-.384-.26-.579-.384l-.017-.012q-.985-.625-1.982-1.2c-1-.579-1.994-1.093-2.977-1.576-.193-.1-.389-.193-.582-.284q-1.421-.675-2.812-1.217c-.061-.025-.126-.058-.188-.081-.116-.045-.227-.073-.341-.116-.832-.309-1.653-.587-2.465-.827-.116-.035-.235-.076-.352-.109-.881-.25-1.748-.451-2.6-.62-.192-.038-.384-.073-.575-.106-.858-.152-1.708-.276-2.539-.347-.048,0-.1,0-.145-.007-.8-.064-1.576-.081-2.344-.071-.169,0-.339,0-.506.008a22.582,22.582,0,0,0-2.3.193c-.136.018-.266.045-.4.066a20.024,20.024,0,0,0-2,.413c-.114.03-.231.053-.346.084a19.135,19.135,0,0,0-2.06.708c-.149.06-.3.124-.443.188a18.666,18.666,0,0,0-1.971.979l-26.8,15.574a18.732,18.732,0,0,1,1.974-.979c.146-.064.291-.127.44-.187a19.571,19.571,0,0,1,2.063-.709c.111-.031.228-.055.341-.084q.977-.253,2-.413c.134-.021.266-.048.4-.066a22.585,22.585,0,0,1,2.3-.193c.169,0,.339,0,.508-.007.769-.012,1.547.007,2.344.069.048,0,.1,0,.146.008.832.071,1.681.193,2.539.346.192.035.382.069.575.107.856.169,1.724.369,2.606.62.114.031.232.073.347.107q1.22.36,2.468.828c.177.066.352.127.529.2q1.391.543,2.812,1.217c.193.091.387.188.58.284.984.483,1.976,1,2.977,1.576q1.007.58,2,1.213c.2.126.392.261.589.39.461.3.924.6,1.38.918.246.172.488.354.732.529.4.288.807.574,1.207.873.271.205.539.42.808.63.367.284.734.565,1.1.86.281.228.557.466.837.7.346.289.691.575,1.033.873.474.413.942.84,1.41,1.268.175.16.354.316.527.478q.957.9,1.893,1.83c.147.149.291.3.438.453.473.481.946.965,1.41,1.463.225.241.445.489.668.734.38.417.762.833,1.136,1.26.131.147.256.3.385.45q1.23,1.423,2.41,2.908c.083.106.169.207.251.312.808,1.03,1.594,2.086,2.364,3.158.149.207.3.415.446.623q1.123,1.592,2.186,3.232c.124.19.243.382.364.574.719,1.129,1.422,2.273,2.095,3.434l.043.073c.67,1.159,1.308,2.336,1.928,3.52q.171.325.341.65.883,1.721,1.695,3.47c.1.222.2.443.3.665.549,1.21,1.08,2.425,1.572,3.649.015.036.028.074.043.112.481,1.2.927,2.407,1.352,3.617.076.215.154.43.228.646q.6,1.758,1.118,3.521c.069.235.134.47.2.7.344,1.213.666,2.427.947,3.637l.02.1c.274,1.189.508,2.372.717,3.555.04.225.083.451.119.676q.293,1.743.488,3.472c.03.268.055.536.081.8q.107,1.069.174,2.126c.018.281.038.564.051.843.046.951.076,1.9.074,2.83,0,1.05-.05,2.065-.114,3.06-.018.3-.038.6-.063.894-.03.35-.065.7-.1,1.038-.04.36-.081.716-.129,1.068q-.067.5-.146.99-.082.518-.177,1.027c-.06.317-.122.633-.19.944-.069.332-.146.658-.225.98-.074.3-.15.607-.231.9s-.165.58-.251.866c-.114.372-.232.739-.355,1.1-.091.261-.182.521-.278.777-.134.355-.274.7-.42,1.046-.1.24-.2.479-.306.713-.159.352-.329.689-.5,1.027-.106.208-.208.422-.317.625-.2.369-.413.721-.628,1.073-.093.15-.179.307-.273.455-.4.623-.832,1.21-1.278,1.774-.109.137-.22.271-.332.405-.435.522-.885,1.023-1.357,1.49-.033.033-.065.069-.1.1a19.173,19.173,0,0,1-1.579,1.362c-.132.1-.266.2-.4.3a18.664,18.664,0,0,1-1.726,1.152l26.8-15.575a18.95,18.95,0,0,0,1.724-1.151c.136-.1.269-.2.4-.306a19.4,19.4,0,0,0,1.579-1.362c.031-.03.061-.066.094-.1.474-.468.926-.97,1.362-1.495.109-.132.22-.265.329-.4.446-.564.876-1.151,1.278-1.774.01-.017.023-.031.035-.048.084-.132.157-.276.24-.41.213-.35.427-.7.625-1.07.112-.205.215-.418.321-.628.17-.336.339-.673.5-1.023.107-.233.207-.473.306-.713.146-.344.288-.693.422-1.05.1-.255.187-.512.276-.774q.186-.541.355-1.1c.045-.145.1-.283.139-.43s.073-.291.112-.433q.122-.449.233-.911Q-284.008,166.872-283.9,166.378Z" transform="translate(523.483 -84.164)" fill="#41bca0"/>
          <g id="Groupe_107" data-name="Groupe 107" transform="translate(0 15.56)">
            <path id="Tracé_165" data-name="Tracé 165" d="M-291.5,267.4c21.659,12.505,39.23,42.938,39.159,67.84s-17.756,34.966-39.415,22.461-39.23-42.938-39.161-67.826a41.454,41.454,0,0,1,1.47-11.227l-68.531-78.614c-7.192,4.462-17.277,4.021-28.423-2.415-21.661-12.505-39.23-42.937-39.161-67.826s17.756-34.966,39.415-22.461c13.669,7.891,25.7,22.917,32.708,39.184l65.6-7.294a65.681,65.681,0,0,1-2.6-17.806c.071-24.9,17.746-34.975,39.415-22.463s39.23,42.927,39.161,67.828-17.756,34.966-39.415,22.461c-13.744-7.936-25.827-23.076-32.812-39.44l-65.571,7.288a66.091,66.091,0,0,1,2.677,18.068c-.025,8.623-2.169,15.476-5.853,20.228l66.434,76.2C-319.783,260.96-306.613,258.673-291.5,267.4Zm.45-159.023c-17.141-9.9-31.131-1.926-31.187,17.772s13.843,43.758,30.985,53.655,31.121,1.919,31.177-17.766-13.833-43.765-30.975-53.661m-.68,239.887c17.143,9.9,31.121,1.919,31.177-17.766s-13.833-43.765-30.975-53.661-31.131-1.926-31.187,17.772,13.843,43.758,30.985,53.655M-426.372,188.184c17.141,9.9,31.131,1.924,31.187-17.761s-13.843-43.77-30.985-53.668-31.121-1.919-31.175,17.779,13.841,43.758,30.974,53.65" transform="translate(465.559 -93.576)" fill="#f5f5f5"/>
          </g>
        </g>
      </g>
      <g id="Groupe_218" data-name="Groupe 218">
        <g id="Groupe_215" data-name="Groupe 215" transform="translate(1368 3761.615)">
          <g id="Groupe_214" data-name="Groupe 214" transform="translate(0)">
            <g id="Groupe_213" data-name="Groupe 213" transform="translate(0 4.672)">
              <path id="Tracé_321" data-name="Tracé 321" d="M30.789,7.054C47.7,16.817,61.431,40.586,61.382,60.029S47.506,87.357,30.593,77.578C13.664,67.816-.049,44.047,0,24.6S13.876-2.708,30.789,7.054Z" transform="translate(0 -2.862)" fill="#41bca0"/>
            </g>
            <path id="Tracé_322" data-name="Tracé 322" d="M65.288,64.026c.033-.18.065-.392.1-.571q.22-1.151.343-2.351c.033-.245.049-.49.082-.735.016-.163.033-.31.049-.49.065-.882.1-1.779.1-2.71,0-1.224-.049-2.465-.147-3.706-.033-.424-.114-.849-.147-1.273-.1-.833-.18-1.665-.31-2.514v-.033c-.18-1.11-.408-2.237-.653-3.363-.049-.245-.114-.473-.163-.718-.261-1.11-.555-2.22-.9-3.347-.049-.18-.114-.359-.18-.539-.31-1.028-.669-2.057-1.028-3.085-.065-.18-.131-.359-.2-.522-.408-1.11-.865-2.2-1.339-3.314-.1-.245-.212-.473-.31-.718-.49-1.11-1.012-2.22-1.567-3.314-.033-.049-.049-.1-.082-.147-.539-1.061-1.11-2.106-1.7-3.134-.131-.212-.245-.441-.375-.653-.6-1.045-1.241-2.057-1.894-3.069-.131-.2-.245-.375-.375-.555-.62-.947-1.257-1.861-1.926-2.775-.082-.114-.163-.245-.261-.359-.718-.963-1.453-1.91-2.22-2.824-.163-.2-.326-.408-.506-.6-.735-.865-1.469-1.73-2.237-2.547a.71.71,0,0,1-.1-.114,2.241,2.241,0,0,0-.326-.359c-.718-.751-1.437-1.486-2.188-2.188-.245-.229-.473-.457-.718-.669-.767-.7-1.535-1.388-2.334-2.041l-.31-.261C40.735,7.836,40,7.248,39.25,6.71c-.163-.114-.326-.229-.506-.343l-.588-.392C37.226,5.338,36.3,4.734,35.348,4.2c-.686-.392-1.355-.751-2.024-1.077-.18-.1-.359-.18-.539-.261-.571-.278-1.126-.522-1.681-.767-.082-.033-.163-.082-.245-.114-.016-.016-.049-.016-.065-.033-.735-.294-1.469-.555-2.188-.784-.147-.049-.31-.1-.457-.147Q27.072.694,26.043.473L25.766.424q-.979-.2-1.91-.294A2,2,0,0,0,23.545.1C22.876.033,22.239,0,21.586,0h-.408a18.136,18.136,0,0,0-1.894.131c-.049,0-.1.016-.147.016A14.474,14.474,0,0,0,17.424.49c-.114.033-.212.049-.326.082-.571.163-1.126.343-1.665.555a2.722,2.722,0,0,1-.326.131,13.207,13.207,0,0,0-1.6.784L5.49,6.742a13.207,13.207,0,0,1,1.6-.784,2.722,2.722,0,0,1,.326-.131,15.152,15.152,0,0,1,1.649-.571c.1-.033.212-.049.326-.082a14.473,14.473,0,0,1,1.714-.343c.049,0,.1-.016.147-.016a17.832,17.832,0,0,1,1.894-.131h.408c.637,0,1.29.033,1.943.082a2,2,0,0,0,.31.033,19.3,19.3,0,0,1,1.91.294l.278.049c.686.147,1.4.326,2.106.539.147.049.31.1.457.147.718.229,1.453.49,2.188.784a1.946,1.946,0,0,0,.326.131c.555.229,1.126.49,1.681.767.18.082.359.18.539.261.669.343,1.339.686,2.024,1.077.947.539,1.877,1.143,2.808,1.779l.588.392c.914.653,1.828,1.322,2.726,2.057a2.509,2.509,0,0,1,.31.278c.784.653,1.567,1.322,2.318,2.041l.718.669c.735.7,1.469,1.437,2.188,2.188l.343.343c.8.865,1.584,1.747,2.351,2.661.163.2.343.408.506.6.751.914,1.5,1.861,2.2,2.824.082.114.163.245.261.359.669.914,1.306,1.828,1.926,2.775.131.18.245.375.375.555.653,1.012,1.29,2.024,1.894,3.069.131.212.245.441.375.653.588,1.028,1.159,2.073,1.7,3.134.033.049.049.1.082.147.555,1.094,1.061,2.2,1.567,3.314.1.245.212.473.31.718.473,1.094.914,2.2,1.339,3.314.065.18.131.343.18.522.375,1.028.718,2.057,1.045,3.085.049.18.114.359.18.539.326,1.11.62,2.22.9,3.33.065.245.114.473.163.718.261,1.126.49,2.269.669,3.379.131.849.212,1.681.31,2.514.049.424.114.849.147,1.273.1,1.257.147,2.481.147,3.706,0,1.11-.065,2.171-.147,3.2-.016.245-.049.49-.082.735-.082.816-.2,1.6-.343,2.367-.033.2-.065.392-.1.571a24.823,24.823,0,0,1-.669,2.579l-.2.539a20.482,20.482,0,0,1-.833,2.122c-.033.065-.065.147-.1.212a19.356,19.356,0,0,1-1.143,2.073c-.065.114-.131.212-.2.326a15.807,15.807,0,0,1-1.322,1.747c-.082.1-.163.2-.261.294a16.417,16.417,0,0,1-1.535,1.486,2.792,2.792,0,0,1-.229.18,13.8,13.8,0,0,1-1.812,1.257l8.048-4.685a15.567,15.567,0,0,0,1.812-1.257c.082-.065.147-.114.229-.18A16.416,16.416,0,0,0,60.6,73.87c.082-.1.18-.2.261-.294a15.806,15.806,0,0,0,1.322-1.747c.065-.1.131-.212.2-.326a19.356,19.356,0,0,0,1.143-2.073c.033-.065.065-.147.1-.229.163-.359.326-.7.473-1.077.131-.326.245-.686.359-1.028.065-.18.131-.359.2-.555C64.88,65.773,65.092,64.924,65.288,64.026Z" transform="translate(3.473)" fill="#329680"/>
          </g>
        </g>
        <g id="Groupe_216" data-name="Groupe 216" transform="translate(1504 3753.615)">
          <g id="Groupe_214-2" data-name="Groupe 214" transform="translate(0)">
            <g id="Groupe_213-2" data-name="Groupe 213" transform="translate(0 4.672)">
              <path id="Tracé_321-2" data-name="Tracé 321" d="M30.789,7.054C47.7,16.817,61.431,40.586,61.382,60.029S47.506,87.357,30.593,77.578C13.664,67.816-.049,44.047,0,24.6S13.876-2.708,30.789,7.054Z" transform="translate(0 -2.862)" fill="#41bca0"/>
            </g>
            <path id="Tracé_322-2" data-name="Tracé 322" d="M65.288,64.026c.033-.18.065-.392.1-.571q.22-1.151.343-2.351c.033-.245.049-.49.082-.735.016-.163.033-.31.049-.49.065-.882.1-1.779.1-2.71,0-1.224-.049-2.465-.147-3.706-.033-.424-.114-.849-.147-1.273-.1-.833-.18-1.665-.31-2.514v-.033c-.18-1.11-.408-2.237-.653-3.363-.049-.245-.114-.473-.163-.718-.261-1.11-.555-2.22-.9-3.347-.049-.18-.114-.359-.18-.539-.31-1.028-.669-2.057-1.028-3.085-.065-.18-.131-.359-.2-.522-.408-1.11-.865-2.2-1.339-3.314-.1-.245-.212-.473-.31-.718-.49-1.11-1.012-2.22-1.567-3.314-.033-.049-.049-.1-.082-.147-.539-1.061-1.11-2.106-1.7-3.134-.131-.212-.245-.441-.375-.653-.6-1.045-1.241-2.057-1.894-3.069-.131-.2-.245-.375-.375-.555-.62-.947-1.257-1.861-1.926-2.775-.082-.114-.163-.245-.261-.359-.718-.963-1.453-1.91-2.22-2.824-.163-.2-.326-.408-.506-.6-.735-.865-1.469-1.73-2.237-2.547a.71.71,0,0,1-.1-.114,2.241,2.241,0,0,0-.326-.359c-.718-.751-1.437-1.486-2.188-2.188-.245-.229-.473-.457-.718-.669-.767-.7-1.535-1.388-2.334-2.041l-.31-.261C40.735,7.836,40,7.248,39.25,6.71c-.163-.114-.326-.229-.506-.343l-.588-.392C37.226,5.338,36.3,4.734,35.348,4.2c-.686-.392-1.355-.751-2.024-1.077-.18-.1-.359-.18-.539-.261-.571-.278-1.126-.522-1.681-.767-.082-.033-.163-.082-.245-.114-.016-.016-.049-.016-.065-.033-.735-.294-1.469-.555-2.188-.784-.147-.049-.31-.1-.457-.147Q27.072.694,26.043.473L25.766.424q-.979-.2-1.91-.294A2,2,0,0,0,23.545.1C22.876.033,22.239,0,21.586,0h-.408a18.136,18.136,0,0,0-1.894.131c-.049,0-.1.016-.147.016A14.474,14.474,0,0,0,17.424.49c-.114.033-.212.049-.326.082-.571.163-1.126.343-1.665.555a2.722,2.722,0,0,1-.326.131,13.207,13.207,0,0,0-1.6.784L5.49,6.742a13.207,13.207,0,0,1,1.6-.784,2.722,2.722,0,0,1,.326-.131,15.152,15.152,0,0,1,1.649-.571c.1-.033.212-.049.326-.082a14.473,14.473,0,0,1,1.714-.343c.049,0,.1-.016.147-.016a17.832,17.832,0,0,1,1.894-.131h.408c.637,0,1.29.033,1.943.082a2,2,0,0,0,.31.033,19.3,19.3,0,0,1,1.91.294l.278.049c.686.147,1.4.326,2.106.539.147.049.31.1.457.147.718.229,1.453.49,2.188.784a1.946,1.946,0,0,0,.326.131c.555.229,1.126.49,1.681.767.18.082.359.18.539.261.669.343,1.339.686,2.024,1.077.947.539,1.877,1.143,2.808,1.779l.588.392c.914.653,1.828,1.322,2.726,2.057a2.509,2.509,0,0,1,.31.278c.784.653,1.567,1.322,2.318,2.041l.718.669c.735.7,1.469,1.437,2.188,2.188l.343.343c.8.865,1.584,1.747,2.351,2.661.163.2.343.408.506.6.751.914,1.5,1.861,2.2,2.824.082.114.163.245.261.359.669.914,1.306,1.828,1.926,2.775.131.18.245.375.375.555.653,1.012,1.29,2.024,1.894,3.069.131.212.245.441.375.653.588,1.028,1.159,2.073,1.7,3.134.033.049.049.1.082.147.555,1.094,1.061,2.2,1.567,3.314.1.245.212.473.31.718.473,1.094.914,2.2,1.339,3.314.065.18.131.343.18.522.375,1.028.718,2.057,1.045,3.085.049.18.114.359.18.539.326,1.11.62,2.22.9,3.33.065.245.114.473.163.718.261,1.126.49,2.269.669,3.379.131.849.212,1.681.31,2.514.049.424.114.849.147,1.273.1,1.257.147,2.481.147,3.706,0,1.11-.065,2.171-.147,3.2-.016.245-.049.49-.082.735-.082.816-.2,1.6-.343,2.367-.033.2-.065.392-.1.571a24.823,24.823,0,0,1-.669,2.579l-.2.539a20.482,20.482,0,0,1-.833,2.122c-.033.065-.065.147-.1.212a19.356,19.356,0,0,1-1.143,2.073c-.065.114-.131.212-.2.326a15.807,15.807,0,0,1-1.322,1.747c-.082.1-.163.2-.261.294a16.417,16.417,0,0,1-1.535,1.486,2.792,2.792,0,0,1-.229.18,13.8,13.8,0,0,1-1.812,1.257l8.048-4.685a15.567,15.567,0,0,0,1.812-1.257c.082-.065.147-.114.229-.18A16.416,16.416,0,0,0,60.6,73.87c.082-.1.18-.2.261-.294a15.806,15.806,0,0,0,1.322-1.747c.065-.1.131-.212.2-.326a19.356,19.356,0,0,0,1.143-2.073c.033-.065.065-.147.1-.229.163-.359.326-.7.473-1.077.131-.326.245-.686.359-1.028.065-.18.131-.359.2-.555C64.88,65.773,65.092,64.924,65.288,64.026Z" transform="translate(3.473)" fill="#329680"/>
          </g>
        </g>
        <g id="Groupe_217" data-name="Groupe 217" transform="translate(1504 3922.615)">
          <g id="Groupe_214-3" data-name="Groupe 214" transform="translate(0)">
            <g id="Groupe_213-3" data-name="Groupe 213" transform="translate(0 4.672)">
              <path id="Tracé_321-3" data-name="Tracé 321" d="M30.789,7.054C47.7,16.817,61.431,40.586,61.382,60.029S47.506,87.357,30.593,77.578C13.664,67.816-.049,44.047,0,24.6S13.876-2.708,30.789,7.054Z" transform="translate(0 -2.862)" fill="#41bca0"/>
            </g>
            <path id="Tracé_322-3" data-name="Tracé 322" d="M65.288,64.026c.033-.18.065-.392.1-.571q.22-1.151.343-2.351c.033-.245.049-.49.082-.735.016-.163.033-.31.049-.49.065-.882.1-1.779.1-2.71,0-1.224-.049-2.465-.147-3.706-.033-.424-.114-.849-.147-1.273-.1-.833-.18-1.665-.31-2.514v-.033c-.18-1.11-.408-2.237-.653-3.363-.049-.245-.114-.473-.163-.718-.261-1.11-.555-2.22-.9-3.347-.049-.18-.114-.359-.18-.539-.31-1.028-.669-2.057-1.028-3.085-.065-.18-.131-.359-.2-.522-.408-1.11-.865-2.2-1.339-3.314-.1-.245-.212-.473-.31-.718-.49-1.11-1.012-2.22-1.567-3.314-.033-.049-.049-.1-.082-.147-.539-1.061-1.11-2.106-1.7-3.134-.131-.212-.245-.441-.375-.653-.6-1.045-1.241-2.057-1.894-3.069-.131-.2-.245-.375-.375-.555-.62-.947-1.257-1.861-1.926-2.775-.082-.114-.163-.245-.261-.359-.718-.963-1.453-1.91-2.22-2.824-.163-.2-.326-.408-.506-.6-.735-.865-1.469-1.73-2.237-2.547a.71.71,0,0,1-.1-.114,2.241,2.241,0,0,0-.326-.359c-.718-.751-1.437-1.486-2.188-2.188-.245-.229-.473-.457-.718-.669-.767-.7-1.535-1.388-2.334-2.041l-.31-.261C40.735,7.836,40,7.248,39.25,6.71c-.163-.114-.326-.229-.506-.343l-.588-.392C37.226,5.338,36.3,4.734,35.348,4.2c-.686-.392-1.355-.751-2.024-1.077-.18-.1-.359-.18-.539-.261-.571-.278-1.126-.522-1.681-.767-.082-.033-.163-.082-.245-.114-.016-.016-.049-.016-.065-.033-.735-.294-1.469-.555-2.188-.784-.147-.049-.31-.1-.457-.147Q27.072.694,26.043.473L25.766.424q-.979-.2-1.91-.294A2,2,0,0,0,23.545.1C22.876.033,22.239,0,21.586,0h-.408a18.136,18.136,0,0,0-1.894.131c-.049,0-.1.016-.147.016A14.474,14.474,0,0,0,17.424.49c-.114.033-.212.049-.326.082-.571.163-1.126.343-1.665.555a2.722,2.722,0,0,1-.326.131,13.207,13.207,0,0,0-1.6.784L5.49,6.742a13.207,13.207,0,0,1,1.6-.784,2.722,2.722,0,0,1,.326-.131,15.152,15.152,0,0,1,1.649-.571c.1-.033.212-.049.326-.082a14.473,14.473,0,0,1,1.714-.343c.049,0,.1-.016.147-.016a17.832,17.832,0,0,1,1.894-.131h.408c.637,0,1.29.033,1.943.082a2,2,0,0,0,.31.033,19.3,19.3,0,0,1,1.91.294l.278.049c.686.147,1.4.326,2.106.539.147.049.31.1.457.147.718.229,1.453.49,2.188.784a1.946,1.946,0,0,0,.326.131c.555.229,1.126.49,1.681.767.18.082.359.18.539.261.669.343,1.339.686,2.024,1.077.947.539,1.877,1.143,2.808,1.779l.588.392c.914.653,1.828,1.322,2.726,2.057a2.509,2.509,0,0,1,.31.278c.784.653,1.567,1.322,2.318,2.041l.718.669c.735.7,1.469,1.437,2.188,2.188l.343.343c.8.865,1.584,1.747,2.351,2.661.163.2.343.408.506.6.751.914,1.5,1.861,2.2,2.824.082.114.163.245.261.359.669.914,1.306,1.828,1.926,2.775.131.18.245.375.375.555.653,1.012,1.29,2.024,1.894,3.069.131.212.245.441.375.653.588,1.028,1.159,2.073,1.7,3.134.033.049.049.1.082.147.555,1.094,1.061,2.2,1.567,3.314.1.245.212.473.31.718.473,1.094.914,2.2,1.339,3.314.065.18.131.343.18.522.375,1.028.718,2.057,1.045,3.085.049.18.114.359.18.539.326,1.11.62,2.22.9,3.33.065.245.114.473.163.718.261,1.126.49,2.269.669,3.379.131.849.212,1.681.31,2.514.049.424.114.849.147,1.273.1,1.257.147,2.481.147,3.706,0,1.11-.065,2.171-.147,3.2-.016.245-.049.49-.082.735-.082.816-.2,1.6-.343,2.367-.033.2-.065.392-.1.571a24.823,24.823,0,0,1-.669,2.579l-.2.539a20.482,20.482,0,0,1-.833,2.122c-.033.065-.065.147-.1.212a19.356,19.356,0,0,1-1.143,2.073c-.065.114-.131.212-.2.326a15.807,15.807,0,0,1-1.322,1.747c-.082.1-.163.2-.261.294a16.417,16.417,0,0,1-1.535,1.486,2.792,2.792,0,0,1-.229.18,13.8,13.8,0,0,1-1.812,1.257l8.048-4.685a15.567,15.567,0,0,0,1.812-1.257c.082-.065.147-.114.229-.18A16.416,16.416,0,0,0,60.6,73.87c.082-.1.18-.2.261-.294a15.806,15.806,0,0,0,1.322-1.747c.065-.1.131-.212.2-.326a19.356,19.356,0,0,0,1.143-2.073c.033-.065.065-.147.1-.229.163-.359.326-.7.473-1.077.131-.326.245-.686.359-1.028.065-.18.131-.359.2-.555C64.88,65.773,65.092,64.924,65.288,64.026Z" transform="translate(3.473)" fill="#329680"/>
          </g>
        </g>
      </g>
    </g>
  </g>
</svg>
