<svg xmlns="http://www.w3.org/2000/svg" xmlns:xlink="http://www.w3.org/1999/xlink" width="1920" height="2019" viewBox="0 0 1920 2019">
  <defs>
    <filter id="Tracé_135" x="-10.841" y="-784.566" width="1946.877" height="1506.394" filterUnits="userSpaceOnUse">
      <feOffset dx="4" dy="1" input="SourceAlpha"/>
      <feGaussianBlur stdDeviation="4" result="blur"/>
      <feFlood flood-opacity="0.161"/>
      <feComposite operator="in" in2="blur"/>
      <feComposite in="SourceGraphic"/>
    </filter>
    <linearGradient id="linear-gradient" x1="-0.036" y1="1.066" x2="0.543" y2="0.381" gradientUnits="objectBoundingBox">
      <stop offset="0" stop-color="#6a7ff4"/>
      <stop offset="1" stop-color="#45539f"/>
    </linearGradient>
    <linearGradient id="linear-gradient-2" x1="1.021" y1="0.5" x2="-0.037" y2="0.5" gradientUnits="objectBoundingBox">
      <stop offset="0" stop-color="#3c488a"/>
      <stop offset="0.5" stop-color="#7a8cef"/>
      <stop offset="1" stop-color="#677bed"/>
    </linearGradient>
    <linearGradient id="linear-gradient-3" x1="0.5" y1="1.194" x2="0.5" y2="0.045" gradientUnits="objectBoundingBox">
      <stop offset="0" stop-color="#45539f"/>
      <stop offset="1" stop-color="#6a7ff4"/>
    </linearGradient>
    <linearGradient id="linear-gradient-4" x1="0.5" y1="0" x2="0.5" y2="1" xlink:href="#linear-gradient"/>
    <clipPath id="clip-path">
      <path id="Tracé_148" data-name="Tracé 148" d="M452.287,430.34l-104.42-60.684c-.45-.262-.883-.536-1.3-.832l104.426,60.684C451.41,429.8,451.843,430.078,452.287,430.34Z" transform="translate(-346.562 -368.824)" fill="none"/>
    </clipPath>
    <clipPath id="clip-Web_1920_3">
      <rect width="1920" height="2019"/>
    </clipPath>
  </defs>
  <g id="Web_1920_3" data-name="Web 1920 – 3" clip-path="url(#clip-Web_1920_3)">
    <rect width="1920" height="2019" fill="#fff"/>
    <g transform="matrix(1, 0, 0, 1, 0, 0)" filter="url(#Tracé_135)">
      <path id="Tracé_135-2" data-name="Tracé 135" d="M3877.036,1194.65l-.392-216.006s-43.715-15.4-165.171-31.382c-190.851-30.846-439.061,110.331-561.959,62.1-130.4-35.128-167.179-116.112-206.076-176.244s-92.885-86.74-111.734-94.017c-135.72-52.4-315.585,135.514-447.319,41.479s-93.662-384.856-224.4-488.37-205.823-85.585-205.823-85.585V984.043l2.244,703.786s71.328-103.484,171.7-172.572,92.616-70.4,229.776-103.781c203.954,8.15,179.588,49.879,354.672,87.926,72.314,14.173,218.31-.978,274.074-59.575,36.736-38.6,72-148.8,86.143-176.115,35.539-68.636,122.247-86.13,222.62-63.042s142.947,92.44,278.644,118.571S3864.366,1253.184,3877.036,1194.65Z" transform="translate(-1957 -979)" fill="#6a7ff4"/>
    </g>
    <path id="Tracé_134" data-name="Tracé 134" d="M3552.688,929.863c-190.158,50.975-244.558,85.748-417.735,34.784S2962.44,765.309,2859.981,726.008c-136.613-52.4-303.531,106.551-436.131,12.515S2319.2,405.15,2187.6,301.636s-196.668-87.468-196.668-87.468V949.432l-.073,205.381v479.235s130.206-190.1,360.585-238.4,352.1,102.449,560.932,45.191,87.944-232.052,274.4-274.224,290.382,108.486,471.42,105.536,252.734-117.338,252.734-117.338V948.207S3742.846,878.888,3552.688,929.863Z" transform="translate(-1991 -948)" fill="url(#linear-gradient)"/>
    <rect id="Rectangle_1" data-name="Rectangle 1" width="86" height="12" rx="6" transform="translate(66 1734)" fill="url(#linear-gradient-2)"/>
    <g id="Groupe_212" data-name="Groupe 212">
      <g id="Groupe_211" data-name="Groupe 211">
        <g id="Groupe_210" data-name="Groupe 210">
          <path id="Tracé_139" data-name="Tracé 139" d="M3977.159,1252.09s208.165-122.5,367.28-56.868,291.065,67.07,430.354,11.111,349.592-191.823,579.561-142.937,302.465,93.591,546.556,119.438v190H3977.159Z" transform="translate(-3977 616)" fill="#6a7ff4"/>
        </g>
      </g>
      <path id="Tracé_138" data-name="Tracé 138" d="M3977.159,1237.608s194.165-135.974,392.4-47.876,364.619,27.8,503.908-28.162,250.92-147.06,480.89-98.175,302.465,93.591,546.556,119.438v190H3977.159Z" transform="translate(-3976 646)" fill="url(#linear-gradient-3)"/>
    </g>
    <text id="_2019_All_rights_reserved" data-name="©2019 All rights reserved" transform="translate(785 1963)" fill="#fff" font-size="25" font-family="Gotham-Book, Gotham" letter-spacing="0.05em"><tspan x="0" y="20">©2019 All rights reserved</tspan></text>
    <text id="Need_more_information_Ideas_about_projects_Contact_me_" data-name="Need more information ? Ideas about projects ? 
Contact me " transform="translate(745 115)" fill="#fff" font-size="30" font-family="Gotham-Book, Gotham" letter-spacing="0.05em"><tspan x="325.13" y="24">Need more information ? Ideas about projects ? </tspan><tspan font-family="Gotham-Medium, Gotham" font-weight="500"><tspan x="912.83" y="66">Contact me</tspan><tspan y="66" font-family="Gotham-Book, Gotham" font-weight="400"> </tspan></tspan></text>
    <g id="Rectangle_7" data-name="Rectangle 7" transform="translate(790 1476)" stroke="#707070" stroke-width="1" fill="url(#linear-gradient-4)">
      <rect width="341" height="67" rx="33.5" stroke="none"/>
      <rect x="0.5" y="0.5" width="340" height="66" rx="33" fill="none"/>
    </g>
    <text id="SEND" transform="translate(914 1494)" fill="#fff" font-size="35" font-family="GothamNarrow-Black, Gotham Narrow" font-weight="800" letter-spacing="0.05em"><tspan x="0" y="28">SEND</tspan></text>
    <path id="Tracé_140" data-name="Tracé 140" d="M4605.231,920.141h623.9" transform="translate(-3957 501)" fill="none" stroke="#697ef3" stroke-width="5"/>
    <text id="MESSAGE" transform="translate(648 1370)" fill="#5161ba" font-size="40" font-family="GothamNarrow-Black, Gotham Narrow" font-weight="800" letter-spacing="0.05em"><tspan x="0" y="32">MESSAGE</tspan></text>
    <path id="Tracé_141" data-name="Tracé 141" d="M4605.231,920.141h623.9" transform="translate(-3957 249)" fill="none" stroke="#697ef3" stroke-width="5"/>
    <text id="MAIL" transform="translate(648 1107)" fill="#5161ba" font-size="40" font-family="GothamNarrow-Black, Gotham Narrow" font-weight="800" letter-spacing="0.05em"><tspan x="0" y="32">MAIL</tspan></text>
    <path id="Tracé_142" data-name="Tracé 142" d="M4605.231,920.141h623.9" transform="translate(-3957 91)" fill="none" stroke="#697ef3" stroke-width="5"/>
    <text id="FIRST_NAME" data-name="FIRST NAME" transform="translate(648 949)" fill="#5161ba" font-size="40" font-family="GothamNarrow-Black, Gotham Narrow" font-weight="800" letter-spacing="0.05em"><tspan x="0" y="32">FIRST NAME</tspan></text>
    <path id="Tracé_143" data-name="Tracé 143" d="M4605.231,920.141h623.9" transform="translate(-3957 -67)" fill="none" stroke="#697ef3" stroke-width="5"/>
    <text id="LAST_NAME" data-name="LAST NAME" transform="translate(648 791)" fill="#5161ba" font-size="40" font-family="GothamNarrow-Black, Gotham Narrow" font-weight="800" letter-spacing="0.05em"><tspan x="0" y="32">LAST NAME</tspan></text>
    <g id="Groupe_2" data-name="Groupe 2" transform="translate(1776 1915.004)">
      <path id="Tracé_9" data-name="Tracé 9" d="M198.539,180.055h.007v-9.9c0-4.844-1.043-8.575-6.705-8.575a5.878,5.878,0,0,0-5.295,2.91h-.079v-2.458H181.1v18.023h5.59V171.13c0-2.35.445-4.622,3.355-4.622,2.867,0,2.91,2.682,2.91,4.773v8.775Z" transform="translate(-171.55 -153.06)" fill="#fff"/>
      <path id="Tracé_10" data-name="Tracé 10" d="M8.448,170.176h5.6V188.2h-5.6Z" transform="translate(-8.003 -161.203)" fill="#fff"/>
      <path id="Tracé_11" data-name="Tracé 11" d="M3.242,0A3.257,3.257,0,1,0,6.483,3.242,3.243,3.243,0,0,0,3.242,0Z" fill="#fff"/>
    </g>
    <g id="Groupe_3" data-name="Groupe 3" transform="translate(1664.923 1914.004)">
      <path id="Tracé_12" data-name="Tracé 12" d="M36.707.006,33.061,0c-4.1,0-6.744,2.716-6.744,6.92v3.191H22.65a.573.573,0,0,0-.573.574v4.623a.573.573,0,0,0,.573.573h3.666V27.545a.573.573,0,0,0,.573.573h4.783a.573.573,0,0,0,.573-.573V15.881h4.287a.573.573,0,0,0,.573-.573l0-4.623a.574.574,0,0,0-.574-.574H32.247v-2.7c0-1.3.31-1.96,2-1.96h2.456a.573.573,0,0,0,.573-.573V.579A.574.574,0,0,0,36.707.006Z" fill="#fff"/>
    </g>
    <g id="Groupe_4" data-name="Groupe 4" transform="translate(1696.819 1914)">
      <path id="Tracé_13" data-name="Tracé 13" d="M53.051,2.977A11.14,11.14,0,0,0,45.26,0a12.248,12.248,0,0,0-9.033,3.483,10.292,10.292,0,0,0-3.045,7.134c0,3.234,1.353,5.715,3.618,6.639a1.2,1.2,0,0,0,.455.094,1.012,1.012,0,0,0,.988-.814c.076-.288.254-1,.331-1.306a1.225,1.225,0,0,0-.328-1.325,4.222,4.222,0,0,1-.96-2.885,7.261,7.261,0,0,1,7.528-7.309c3.88,0,6.29,2.205,6.29,5.755a11.958,11.958,0,0,1-1.359,5.842,4.018,4.018,0,0,1-3.324,2.326,2.2,2.2,0,0,1-1.752-.8,2.016,2.016,0,0,1-.353-1.751c.173-.732.409-1.5.637-2.234a13.825,13.825,0,0,0,.81-3.638A2.641,2.641,0,0,0,43.1,6.3c-2.021,0-3.6,2.052-3.6,4.672a6.948,6.948,0,0,0,.5,2.615c-.255,1.079-1.767,7.491-2.054,8.7-.166.706-1.166,6.281.489,6.726,1.859.5,3.521-4.93,3.69-5.544.137-.5.617-2.386.911-3.546a5.62,5.62,0,0,0,3.748,1.449,8.36,8.36,0,0,0,6.712-3.358,13.481,13.481,0,0,0,2.523-8.243A9.505,9.505,0,0,0,53.051,2.977Z" fill="#fff"/>
    </g>
    <g id="Groupe_97" data-name="Groupe 97" transform="translate(-136.178 -114.25)">
      <g id="Groupe_95" data-name="Groupe 95" transform="translate(337.409 338.259)">
        <path id="Tracé_144" data-name="Tracé 144" d="M521.746,443.488l-7.021-4.08c1.146-2.114,2.28-4.228,3.237-6.422.655-1.493,1.214-2.94,1.692-4.359.165-.473.268-.923.41-1.385.279-.935.558-1.863.763-2.769.029-.114.074-.24.1-.359.148-.684.228-1.345.336-2.017.057-.393.148-.792.194-1.179a28.321,28.321,0,0,0,.211-3.431c-.011-3.892-1.219-6.5-3.664-7.892L413.582,348.909c2.445,1.391,3.653,4,3.664,7.887a28.407,28.407,0,0,1-.211,3.436c-.046.387-.137.786-.194,1.18-.125.781-.251,1.567-.433,2.376-.205.906-.484,1.835-.769,2.77-.142.462-.245.912-.4,1.385-.484,1.419-1.037,2.866-1.7,4.354a87.887,87.887,0,0,1-9.351,16.332q-28.866,39.713-35.941,49.52c-.507.712-1.6,2.217-3.265,4.565-1.635,2.325-3.049,4.274-4.137,5.784l104.42,60.684.046-.062,44.38,25.792a20.141,20.141,0,0,0,3.106-2.274c.262-.228.519-.473.775-.712a24.806,24.806,0,0,0,2.41-2.667c.1-.12.205-.205.3-.331l.091-.137a31.136,31.136,0,0,0,2-3.038,31.648,31.648,0,0,0,1.744-3.579c.154-.365.268-.729.4-1.088a25.164,25.164,0,0,0,.769-2.473c.051-.205.148-.422.194-.633.034-.16.017-.313.051-.473a19.631,19.631,0,0,0,.416-3.824Z" transform="translate(-227.307 -288.218)" fill="#858585"/>
        <path id="Tracé_145" data-name="Tracé 145" d="M469.172,370.9,355.913,436.291c-3.385,1.955-6.263,2.234-8.673.861l104.426,60.689c2.411,1.367,5.288,1.088,8.667-.861l113.264-65.4Z" transform="translate(-291.217 -184.892)" fill="#969696"/>
        <path id="Tracé_146" data-name="Tracé 146" d="M421.115,366.385c-.274.359-.6.787-.9,1.18-.912,1.2-1.92,2.507-3.094,3.972a44.182,44.182,0,0,1-4.4,4.924,20.269,20.269,0,0,1-4,3.105,11.792,11.792,0,0,1-3.858,1.43,13.659,13.659,0,0,1-4.445.182c-1.567-.143-2.878-.347-4.012-.53q-1.641-.376-4.154-1c-1.681-.41-2.77-.661-3.283-.781q-7-1.616-20.2-4.5c-8.787-1.921-14.041-3.117-15.791-3.488a16.006,16.006,0,0,1-2.525-.747,17.706,17.706,0,0,1-2.439-1.174h0L452.44,429.644a16.439,16.439,0,0,0,4.964,1.92c1.749.371,7,1.567,15.785,3.488s15.534,3.425,20.207,4.5c.507.125,1.6.37,3.282.786s3.06.741,4.154.991c1.128.182,2.445.388,4.012.53a13.67,13.67,0,0,0,4.445-.177,11.987,11.987,0,0,0,3.858-1.436,20.284,20.284,0,0,0,4-3.105,44.776,44.776,0,0,0,4.394-4.924c1.179-1.464,2.182-2.764,3.094-3.966.1-.131.234-.3.331-.422.194-.262.387-.519.57-.764Z" transform="translate(-287.581 -206.106)" fill="#969696"/>
        <g id="Groupe_93" data-name="Groupe 93" transform="translate(52.159 174.177)">
          <g id="Groupe_92" data-name="Groupe 92" clip-path="url(#clip-path)">
            <g id="Groupe_91" data-name="Groupe 91">
              <path id="Tracé_147" data-name="Tracé 147" d="M452.287,430.34l-104.42-60.684c-.45-.262-.883-.536-1.3-.832l104.426,60.684c.422.3.855.57,1.3.832" transform="translate(-346.562 -368.824)" fill="#858585"/>
            </g>
          </g>
        </g>
        <path id="Tracé_149" data-name="Tracé 149" d="M541.144,346.312c-21.689-12.605-51.72-10.833-84.863,8.3-3.687,2.131-7.323,4.49-10.924,6.947-1.037.707-2.057,1.442-3.083,2.177q-4.137,2.94-8.183,6.16c-.895.712-1.8,1.39-2.678,2.12-3.442,2.832-6.838,5.778-10.16,8.878-.61.564-1.191,1.168-1.8,1.744q-4.137,3.932-8.126,8.115c-.952,1-1.9,2-2.838,3.02q-3.906,4.231-7.659,8.679c-.576.678-1.163,1.333-1.732,2.017-2.633,3.185-5.22,6.439-7.727,9.767-.3.4-.575.832-.878,1.231-1.231,1.658-2.4,3.362-3.6,5.049-1.789,2.513-3.567,5.021-5.277,7.6-1.208,1.824-2.359,3.687-3.533,5.539-1.59,2.525-3.168,5.049-4.684,7.625-1.146,1.937-2.234,3.9-3.334,5.858-1.43,2.564-2.832,5.134-4.188,7.738-1.043,2.017-2.052,4.04-3.049,6.075q-1.923,3.915-3.71,7.875c-.935,2.057-1.841,4.114-2.724,6.188-1.128,2.673-2.194,5.345-3.237,8.035-.8,2.069-1.6,4.131-2.342,6.212-.98,2.741-1.875,5.488-2.758,8.24-.655,2.029-1.322,4.057-1.92,6.092-.838,2.849-1.556,5.693-2.279,8.542-.49,1.938-1.02,3.875-1.459,5.813-.108.479-.257.958-.359,1.436-.838,3.824-1.544,7.636-2.16,11.437-.142.855-.234,1.7-.359,2.553q-.812,5.411-1.3,10.753c-.114,1.2-.222,2.382-.308,3.567-.313,4.314-.524,8.6-.513,12.827.04,14.1,1.932,26.624,5.408,37.44,5.8,18.019,16.007,31.268,29.388,39.046l104.42,60.684a58.5,58.5,0,0,1-14.452-11.91,75.353,75.353,0,0,1-14.93-27.136,102.691,102.691,0,0,1-2.941-11.38,134.833,134.833,0,0,1-2.473-26.059c-.011-4.223.205-8.514.519-12.833.085-1.18.194-2.365.3-3.55q.5-5.36,1.3-10.776c.125-.849.217-1.687.353-2.536.7-4.274,1.55-8.571,2.524-12.879.433-1.937.969-3.875,1.459-5.818.718-2.844,1.442-5.687,2.279-8.531.593-2.04,1.265-4.069,1.92-6.1.878-2.747,1.778-5.494,2.758-8.235.746-2.074,1.544-4.143,2.342-6.211,1.037-2.684,2.108-5.368,3.237-8.035.878-2.069,1.79-4.131,2.718-6.183q1.795-3.966,3.715-7.887c.991-2.029,2.006-4.057,3.049-6.069,1.351-2.6,2.758-5.169,4.183-7.733,1.1-1.966,2.194-3.926,3.339-5.869,1.51-2.564,3.089-5.089,4.679-7.608,1.174-1.858,2.331-3.727,3.544-5.556,1.7-2.57,3.476-5.072,5.26-7.573,1.2-1.693,2.371-3.408,3.607-5.066,2.792-3.75,5.653-7.431,8.6-11,.564-.684,1.157-1.333,1.727-2.012q3.761-4.453,7.665-8.685,1.41-1.521,2.838-3.02,3.983-4.171,8.109-8.1c.61-.581,1.2-1.191,1.812-1.761q4.992-4.641,10.161-8.873c.883-.729,1.784-1.407,2.673-2.114q4.052-3.222,8.189-6.171c1.026-.73,2.046-1.465,3.077-2.171,3.607-2.456,7.243-4.815,10.93-6.941,33.137-19.136,63.174-20.908,84.857-8.3Z" transform="translate(-337.409 -338.259)" fill="#969696"/>
        <g id="Groupe_94" data-name="Groupe 94" transform="translate(104.42 60.686)">
          <path id="Tracé_150" data-name="Tracé 150" d="M474.611,365.262c65.853-38.021,119.442-7.488,119.653,68.183s-53.02,167.879-118.872,205.9-119.442,7.488-119.658-68.183S408.758,403.283,474.611,365.262Zm71.34,148.424-.2-70.195a101.475,101.475,0,0,1-7.653,12.126Q512.934,489.8,499.873,508.21c-2.906,4.194-5.3,7.5-7.117,9.932a93.968,93.968,0,0,1-7.226,8.4,38.9,38.9,0,0,1-8.474,7.072,20.827,20.827,0,0,1-8.628,2.8,26.812,26.812,0,0,1-7.288-.023c-1.824-.331-4.194-.889-7.112-1.715q-10.445-2.7-38.323-8.4a19.775,19.775,0,0,1-7.807-3.2l.194,70.195c.011,3.886,1.225,6.5,3.67,7.893,2.411,1.367,5.288,1.088,8.667-.861l113.264-65.4a27.006,27.006,0,0,0,12.258-21.227m-3.983-80.7a38.5,38.5,0,0,0,3.71-15.5c-.011-3.892-1.219-6.5-3.664-7.892-2.45-1.351-5.328-1.072-8.673.86L420.081,475.848A22.621,22.621,0,0,0,411,485.695a29.365,29.365,0,0,0-3.168,13.346,12.877,12.877,0,0,0,4.251,9.608,18.55,18.55,0,0,0,9.055,5.032c1.749.371,7,1.567,15.785,3.488s15.534,3.425,20.207,4.5c.507.125,1.6.37,3.282.786s3.06.741,4.154.991c1.128.182,2.445.388,4.012.53a13.67,13.67,0,0,0,4.445-.177,11.987,11.987,0,0,0,3.858-1.436,20.284,20.284,0,0,0,4-3.105,44.776,44.776,0,0,0,4.394-4.924c1.561-1.949,2.906-3.687,3.994-5.151,1.089-1.51,2.508-3.459,4.137-5.784,1.67-2.342,2.764-3.852,3.271-4.565q7.077-9.744,35.935-49.52a87.864,87.864,0,0,0,9.357-16.326" transform="translate(-355.733 -348.908)" fill="#fff"/>
        </g>
      </g>
    </g>
  </g>
</svg>
