<svg xmlns="http://www.w3.org/2000/svg" xmlns:xlink="http://www.w3.org/1999/xlink" width="1920" height="1080" viewBox="0 0 1920 1080">
  <defs>
    <filter id="Tracé_2" x="542.765" y="-15" width="1382.775" height="1468.959" filterUnits="userSpaceOnUse">
      <feOffset dx="-10" dy="3" input="SourceAlpha"/>
      <feGaussianBlur stdDeviation="5" result="blur"/>
      <feFlood flood-opacity="0.161"/>
      <feComposite operator="in" in2="blur"/>
      <feComposite in="SourceGraphic"/>
    </filter>
    <linearGradient id="linear-gradient" x1="0.948" y1="-0.009" x2="0.5" y2="1" gradientUnits="objectBoundingBox">
      <stop offset="0" stop-color="#6a7ff4"/>
      <stop offset="1" stop-color="#35407a"/>
    </linearGradient>
    <linearGradient id="linear-gradient-2" x1="1.021" y1="0.5" x2="-0.037" y2="0.5" gradientUnits="objectBoundingBox">
      <stop offset="0" stop-color="#3c488a"/>
      <stop offset="0.5" stop-color="#7a8cef"/>
      <stop offset="1" stop-color="#677bed"/>
    </linearGradient>
    <linearGradient id="linear-gradient-3" x1="0.5" x2="0.5" y2="1" gradientUnits="objectBoundingBox">
      <stop offset="0" stop-color="#6a7ff4"/>
      <stop offset="1" stop-color="#45539f"/>
    </linearGradient>
    <filter id="Rectangle_3" x="96" y="824" width="190" height="69" filterUnits="userSpaceOnUse">
      <feOffset dx="4" dy="5" input="SourceAlpha"/>
      <feGaussianBlur stdDeviation="3" result="blur-2"/>
      <feFlood flood-opacity="0.161"/>
      <feComposite operator="in" in2="blur-2"/>
      <feComposite in="SourceGraphic"/>
    </filter>
    <clipPath id="clip-path">
      <path id="Tracé_17" data-name="Tracé 17" d="M414.91,509.435l-21.722,12.624c-.934.543-2.314.226-3.969-.729a9.835,9.835,0,0,1-5.2-8.907L405.738,499.8a9.835,9.835,0,0,0,5.2,8.907C412.6,509.661,413.975,509.978,414.91,509.435Z" transform="translate(-384.016 -499.799)" fill="none"/>
    </clipPath>
    <clipPath id="clip-path-2">
      <path id="Tracé_21" data-name="Tracé 21" d="M411.64,504.805l-21.722,12.624c.273-.158.436-.562.438-1.272l21.722-12.624C412.076,504.243,411.913,504.647,411.64,504.805Z" transform="translate(-389.918 -503.533)" fill="none"/>
    </clipPath>
    <clipPath id="clip-path-3">
      <path id="Tracé_36" data-name="Tracé 36" d="M417.059,178.53l-21.722,12.624c-.933.541-2.31.223-3.965-.732a9.824,9.824,0,0,1-5.2-8.907l21.722-12.622a9.824,9.824,0,0,0,5.2,8.906C414.749,178.753,416.126,179.072,417.059,178.53Z" transform="translate(-386.169 -168.892)" fill="none"/>
    </clipPath>
    <clipPath id="clip-path-4">
      <path id="Tracé_40" data-name="Tracé 40" d="M413.789,173.9,392.067,186.52c.272-.157.434-.561.436-1.269l21.722-12.622C414.223,173.336,414.061,173.74,413.789,173.9Z" transform="translate(-392.067 -172.629)" fill="none"/>
    </clipPath>
    <clipPath id="clip-path-5">
      <path id="Tracé_80" data-name="Tracé 80" d="M883.377,749.606,905.1,736.982a2.961,2.961,0,0,0,1.031,1.087,1.048,1.048,0,0,0,1.038.107L885.446,750.8a1.05,1.05,0,0,1-1.038-.107A2.969,2.969,0,0,1,883.377,749.606Z" transform="translate(-883.377 -736.982)" fill="none"/>
    </clipPath>
    <clipPath id="clip-path-6">
      <path id="Tracé_85" data-name="Tracé 85" d="M876.315,735.079l21.722-12.624c-.58.321-.583,1.389-.006,2.377l-21.722,12.624C875.731,736.468,875.735,735.4,876.315,735.079Z" transform="translate(-875.878 -722.455)" fill="none"/>
    </clipPath>
    <clipPath id="clip-path-7">
      <path id="Tracé_91" data-name="Tracé 91" d="M890.176,751.276,911.9,738.652c-.573.326-.575,1.394-.007,2.378a3.019,3.019,0,0,0,1.037,1.09,1.053,1.053,0,0,0,1.039.108l-21.722,12.622a1.05,1.05,0,0,1-1.039-.107,3.02,3.02,0,0,1-1.037-1.09C889.6,752.67,889.6,751.6,890.176,751.276Z" transform="translate(-889.746 -738.652)" fill="none"/>
    </clipPath>
    <clipPath id="clip-path-8">
      <path id="Tracé_99" data-name="Tracé 99" d="M890.117,734.721,911.839,722.1c-.58.321-.583,1.389-.007,2.377L890.109,737.1C889.533,736.11,889.537,735.042,890.117,734.721Z" transform="translate(-889.68 -722.097)" fill="none"/>
    </clipPath>
    <clipPath id="clip-path-9">
      <path id="Tracé_111" data-name="Tracé 111" d="M826.715,448.808l21.722-12.624c-1.382.8-2.24,2.508-2.247,4.929a16.942,16.942,0,0,0,7.676,13.3c2.133,1.231,4.069,1.343,5.469.529l-21.722,12.624c-1.4.814-3.336.7-5.469-.529a16.942,16.942,0,0,1-7.676-13.3C824.474,451.316,825.332,449.61,826.715,448.808Z" transform="translate(-824.468 -436.184)" fill="none"/>
    </clipPath>
    <clipPath id="clip-path-10">
      <path id="Tracé_115" data-name="Tracé 115" d="M857.275,452.058l-21.722,12.624a4.046,4.046,0,0,0,1.688-3.7,10.43,10.43,0,0,0-.724-3.668l21.722-12.622a10.418,10.418,0,0,1,.724,3.667A4.043,4.043,0,0,1,857.275,452.058Z" transform="translate(-835.553 -444.688)" fill="none"/>
    </clipPath>
    <clipPath id="clip-path-11">
      <path id="Tracé_118" data-name="Tracé 118" d="M827.868,451.034,849.59,438.41c1.051-.61,2.505-.526,4.108.4a11.008,11.008,0,0,1,3.348,3.174l-21.722,12.624a11,11,0,0,0-3.349-3.174C830.373,450.508,828.919,450.424,827.868,451.034Z" transform="translate(-827.868 -438.02)" fill="none"/>
    </clipPath>
    <clipPath id="clip-path-12">
      <path id="Tracé_127" data-name="Tracé 127" d="M839.4,453.25l21.722-12.624a.334.334,0,0,1,.333.034.945.945,0,0,1,.333.35c.174.311.173.654,0,.764L840.064,454.4c.175-.111.176-.453,0-.764a.946.946,0,0,0-.333-.35A.332.332,0,0,0,839.4,453.25Z" transform="translate(-839.401 -440.596)" fill="none"/>
    </clipPath>
    <clipPath id="clip-Web_1920_1">
      <rect width="1920" height="1080"/>
    </clipPath>
  </defs>
  <g id="Web_1920_1" data-name="Web 1920 – 1" clip-path="url(#clip-Web_1920_1)">
    <rect width="1920" height="1080" fill="#fff"/>
    <g transform="matrix(1, 0, 0, 1, 0, 0)" filter="url(#Tracé_2)">
      <path id="Tracé_2-2" data-name="Tracé 2" d="M626.021,0S560.552,314.544,853.192,458.707c245.212,106.728,297.245,196.112,358.636,411.958,17.312,60.869,31.04,97.672,49.81,129.387,36.352,61.414,92.282,81.028,99.513,82.953s6.044,1.328,36.841,5.905,61.786,15.9,75.309,22.635c12.651,7.2,103.038,65.718,124.312,97.8,2.936,7.045,2.92-7.125,22.035,51.775,1.737,20.185,62.275,104.749,95.635,125.767,125.779,79.245,257.256,44.469,257.256,44.469V0Z" transform="translate(-52 -3)" fill="#6a7ff4"/>
    </g>
    <path id="Tracé_1" data-name="Tracé 1" d="M626.021,0s-86.9,324.06,189.05,469.222c245.212,106.728,321.379,180.56,382.771,396.407,21.259,81.645,32.48,107.05,51.25,138.764,30.851,55.8,83.532,75.624,83.532,75.624s14.2,2.226,19.384,2.907c19.709,2.588,83.148,9.909,158.221,89.017s35.7,111.134,150.615,190.381c142.11,83.411,259.6,54.245,259.6,54.245L1920.757,0Z" fill="url(#linear-gradient)"/>
    <text id="FREELANCE" transform="translate(96 583)" fill="#707070" font-size="40" font-family="GothamNarrow-Black, Gotham Narrow" font-weight="800" letter-spacing="0.05em"><tspan x="0" y="32">FREELANCE</tspan></text>
    <text id="Front-end_developper" data-name="Front-end developper" transform="translate(96 634)" fill="#707070" font-size="30" font-family="Gotham-Book, Gotham" letter-spacing="0.005em"><tspan x="0" y="24">Front-end developper</tspan></text>
    <rect id="Rectangle_1" data-name="Rectangle 1" width="86" height="12" rx="6" transform="translate(96 1002)" fill="url(#linear-gradient-2)"/>
    <g transform="matrix(1, 0, 0, 1, 0, 0)" filter="url(#Rectangle_3)">
      <g id="Rectangle_3-2" data-name="Rectangle 3" transform="translate(104 831)" stroke="#5e70d7" stroke-linecap="round" stroke-width="3" fill="url(#linear-gradient-3)">
        <rect width="166" height="45" rx="22.5" stroke="none"/>
        <rect x="-1.5" y="-1.5" width="169" height="48" rx="24" fill="none"/>
      </g>
    </g>
    <text id="Home" transform="translate(999 60)" fill="#fff" font-size="30" font-family="Gotham-Book, Gotham" letter-spacing="0.005em"><tspan x="0" y="24">Home</tspan></text>
    <text id="Projects" transform="translate(1203 60)" fill="#fff" font-size="30" font-family="Gotham-Book, Gotham" letter-spacing="0.005em"><tspan x="0" y="24">Projects</tspan></text>
    <text id="Contact" transform="translate(1445 60)" fill="#fff" font-size="30" font-family="Gotham-Book, Gotham" letter-spacing="0.005em"><tspan x="0" y="24">Contact</tspan></text>
    <text id="View_more" data-name="View more" transform="translate(143 844)" fill="#fff" font-size="16" font-family="Gotham-Book, Gotham" letter-spacing="0.005em"><tspan x="0" y="13">View more</tspan></text>
    <g id="Groupe_2" data-name="Groupe 2" transform="translate(1740 996.004)">
      <path id="Tracé_9" data-name="Tracé 9" d="M198.539,180.055h.007v-9.9c0-4.844-1.043-8.575-6.705-8.575a5.878,5.878,0,0,0-5.295,2.91h-.079v-2.458H181.1v18.023h5.59V171.13c0-2.35.445-4.622,3.355-4.622,2.867,0,2.91,2.682,2.91,4.773v8.775Z" transform="translate(-171.55 -153.06)" fill="#fff"/>
      <path id="Tracé_10" data-name="Tracé 10" d="M8.448,170.176h5.6V188.2h-5.6Z" transform="translate(-8.003 -161.203)" fill="#fff"/>
      <path id="Tracé_11" data-name="Tracé 11" d="M3.242,0A3.257,3.257,0,1,0,6.483,3.242,3.243,3.243,0,0,0,3.242,0Z" fill="#fff"/>
    </g>
    <g id="Groupe_3" data-name="Groupe 3" transform="translate(1628.923 995.004)">
      <path id="Tracé_12" data-name="Tracé 12" d="M36.707.006,33.061,0c-4.1,0-6.744,2.716-6.744,6.92v3.191H22.65a.573.573,0,0,0-.573.574v4.623a.573.573,0,0,0,.573.573h3.666V27.545a.573.573,0,0,0,.573.573h4.783a.573.573,0,0,0,.573-.573V15.881h4.287a.573.573,0,0,0,.573-.573l0-4.623a.574.574,0,0,0-.574-.574H32.247v-2.7c0-1.3.31-1.96,2-1.96h2.456a.573.573,0,0,0,.573-.573V.579A.574.574,0,0,0,36.707.006Z" fill="#fff"/>
    </g>
    <g id="Groupe_4" data-name="Groupe 4" transform="translate(1660.819 995)">
      <path id="Tracé_13" data-name="Tracé 13" d="M53.051,2.977A11.14,11.14,0,0,0,45.26,0a12.248,12.248,0,0,0-9.033,3.483,10.292,10.292,0,0,0-3.045,7.134c0,3.234,1.353,5.715,3.618,6.639a1.2,1.2,0,0,0,.455.094,1.012,1.012,0,0,0,.988-.814c.076-.288.254-1,.331-1.306a1.225,1.225,0,0,0-.328-1.325,4.222,4.222,0,0,1-.96-2.885,7.261,7.261,0,0,1,7.528-7.309c3.88,0,6.29,2.205,6.29,5.755a11.958,11.958,0,0,1-1.359,5.842,4.018,4.018,0,0,1-3.324,2.326,2.2,2.2,0,0,1-1.752-.8,2.016,2.016,0,0,1-.353-1.751c.173-.732.409-1.5.637-2.234a13.825,13.825,0,0,0,.81-3.638A2.641,2.641,0,0,0,43.1,6.3c-2.021,0-3.6,2.052-3.6,4.672a6.948,6.948,0,0,0,.5,2.615c-.255,1.079-1.767,7.491-2.054,8.7-.166.706-1.166,6.281.489,6.726,1.859.5,3.521-4.93,3.69-5.544.137-.5.617-2.386.911-3.546a5.62,5.62,0,0,0,3.748,1.449,8.36,8.36,0,0,0,6.712-3.358,13.481,13.481,0,0,0,2.523-8.243A9.505,9.505,0,0,0,53.051,2.977Z" fill="#fff"/>
    </g>
    <text id="Web_solutions_design_wireframe_logo_UI_UX" data-name="Web solutions, design, wireframe, logo, UI &amp; UX" transform="translate(96 784)" fill="#707070" font-size="20" font-family="Gotham-Medium, Gotham" font-weight="500" letter-spacing="0.005em"><tspan x="0" y="16">WEB SOLUTIONS, DESIGN, WIREFRAME, LOGO, UI &amp; UX</tspan></text>
    <g id="Groupe_84" data-name="Groupe 84" transform="translate(716.029 62.76)">
      <g id="Groupe_83" data-name="Groupe 83" transform="translate(370.971 147.269)">
        <g id="Groupe_7" data-name="Groupe 7" transform="translate(13.864 374.657)">
          <g id="Groupe_6" data-name="Groupe 6" clip-path="url(#clip-path)">
            <g id="Groupe_5" data-name="Groupe 5">
              <path id="Tracé_14" data-name="Tracé 14" d="M384.016,512.423,405.738,499.8a10.161,10.161,0,0,0,1.01,4.584l-21.722,12.622a10.157,10.157,0,0,1-1.01-4.583" transform="translate(-384.016 -499.799)" fill="#8f8f8f"/>
              <path id="Tracé_15" data-name="Tracé 15" d="M384.966,516.734l21.722-12.622a9.5,9.5,0,0,0,1.552,2.244l-21.722,12.624a9.479,9.479,0,0,1-1.552-2.245" transform="translate(-383.956 -499.528)" fill="#8a8a8a"/>
              <path id="Tracé_16" data-name="Tracé 16" d="M386.426,518.847l21.722-12.624a11.282,11.282,0,0,0,2.641,2.08c1.656.955,3.035,1.272,3.969.729l-21.722,12.624c-.934.543-2.314.226-3.969-.729a11.28,11.28,0,0,1-2.641-2.08" transform="translate(-383.865 -499.396)" fill="#858585"/>
            </g>
          </g>
        </g>
        <g id="Groupe_10" data-name="Groupe 10" transform="translate(20.136 378.626)">
          <g id="Groupe_9" data-name="Groupe 9" clip-path="url(#clip-path-2)">
            <g id="Groupe_8" data-name="Groupe 8">
              <path id="Tracé_18" data-name="Tracé 18" d="M390.33,516.157l21.722-12.624c0,.074,0,.146-.005.213l-21.722,12.624c0-.067.005-.138.005-.213" transform="translate(-389.892 -503.533)" fill="#8f8f8f"/>
              <path id="Tracé_19" data-name="Tracé 19" d="M390.34,516.357l21.722-12.624a1.649,1.649,0,0,1-.249.894L390.091,517.25a1.655,1.655,0,0,0,.249-.894" transform="translate(-389.907 -503.52)" fill="#8a8a8a"/>
              <path id="Tracé_20" data-name="Tracé 20" d="M390.1,517.2l21.722-12.624a.6.6,0,0,1-.184.166l-21.722,12.624a.613.613,0,0,0,.184-.166" transform="translate(-389.918 -503.468)" fill="#858585"/>
            </g>
          </g>
        </g>
        <g id="Groupe_11" data-name="Groupe 11" transform="translate(13.864 366.322)">
          <path id="Tracé_22" data-name="Tracé 22" d="M384.039,504.579l21.722-12.623-.024,8.336-21.722,12.623Z" transform="translate(-384.016 -491.956)" fill="#969696"/>
        </g>
        <g id="Groupe_12" data-name="Groupe 12" transform="translate(25.533 387.017)">
          <path id="Tracé_23" data-name="Tracé 23" d="M395,524.052l21.722-12.623,3.745,2.162-21.722,12.623Z" transform="translate(-394.996 -511.429)" fill="#888"/>
        </g>
        <g id="Groupe_13" data-name="Groupe 13" transform="translate(20.574 370.196)">
          <path id="Tracé_24" data-name="Tracé 24" d="M390.354,508.225,412.076,495.6l-.024,8.429L390.33,516.654Z" transform="translate(-390.33 -495.601)" fill="#969696"/>
        </g>
        <g id="Groupe_14" data-name="Groupe 14" transform="translate(25.533 373.068)">
          <path id="Tracé_25" data-name="Tracé 25" d="M395.035,510.927,416.757,498.3l-.04,13.949L395,524.876Z" transform="translate(-394.996 -498.304)" fill="#969696"/>
        </g>
        <path id="Tracé_26" data-name="Tracé 26" d="M432.029,523.6c.04-.073.084-.142.123-.217a14.816,14.816,0,0,0,.642-1.386c.045-.11.086-.224.13-.337.173-.458.334-.932.474-1.427.016-.056.035-.109.051-.167.148-.541.269-1.107.374-1.691.025-.138.048-.277.071-.418.1-.6.18-1.215.232-1.858h0L412.4,528.722c-.052.643-.135,1.257-.232,1.858-.023.14-.046.279-.071.418-.105.582-.226,1.15-.374,1.69-.016.058-.036.113-.052.17-.139.494-.3.966-.473,1.423-.044.114-.085.229-.131.34a14.944,14.944,0,0,1-.641,1.386c-.039.073-.083.141-.123.215a12.794,12.794,0,0,1-.682,1.1c-.056.083-.112.168-.17.249a11.8,11.8,0,0,1-.9,1.094c-.063.067-.131.126-.194.192a10.749,10.749,0,0,1-.836.769c-.1.08-.193.16-.292.237a10.5,10.5,0,0,1-1.121.766L427.834,528a10.351,10.351,0,0,0,1.122-.767c.1-.075.195-.155.291-.236a10.988,10.988,0,0,0,.839-.77c.063-.065.13-.124.191-.19a11.7,11.7,0,0,0,.792-.938c.038-.05.071-.106.107-.157.058-.08.114-.165.17-.247C431.588,524.346,431.815,523.982,432.029,523.6Z" transform="translate(-368.765 -124.119)" fill="#858585"/>
        <path id="Tracé_27" data-name="Tracé 27" d="M396.547,494.142c.089.071.18.139.268.211q.883.711,1.738,1.49c.1.087.192.174.288.263q.848.784,1.665,1.625c.087.089.173.181.259.271.566.593,1.124,1.2,1.665,1.833l.023.025c.528.616,1.039,1.255,1.542,1.9q.185.241.369.483c.5.655.982,1.32,1.448,2l.016.023c.461.677.9,1.37,1.335,2.069q.161.261.32.524c.426.71.843,1.427,1.236,2.155.012.022.022.046.034.068.37.687.716,1.384,1.054,2.084.126.261.249.524.37.788q.37.8.71,1.613c.105.25.214.5.315.75q.418,1.041.786,2.09c.03.086.065.173.095.259.27.784.512,1.571.735,2.357.066.232.122.463.184.694.151.564.291,1.128.417,1.69.061.271.117.542.172.812.111.551.207,1.1.293,1.646.038.243.081.488.114.73.106.777.194,1.551.247,2.315l21.722-12.622c-.052-.765-.139-1.539-.245-2.316-.034-.242-.077-.487-.115-.73q-.129-.821-.293-1.645c-.055-.271-.112-.542-.172-.813-.125-.562-.266-1.124-.416-1.688-.063-.232-.118-.463-.185-.7-.223-.785-.466-1.572-.734-2.355-.031-.09-.068-.18-.1-.27q-.367-1.046-.783-2.082c-.1-.251-.209-.5-.315-.75q-.34-.81-.71-1.612c-.121-.265-.243-.527-.37-.79-.084-.173-.16-.35-.246-.523-.259-.523-.53-1.043-.807-1.558l-.037-.07c-.393-.729-.809-1.445-1.236-2.155q-.158-.263-.318-.523c-.433-.7-.874-1.393-1.336-2.07l-.015-.022c-.467-.682-.952-1.346-1.447-2-.123-.163-.247-.323-.371-.485-.5-.648-1.013-1.286-1.541-1.9l-.023-.026q-.577-.674-1.175-1.321c-.16-.173-.326-.34-.489-.51-.087-.091-.173-.184-.261-.274q-.816-.84-1.664-1.623c-.1-.089-.191-.176-.288-.264q-.854-.776-1.735-1.489c-.09-.072-.182-.142-.272-.214-.6-.479-1.216-.937-1.838-1.367-.063-.045-.128-.085-.191-.129-.655-.445-1.317-.869-1.987-1.256-4.177-2.411-8.085-3.32-11.411-2.9a10.92,10.92,0,0,0-4.146,1.377l-21.722,12.624c3.976-2.31,9.481-1.984,15.557,1.523.671.388,1.333.811,1.987,1.257.064.044.129.084.191.129C395.329,493.2,395.942,493.663,396.547,494.142Z" transform="translate(-370.594 -126.65)" fill="#8f8f8f"/>
        <path id="Tracé_28" data-name="Tracé 28" d="M509.708,555.865l-75.943-43.846-21.722,12.622,75.943,43.847c6.669,3.85,12.721,4.2,17.095,1.661L526.8,557.526C522.429,560.067,516.378,559.715,509.708,555.865Z" transform="translate(-368.393 -124.375)" fill="#858585"/>
        <path id="Tracé_29" data-name="Tracé 29" d="M528.885,555.067q.234-.392.453-.8c.073-.14.147-.279.218-.423.152-.307.3-.625.435-.949.049-.114.1-.223.149-.339.18-.443.348-.9.5-1.369.031-.1.058-.2.088-.3.119-.38.231-.766.332-1.164.044-.169.082-.342.122-.513.081-.348.155-.7.223-1.058.035-.184.07-.368.1-.555.066-.392.122-.795.173-1.2.019-.153.043-.3.06-.458q.092-.843.142-1.724c0-.019,0-.037,0-.056q.038-.714.047-1.454l-21.722,12.623c-.006.513-.024,1.015-.052,1.51q-.048.881-.141,1.724c-.017.155-.04.305-.06.458-.051.407-.107.809-.173,1.2-.031.187-.066.371-.1.555-.068.359-.142.711-.223,1.057-.04.172-.079.345-.122.514-.1.4-.213.783-.332,1.164-.031.1-.057.2-.089.3-.154.471-.321.926-.5,1.369-.048.115-.1.224-.149.338-.138.324-.283.643-.435.951-.071.142-.145.283-.219.422-.144.275-.3.542-.452.8-.078.131-.155.263-.236.39-.185.29-.377.57-.576.842-.057.079-.112.163-.17.24-.265.349-.541.68-.828,1-.073.081-.152.156-.227.236-.22.233-.446.458-.679.673-.1.1-.209.188-.316.281-.225.2-.457.382-.693.56-.1.078-.2.157-.305.231-.338.241-.683.472-1.041.679L523.814,560.2c.358-.207.7-.437,1.04-.678.1-.074.205-.155.308-.233.235-.179.465-.363.691-.559q.159-.137.316-.281.349-.322.678-.672c.075-.08.154-.155.228-.238.287-.317.564-.649.828-1,.011-.014.023-.027.034-.04.048-.063.088-.133.135-.2.2-.273.392-.554.577-.845C528.73,555.329,528.807,555.2,528.885,555.067Z" transform="translate(-362.741 -122.449)" fill="#858585"/>
        <path id="Tracé_30" data-name="Tracé 30" d="M508.9,529.552c.139.114.281.216.423.321.074.055.149.116.224.169.219.152.441.294.666.424l21.722-12.624c-.225-.13-.447-.272-.666-.425-.073-.05-.143-.108-.216-.161-.145-.106-.29-.212-.432-.327-.085-.069-.167-.147-.251-.219-.124-.108-.251-.214-.372-.328-.087-.082-.171-.17-.256-.256-.114-.114-.23-.225-.341-.344-.05-.054-.1-.113-.148-.168-.169-.188-.336-.38-.5-.579-.07-.086-.137-.174-.205-.263q-.209-.269-.406-.55c-.063-.09-.128-.181-.189-.272-.147-.218-.287-.441-.422-.667-.036-.061-.075-.12-.112-.182-.167-.287-.324-.579-.472-.875-.025-.051-.048-.1-.073-.155-.184-.379-.353-.765-.5-1.154-.017-.044-.036-.086-.052-.13-.151-.4-.277-.8-.387-1.208-.021-.076-.041-.153-.062-.23a11.719,11.719,0,0,1-.237-1.186c-.01-.067-.016-.133-.024-.2a9.658,9.658,0,0,1-.084-1.213l.1-35.079c0-.188.013-.367.026-.544s.035-.371.062-.547c.012-.078.02-.158.034-.234a5.786,5.786,0,0,1,.172-.7c.005-.016.013-.029.017-.044a4.625,4.625,0,0,1,.235-.572c.031-.063.066-.119.1-.179a3.677,3.677,0,0,1,.223-.36q.062-.088.128-.169a3.4,3.4,0,0,1,.283-.308c.044-.043.085-.088.131-.128a3.185,3.185,0,0,1,.463-.338h0l-21.722,12.624a3.138,3.138,0,0,0-.466.339c-.046.039-.087.085-.132.128a3.541,3.541,0,0,0-.282.307c-.022.029-.05.05-.071.079s-.036.063-.056.091a3.572,3.572,0,0,0-.223.359c-.033.061-.068.117-.1.18a4.684,4.684,0,0,0-.235.571c0,.016-.012.029-.017.045a5.786,5.786,0,0,0-.172.7c-.014.074-.022.155-.034.232-.027.177-.048.36-.062.549,0,.045-.012.084-.014.129-.007.136-.012.274-.012.416l-.1,35.078a9.671,9.671,0,0,0,.084,1.214c.008.067.015.132.024.2a11.706,11.706,0,0,0,.237,1.186c.02.076.04.153.062.23.109.4.236.807.387,1.207.016.045.035.087.052.131.15.389.319.776.5,1.156.016.033.028.067.044.1.008.017.019.034.028.052q.223.445.473.877c.035.06.073.118.109.177.136.227.277.452.424.671.062.092.125.182.189.272q.2.281.406.552c.068.087.135.175.205.261.16.2.326.391.5.579.039.044.076.091.116.135l.032.033c.11.118.225.229.338.341.087.087.171.176.259.259.121.114.246.219.369.326C508.732,529.4,508.815,529.482,508.9,529.552Z" transform="translate(-362.633 -127.166)" fill="#858585"/>
        <path id="Tracé_31" data-name="Tracé 31" d="M612.942,561.86l-81.385-46.988L509.836,527.5l81.384,46.988c1.79,1.033,3.41,1.129,4.58.45l21.722-12.624C616.353,562.989,614.732,562.893,612.942,561.86Z" transform="translate(-362.255 -124.196)" fill="#969696"/>
        <path id="Tracé_32" data-name="Tracé 32" d="M509.07,469.922c.141.115.287.22.431.326.072.053.142.112.216.163.219.152.441.294.666.425l21.722-12.624q-.338-.2-.666-.425c-.076-.052-.149-.114-.224-.169-.141-.1-.284-.207-.422-.32-.087-.07-.17-.149-.254-.222-.124-.107-.249-.211-.37-.325-.088-.083-.172-.173-.259-.259-.113-.113-.227-.223-.338-.342-.05-.054-.1-.113-.148-.168q-.254-.281-.5-.578c-.069-.086-.137-.174-.205-.263q-.209-.269-.4-.551c-.064-.09-.129-.181-.19-.273-.147-.218-.286-.441-.422-.666-.036-.061-.076-.12-.112-.182q-.25-.43-.472-.876c-.026-.051-.048-.1-.073-.154-.184-.38-.353-.766-.5-1.155-.017-.042-.036-.086-.052-.13-.151-.4-.277-.8-.387-1.207-.021-.077-.041-.154-.062-.231a11.656,11.656,0,0,1-.237-1.185c-.01-.068-.016-.134-.024-.2a9.648,9.648,0,0,1-.084-1.212l.1-35.078c0-.189.013-.367.025-.545s.035-.371.062-.548c.012-.077.02-.157.034-.232a5.786,5.786,0,0,1,.172-.7c.005-.017.013-.031.019-.047a4.594,4.594,0,0,1,.233-.57c.031-.062.065-.118.1-.177a4.061,4.061,0,0,1,.224-.361c.041-.058.084-.114.128-.169a3.725,3.725,0,0,1,.283-.308c.044-.043.085-.087.131-.126a3.042,3.042,0,0,1,.466-.339l-21.722,12.624a2.992,2.992,0,0,0-.466.339c-.046.039-.087.084-.131.126a3.42,3.42,0,0,0-.283.308c-.022.029-.05.05-.071.079s-.036.062-.056.09a3.843,3.843,0,0,0-.224.361c-.033.06-.067.116-.1.177a4.522,4.522,0,0,0-.234.571c-.005.016-.013.029-.018.045a5.767,5.767,0,0,0-.172.7c-.014.074-.022.155-.034.232-.027.177-.048.359-.062.548,0,.045-.012.084-.014.13-.007.135-.012.274-.012.416l-.1,35.078a9.643,9.643,0,0,0,.084,1.213c.008.067.015.133.024.2a11.661,11.661,0,0,0,.237,1.186c.02.078.04.153.062.231.109.4.236.807.387,1.207.016.044.035.086.052.13.15.389.319.775.5,1.155.017.033.029.068.045.1.008.017.019.034.029.052q.222.445.472.876c.036.062.075.12.112.182.136.225.275.448.422.666.062.092.125.182.189.273.132.187.267.37.406.551.068.088.135.175.205.261q.242.3.5.581c.039.044.075.09.115.133.01.012.021.021.032.033.112.12.229.233.343.348.085.084.168.172.254.253.121.115.248.221.372.328C508.9,469.775,508.985,469.852,509.07,469.922Z" transform="translate(-362.623 -130.909)" fill="#858585"/>
        <g id="Groupe_17" data-name="Groupe 17" transform="translate(16.152 22.981)">
          <g id="Groupe_16" data-name="Groupe 16" clip-path="url(#clip-path-3)">
            <g id="Groupe_15" data-name="Groupe 15">
              <path id="Tracé_33" data-name="Tracé 33" d="M386.169,181.514l21.722-12.622a10.159,10.159,0,0,0,1.01,4.585L387.179,186.1a10.164,10.164,0,0,1-1.01-4.586" transform="translate(-386.169 -168.892)" fill="#8f8f8f"/>
              <path id="Tracé_34" data-name="Tracé 34" d="M387.119,185.83l21.722-12.624a9.445,9.445,0,0,0,1.548,2.239l-21.722,12.624a9.489,9.489,0,0,1-1.548-2.239" transform="translate(-386.109 -168.621)" fill="#8a8a8a"/>
              <path id="Tracé_35" data-name="Tracé 35" d="M388.576,187.937,410.3,175.313a11.262,11.262,0,0,0,2.645,2.082c1.655.955,3.032,1.274,3.965.732l-21.722,12.624c-.933.541-2.31.223-3.965-.732a11.29,11.29,0,0,1-2.645-2.082" transform="translate(-386.018 -168.489)" fill="#858585"/>
            </g>
          </g>
        </g>
        <g id="Groupe_20" data-name="Groupe 20" transform="translate(22.42 26.952)">
          <g id="Groupe_19" data-name="Groupe 19" clip-path="url(#clip-path-4)">
            <g id="Groupe_18" data-name="Groupe 18">
              <path id="Tracé_37" data-name="Tracé 37" d="M392.477,185.251,414.2,172.629c0,.074,0,.145-.005.213l-21.723,12.624q.006-.1.006-.214" transform="translate(-392.042 -172.629)" fill="#8f8f8f"/>
              <path id="Tracé_38" data-name="Tracé 38" d="M392.486,185.453l21.723-12.624a1.643,1.643,0,0,1-.248.891l-21.722,12.624a1.635,1.635,0,0,0,.247-.891" transform="translate(-392.056 -172.616)" fill="#8a8a8a"/>
              <path id="Tracé_39" data-name="Tracé 39" d="M392.25,186.291l21.722-12.624a.625.625,0,0,1-.183.166l-21.722,12.622a.606.606,0,0,0,.183-.165" transform="translate(-392.067 -172.564)" fill="#858585"/>
            </g>
          </g>
        </g>
        <g id="Groupe_21" data-name="Groupe 21" transform="translate(16.152 14.652)">
          <path id="Tracé_41" data-name="Tracé 41" d="M386.193,173.679l21.722-12.623-.024,8.328-21.722,12.623Z" transform="translate(-386.169 -161.055)" fill="#969696"/>
        </g>
        <g id="Groupe_22" data-name="Groupe 22" transform="translate(26.905 34.818)">
          <path id="Tracé_42" data-name="Tracé 42" d="M396.287,192.654l21.722-12.623,4.038,2.331-21.722,12.623Z" transform="translate(-396.287 -180.03)" fill="#888"/>
        </g>
        <g id="Groupe_23" data-name="Groupe 23" transform="translate(267.849 444.202)">
          <path id="Tracé_43" data-name="Tracé 43" d="M623.008,577.86l21.722-12.623-.007,2.6L623,580.455Z" transform="translate(-623 -565.237)" fill="#969696"/>
        </g>
        <g id="Groupe_24" data-name="Groupe 24" transform="translate(22.856 18.523)">
          <path id="Tracé_44" data-name="Tracé 44" d="M392.5,177.321,414.223,164.7l-.024,8.429L392.477,185.75Z" transform="translate(-392.477 -164.697)" fill="#969696"/>
        </g>
        <g id="Groupe_25" data-name="Groupe 25" transform="translate(32.493 34.211)">
          <path id="Tracé_45" data-name="Tracé 45" d="M401.545,192.083l21.722-12.623,1.517,4.709-21.722,12.623Z" transform="translate(-401.545 -179.459)" fill="#999"/>
        </g>
        <g id="Groupe_26" data-name="Groupe 26" transform="translate(26.905 29.726)">
          <path id="Tracé_46" data-name="Tracé 46" d="M399.775,187.863,421.5,175.239l-3.488,5.092-21.722,12.623Z" transform="translate(-396.287 -175.239)" fill="#898989"/>
        </g>
        <g id="Groupe_27" data-name="Groupe 27" transform="translate(34.01 38.92)">
          <path id="Tracé_47" data-name="Tracé 47" d="M402.972,196.514l21.722-12.623,4.124,2.381L407.1,198.895Z" transform="translate(-402.972 -183.89)" fill="#888"/>
        </g>
        <g id="Groupe_28" data-name="Groupe 28" transform="translate(27.1 20.959)">
          <path id="Tracé_48" data-name="Tracé 48" d="M396.471,179.613l21.722-12.623,3.293,8.767L399.763,188.38Z" transform="translate(-396.471 -166.99)" fill="#999"/>
        </g>
        <g id="Groupe_29" data-name="Groupe 29" transform="translate(267.875 434.675)">
          <path id="Tracé_49" data-name="Tracé 49" d="M623.033,568.9l21.722-12.623-.007,2.6L623.026,571.49Z" transform="translate(-623.026 -556.272)" fill="#969696"/>
        </g>
        <path id="Tracé_50" data-name="Tracé 50" d="M613.111,502.229l-81.385-46.987-21.722,12.624,81.385,46.987c1.79,1.033,3.41,1.13,4.579.45l21.723-12.622C616.522,503.359,614.9,503.262,613.111,502.229Z" transform="translate(-362.244 -127.938)" fill="#969696"/>
        <path id="Tracé_51" data-name="Tracé 51" d="M443.374,255.609q-.63-.363-1.252-.76c-.136-.087-.27-.182-.406-.27-.277-.182-.555-.362-.829-.554-.164-.114-.324-.235-.487-.352-.243-.176-.488-.35-.73-.531-.17-.13-.339-.267-.509-.4-.23-.18-.46-.357-.689-.544-.172-.14-.342-.289-.514-.434-.22-.186-.442-.37-.66-.562-.176-.154-.349-.315-.523-.473-.21-.191-.421-.379-.629-.575-.176-.166-.35-.338-.524-.508-.2-.2-.4-.39-.6-.59-.175-.175-.346-.357-.52-.537-.194-.2-.39-.4-.582-.609-.126-.135-.25-.275-.375-.412-.292-.321-.582-.645-.868-.976-.138-.158-.274-.319-.41-.479q-.419-.5-.829-1c-.117-.146-.236-.29-.352-.437q-.572-.725-1.125-1.472l-.02-.028q-.54-.735-1.059-1.492c-.109-.159-.216-.321-.324-.481q-.367-.545-.723-1.1c-.115-.18-.23-.361-.343-.543q-.359-.572-.7-1.155c-.091-.154-.185-.307-.275-.462q-.47-.807-.916-1.629c-.043-.079-.083-.159-.124-.239q-.379-.708-.737-1.424c-.071-.142-.139-.286-.209-.428-.366-.746-.718-1.5-1.049-2.255-.011-.023-.019-.047-.03-.07-.324-.746-.628-1.5-.917-2.252-.047-.122-.1-.243-.141-.366q-.416-1.11-.777-2.224-.07-.217-.138-.434c-.237-.752-.459-1.5-.657-2.256-.024-.092-.046-.184-.069-.276q-.284-1.1-.509-2.2c-.016-.081-.036-.163-.052-.243-.149-.75-.273-1.5-.379-2.24-.02-.142-.041-.285-.06-.427-.1-.731-.174-1.458-.227-2.18-.008-.124-.015-.248-.022-.371-.048-.753-.079-1.5-.077-2.241l.046-16.163-21.722,12.624-.046,16.163c0,.74.029,1.488.077,2.241.007.123.013.247.022.371.053.722.131,1.45.227,2.181.018.141.039.283.06.424.106.744.231,1.491.379,2.242.016.081.036.162.052.243q.225,1.1.509,2.195c.023.092.045.185.069.277.2.751.419,1.5.656,2.255.047.145.092.29.139.436.242.743.5,1.485.778,2.224.045.121.094.241.14.362.289.757.593,1.51.919,2.259l.027.064c.331.758.684,1.509,1.05,2.256.038.079.071.158.109.236s.067.128.1.192q.357.716.737,1.424c.041.08.082.16.124.239q.445.823.916,1.629c.09.155.184.308.275.463.231.387.463.772.7,1.153.114.183.23.365.345.546q.354.552.719,1.094c.109.163.217.325.327.486.345.5.7,1,1.057,1.491l.02.028q.55.748,1.124,1.471c.117.148.236.292.354.439.273.339.548.674.829,1,.135.16.271.319.408.477q.429.5.869.977c.087.1.171.2.259.291.038.041.078.081.116.121.192.206.387.407.582.609.172.18.344.36.52.537.2.2.4.392.6.588.176.17.351.343.528.511.205.192.413.379.621.568.177.16.353.323.531.48.217.19.436.373.655.558.173.146.344.3.519.437.227.187.459.365.689.544.17.133.338.27.509.4.242.183.487.356.73.531.163.117.323.239.487.353.269.187.54.363.811.542.142.092.283.191.425.282q.622.4,1.251.76l47.336,27.329,21.722-12.624Z" transform="translate(-369.293 -144.087)" fill="#888"/>
        <path id="Tracé_52" data-name="Tracé 52" d="M509.24,410.291c.14.116.286.221.43.327.072.053.142.112.216.162.219.153.441.3.666.425l21.722-12.624c-.225-.13-.447-.272-.666-.424-.073-.051-.143-.109-.216-.163-.145-.106-.289-.211-.43-.326-.086-.07-.168-.148-.252-.22-.124-.108-.25-.214-.372-.328-.086-.082-.169-.169-.254-.254-.115-.115-.232-.227-.343-.348-.05-.053-.1-.111-.146-.165-.17-.189-.337-.382-.5-.581q-.1-.129-.2-.261-.209-.271-.407-.552c-.064-.09-.128-.181-.189-.272-.146-.218-.286-.441-.422-.667-.036-.061-.076-.12-.112-.182q-.25-.43-.473-.876c-.024-.051-.047-.1-.071-.152q-.277-.571-.5-1.154c-.017-.045-.037-.088-.054-.133-.15-.4-.275-.8-.386-1.206l-.062-.231a11.7,11.7,0,0,1-.237-1.186c-.01-.067-.016-.133-.024-.2a9.679,9.679,0,0,1-.084-1.213l.1-35.078c0-.189.013-.368.025-.545s.035-.371.062-.548c.012-.078.02-.157.034-.233a5.787,5.787,0,0,1,.172-.7c.005-.017.014-.031.019-.048a4.63,4.63,0,0,1,.233-.568c.031-.062.066-.119.1-.179a3.685,3.685,0,0,1,.223-.36c.041-.058.084-.115.129-.169a3.252,3.252,0,0,1,.282-.308c.044-.042.085-.087.131-.128a3.06,3.06,0,0,1,.464-.337v0h0l-21.722,12.624a3.2,3.2,0,0,0-.465.339c-.046.039-.087.085-.131.128a3.374,3.374,0,0,0-.282.307c-.023.029-.051.05-.072.08s-.036.062-.056.09a3.593,3.593,0,0,0-.223.36c-.033.06-.068.116-.1.179a4.571,4.571,0,0,0-.233.569c-.006.016-.014.031-.019.047a5.774,5.774,0,0,0-.172.7c-.014.075-.022.155-.034.233-.027.177-.048.358-.062.548,0,.045-.012.084-.014.129-.007.136-.012.274-.012.416l-.1,35.078a9.644,9.644,0,0,0,.084,1.213c.008.067.015.134.024.2a11.66,11.66,0,0,0,.237,1.186c.02.077.04.153.062.23.109.4.236.807.387,1.208.016.044.035.086.052.13.15.389.319.775.5,1.154.017.034.029.069.045.1s.02.035.029.053q.222.443.472.875c.036.062.076.121.112.182.136.226.275.448.422.666.062.092.125.183.189.273.132.188.267.371.406.551.068.088.136.176.205.263.162.2.327.391.5.579.039.044.075.091.116.135l.032.033c.112.119.227.231.341.344.086.086.169.174.256.256.121.115.248.22.372.328C509.072,410.144,509.154,410.222,509.24,410.291Z" transform="translate(-362.612 -134.651)" fill="#858585"/>
        <g id="Groupe_30" data-name="Groupe 30" transform="translate(32.586 24.951)">
          <path id="Tracé_53" data-name="Tracé 53" d="M403.061,183.37l21.722-12.623-1.428,2.705-21.722,12.623Z" transform="translate(-401.633 -170.746)" fill="#8c8c8c"/>
        </g>
        <g id="Groupe_31" data-name="Groupe 31" transform="translate(267.849 446.797)">
          <path id="Tracé_54" data-name="Tracé 54" d="M623,580.3l21.722-12.623,17.344,10.013-21.722,12.623Z" transform="translate(-623 -567.679)" fill="#888"/>
        </g>
        <g id="Groupe_32" data-name="Groupe 32" transform="translate(267.902 425.139)">
          <path id="Tracé_55" data-name="Tracé 55" d="M623.059,559.923,644.781,547.3l-.007,2.6-21.722,12.623Z" transform="translate(-623.051 -547.3)" fill="#969696"/>
        </g>
        <path id="Tracé_56" data-name="Tracé 56" d="M439.439,196.891c.051-.107.1-.218.15-.328a15.779,15.779,0,0,0,.653-1.671c.007-.023.013-.048.02-.071.183-.574.335-1.182.467-1.807.028-.128.056-.253.081-.383q.185-.956.291-1.988c.013-.131.021-.267.033-.4.022-.27.052-.535.067-.812q.037-.693.039-1.418c0-.812-.036-1.635-.1-2.463-.021-.271-.057-.544-.085-.816-.056-.564-.12-1.13-.205-1.7-.048-.321-.106-.643-.164-.965-.094-.531-.2-1.063-.311-1.6-.073-.333-.15-.664-.232-1-.131-.538-.276-1.074-.429-1.613-.091-.32-.181-.639-.28-.96-.182-.586-.382-1.17-.589-1.755-.094-.267-.18-.532-.278-.8-.316-.846-.653-1.689-1.017-2.524-.028-.063-.06-.124-.087-.188-.307-.7-.626-1.388-.965-2.073-.044-.088-.091-.175-.136-.265-.073-.146-.15-.289-.224-.434q-.537-1.046-1.12-2.07c-.065-.114-.126-.228-.192-.341-.431-.745-.884-1.476-1.352-2.2-.1-.163-.21-.322-.317-.484-.484-.729-.979-1.451-1.5-2.152l-.023-.031c-.511-.692-1.043-1.364-1.582-2.022-.12-.146-.238-.291-.359-.435-.5-.592-1-1.175-1.521-1.737-.051-.055-.105-.108-.156-.164s-.131-.136-.2-.205c-.6-.628-1.2-1.238-1.823-1.821-.056-.053-.115-.1-.172-.157-.634-.59-1.28-1.156-1.937-1.693-.044-.035-.087-.068-.131-.1-.675-.546-1.36-1.065-2.056-1.55l-.079-.052c-.716-.5-1.442-.96-2.178-1.384-4.558-2.631-8.794-3.473-12.3-2.756a10.75,10.75,0,0,0-3.253,1.23l-21.722,12.624c3.975-2.309,9.48-1.983,15.557,1.526.735.424,1.461.888,2.178,1.384.026.018.052.034.079.052.7.484,1.381,1,2.055,1.547l.132.1c.658.537,1.3,1.1,1.937,1.693.057.053.116.1.172.157.621.582,1.226,1.191,1.822,1.819.066.069.133.137.2.207.573.613,1.13,1.249,1.676,1.9.121.143.239.289.358.435.543.661,1.076,1.335,1.589,2.029l.017.023c.518.7,1.012,1.423,1.5,2.153.106.16.213.321.317.484.468.722.92,1.454,1.352,2.2.066.113.126.226.191.339q.583,1.025,1.121,2.073c.074.145.151.287.223.432q.58,1.157,1.1,2.334c.029.066.062.129.089.193.366.836.7,1.679,1.017,2.524.1.265.184.53.278.8.206.585.407,1.17.589,1.757.1.32.188.641.28.961.153.538.3,1.076.429,1.612q.123.5.231,1c.117.535.22,1.067.314,1.6.056.322.115.643.163.963.085.57.149,1.136.205,1.7.028.272.064.545.085.816.063.829.1,1.652.1,2.462,0,.773-.046,1.511-.107,2.231-.011.133-.019.269-.033.4q-.1,1.031-.29,1.987c-.024.13-.053.256-.081.384-.133.625-.284,1.233-.467,1.806-.007.023-.013.049-.02.072a15.756,15.756,0,0,1-.653,1.67c-.049.111-.1.222-.151.331a13.891,13.891,0,0,1-.8,1.443c-.049.077-.1.148-.152.222a12.076,12.076,0,0,1-.875,1.156c-.053.062-.1.129-.156.188a10.96,10.96,0,0,1-1.09,1.055c-.086.072-.173.141-.26.211a10.533,10.533,0,0,1-1.249.868l21.722-12.624a10.326,10.326,0,0,0,1.249-.869c.087-.069.174-.137.259-.209a10.979,10.979,0,0,0,1.091-1.056c.054-.06.1-.126.156-.188.163-.19.328-.377.481-.581.138-.183.264-.38.393-.574.05-.075.1-.147.152-.223A13.8,13.8,0,0,0,439.439,196.891Z" transform="translate(-370.268 -147.269)" fill="#8f8f8f"/>
        <path id="Tracé_57" data-name="Tracé 57" d="M487.993,314.9l21.722-12.624a6.541,6.541,0,0,1-.859-.6c-.091-.074-.175-.167-.265-.248-.181-.163-.362-.321-.532-.5-.043-.045-.079-.1-.12-.143a9.676,9.676,0,0,1-.688-.866c-.082-.115-.155-.236-.232-.355-.164-.254-.317-.513-.457-.78-.081-.155-.163-.309-.236-.468-.057-.125-.113-.251-.165-.378-.084-.2-.157-.407-.225-.612-.042-.125-.085-.25-.12-.375-.063-.221-.111-.441-.153-.662-.021-.107-.049-.215-.065-.321a6.494,6.494,0,0,1-.078-.96l.015-5.044a4.8,4.8,0,0,1,.084-.887c.007-.037.018-.069.026-.105a3.369,3.369,0,0,1,.2-.621c.014-.033.026-.069.04-.1a2.517,2.517,0,0,1,.336-.519c.029-.034.058-.065.089-.1a2.038,2.038,0,0,1,.455-.375l-21.722,12.624a2.034,2.034,0,0,0-.455.375c-.031.032-.061.063-.089.1s-.055.055-.08.087a2.6,2.6,0,0,0-.256.431c-.015.032-.027.068-.04.1a3.387,3.387,0,0,0-.2.622c-.007.036-.019.068-.026.105a4.511,4.511,0,0,0-.076.614c-.005.089-.007.18-.007.273l-.015,5.044a6.348,6.348,0,0,0,.078.96c.016.106.044.213.064.32.044.221.09.441.154.663.035.126.078.25.12.375.068.205.141.409.225.612.052.128.106.253.165.378.038.083.068.168.108.25s.088.143.128.218c.141.268.293.525.456.779.078.12.151.24.233.356a9.5,9.5,0,0,0,.688.865c.035.039.064.086.1.125l.021.019c.17.183.352.341.532.5.089.081.173.173.265.248A6.539,6.539,0,0,0,487.993,314.9Z" transform="translate(-363.889 -138.482)" fill="#858585"/>
        <g id="Groupe_33" data-name="Groupe 33" transform="translate(268.03 380.096)">
          <path id="Tracé_58" data-name="Tracé 58" d="M623.179,517.54,644.9,504.916l-.007,2.6-21.722,12.623Z" transform="translate(-623.171 -504.916)" fill="#969696"/>
        </g>
        <path id="Tracé_59" data-name="Tracé 59" d="M536.479,316.983l-27.012-15.6-21.722,12.624,27.012,15.6a4.058,4.058,0,0,0,1.652.568,2.248,2.248,0,0,0,1.348-.274l21.722-12.622A2.977,2.977,0,0,1,536.479,316.983Z" transform="translate(-363.641 -137.595)" fill="#969696"/>
        <g id="Groupe_34" data-name="Groupe 34" transform="translate(268.057 370.561)">
          <path id="Tracé_60" data-name="Tracé 60" d="M623.2,508.568l21.722-12.623-.007,2.6L623.2,511.171Z" transform="translate(-623.197 -495.944)" fill="#969696"/>
        </g>
        <path id="Tracé_61" data-name="Tracé 61" d="M613.28,442.6,531.9,395.611l-21.722,12.624,81.385,46.988c1.79,1.033,3.41,1.129,4.581.45l21.722-12.624C616.691,443.729,615.07,443.632,613.28,442.6Z" transform="translate(-362.234 -131.681)" fill="#969696"/>
        <g id="Groupe_35" data-name="Groupe 35" transform="translate(268.084 361.031)">
          <path id="Tracé_62" data-name="Tracé 62" d="M623.23,499.6l21.722-12.623-.007,2.6L623.222,502.2Z" transform="translate(-623.222 -486.978)" fill="#969696"/>
        </g>
        <path id="Tracé_63" data-name="Tracé 63" d="M540.789,345.392l21.722-12.624a5.84,5.84,0,0,1-.775-.54c-.085-.069-.162-.154-.244-.228-.162-.146-.324-.288-.476-.451-.038-.041-.072-.09-.111-.133a8.6,8.6,0,0,1-.62-.78c-.073-.1-.14-.213-.209-.32-.148-.23-.286-.464-.412-.706-.073-.139-.148-.278-.213-.421-.052-.112-.1-.225-.149-.339-.075-.184-.142-.368-.2-.554-.037-.113-.077-.224-.108-.337-.056-.2-.1-.4-.138-.6-.018-.1-.044-.192-.057-.288a5.768,5.768,0,0,1-.07-.865l.017-6a3.966,3.966,0,0,1,.043-.448,3.786,3.786,0,0,1,.1-.593c.027-.1.056-.189.089-.278a2.555,2.555,0,0,1,.234-.46,2.163,2.163,0,0,1,.149-.229c.025-.031.053-.06.08-.088a1.876,1.876,0,0,1,.411-.338L538.129,330.4a1.849,1.849,0,0,0-.41.338c-.028.029-.055.056-.081.088s-.051.049-.072.079-.048.1-.076.15a2.493,2.493,0,0,0-.234.46c-.034.089-.063.181-.089.278a3.756,3.756,0,0,0-.1.593c-.007.072-.032.129-.036.2s-.006.161-.006.244l-.017,6a5.768,5.768,0,0,0,.07.865c.014.1.038.191.057.288.039.2.082.4.138.6.033.113.071.224.108.337.062.186.129.37.2.554.048.115.1.226.149.34.034.073.061.15.1.223s.08.129.115.2c.128.242.266.476.413.706.07.108.135.216.209.32a8.983,8.983,0,0,0,.621.782c.032.035.057.078.09.112l.019.018c.153.166.319.31.482.457.081.072.155.155.238.222A5.751,5.751,0,0,0,540.789,345.392Z" transform="translate(-360.55 -136.566)" fill="#858585"/>
        <g id="Groupe_36" data-name="Groupe 36" transform="translate(267.875 437.27)">
          <path id="Tracé_64" data-name="Tracé 64" d="M623.026,571.337l21.722-12.623,91.983,53.107-21.722,12.623Z" transform="translate(-623.026 -558.714)" fill="#888"/>
        </g>
        <g id="Groupe_37" data-name="Groupe 37" transform="translate(267.902 427.742)">
          <path id="Tracé_65" data-name="Tracé 65" d="M623.051,562.372l21.722-12.623,85.2,49.189-21.722,12.623Z" transform="translate(-623.051 -549.749)" fill="#888"/>
        </g>
        <g id="Groupe_38" data-name="Groupe 38" transform="translate(268.217 314.249)">
          <path id="Tracé_66" data-name="Tracé 66" d="M623.354,455.582l21.722-12.623-.007,2.6-21.722,12.623Z" transform="translate(-623.347 -442.959)" fill="#969696"/>
        </g>
        <g id="Groupe_39" data-name="Groupe 39" transform="translate(268.03 382.691)">
          <path id="Tracé_67" data-name="Tracé 67" d="M623.171,519.982l21.722-12.623,73.887,42.659-21.722,12.623Z" transform="translate(-623.171 -507.358)" fill="#888"/>
        </g>
        <g id="Groupe_40" data-name="Groupe 40" transform="translate(268.057 373.163)">
          <path id="Tracé_68" data-name="Tracé 68" d="M623.2,511.017l21.722-12.623,88.21,50.928-21.722,12.623Z" transform="translate(-623.197 -498.393)" fill="#888"/>
        </g>
        <g id="Groupe_41" data-name="Groupe 41" transform="translate(268.084 363.628)">
          <path id="Tracé_69" data-name="Tracé 69" d="M623.222,502.045l21.722-12.623,47.5,27.423L670.72,529.468Z" transform="translate(-623.222 -489.421)" fill="#888"/>
        </g>
        <g id="Groupe_42" data-name="Groupe 42" transform="translate(268.244 304.722)">
          <path id="Tracé_70" data-name="Tracé 70" d="M623.38,446.617,645.1,433.994l-.007,2.6-21.722,12.623Z" transform="translate(-623.373 -433.994)" fill="#969696"/>
        </g>
        <g id="Groupe_43" data-name="Groupe 43" transform="translate(268.271 295.194)">
          <path id="Tracé_71" data-name="Tracé 71" d="M623.405,437.652l21.722-12.623-.007,2.6L623.4,440.249Z" transform="translate(-623.398 -425.029)" fill="#969696"/>
        </g>
        <g id="Groupe_44" data-name="Groupe 44" transform="translate(268.217 316.847)">
          <path id="Tracé_72" data-name="Tracé 72" d="M623.347,458.026,645.069,445.4l59.562,34.388-21.722,12.623Z" transform="translate(-623.347 -445.402)" fill="#888"/>
        </g>
        <g id="Groupe_45" data-name="Groupe 45" transform="translate(268.244 307.319)">
          <path id="Tracé_73" data-name="Tracé 73" d="M623.373,449.061l21.722-12.623,88.21,50.928-21.722,12.623Z" transform="translate(-623.373 -436.437)" fill="#888"/>
        </g>
        <path id="Tracé_74" data-name="Tracé 74" d="M772.464,602.732l-.259,91.255c0,.59-.034,1.154-.081,1.7-.008.1-.015.2-.026.3q-.08.789-.222,1.52c-.018.1-.04.194-.062.292a14.1,14.1,0,0,1-.357,1.383c-.005.017-.01.035-.015.052a12.27,12.27,0,0,1-.5,1.277c-.038.084-.076.169-.115.252a10.719,10.719,0,0,1-.609,1.1c-.037.058-.078.113-.116.169a9.227,9.227,0,0,1-.67.884c-.04.047-.078.1-.119.143a8.383,8.383,0,0,1-.833.807c-.065.055-.132.108-.2.161a8.068,8.068,0,0,1-.952.663h0l21.722-12.624a7.9,7.9,0,0,0,.954-.665c.067-.052.134-.105.2-.159a8.273,8.273,0,0,0,.833-.808c.041-.046.079-.1.119-.143.124-.145.251-.288.368-.443s.2-.292.3-.44c.039-.057.08-.112.117-.17a10.632,10.632,0,0,0,.609-1.1c.039-.083.076-.168.115-.252a12.23,12.23,0,0,0,.5-1.276c.006-.017.01-.036.016-.053.139-.439.255-.9.356-1.382.021-.1.044-.194.063-.294q.14-.73.221-1.519c.011-.1.017-.2.026-.3.018-.207.04-.411.051-.624q.029-.529.03-1.081l.259-91.255Z" transform="translate(-346.093 -119.473)" fill="#969696"/>
        <g id="Groupe_46" data-name="Groupe 46" transform="translate(268.271 297.791)">
          <path id="Tracé_75" data-name="Tracé 75" d="M623.4,440.1l21.722-12.623L743.888,484.5,722.167,497.12Z" transform="translate(-623.398 -427.473)" fill="#888"/>
        </g>
        <path id="Tracé_76" data-name="Tracé 76" d="M848.236,697.241q-.63-.363-1.251-.76c-.14-.089-.279-.186-.418-.279-.273-.178-.547-.357-.817-.545-.165-.114-.325-.236-.489-.354-.243-.174-.487-.347-.728-.529-.17-.13-.338-.266-.507-.4-.232-.181-.463-.358-.692-.545-.17-.139-.338-.286-.507-.428-.223-.188-.447-.374-.667-.569-.173-.152-.344-.31-.515-.465-.213-.193-.426-.385-.637-.583-.173-.161-.343-.33-.513-.5-.206-.2-.412-.4-.614-.6-.172-.173-.341-.351-.511-.527-.2-.2-.4-.408-.59-.617-.125-.134-.248-.272-.372-.408-.293-.323-.586-.649-.873-.981q-.2-.236-.407-.475-.421-.5-.83-1.008c-.118-.145-.236-.289-.352-.436-.383-.485-.759-.974-1.127-1.473l-.016-.022q-.542-.738-1.063-1.5c-.108-.158-.215-.32-.322-.479q-.368-.547-.724-1.1-.174-.269-.343-.541-.359-.574-.7-1.156c-.092-.154-.186-.307-.276-.463q-.47-.807-.915-1.628c-.044-.08-.084-.161-.127-.242q-.378-.706-.734-1.421c-.071-.142-.14-.287-.21-.43-.365-.746-.718-1.5-1.049-2.254l-.029-.069c-.325-.747-.629-1.5-.918-2.254-.047-.121-.095-.242-.14-.363q-.416-1.11-.778-2.224c-.047-.146-.092-.29-.138-.436-.237-.751-.459-1.5-.657-2.256-.024-.091-.045-.182-.068-.273q-.284-1.1-.51-2.2c-.016-.081-.035-.161-.051-.241-.15-.751-.273-1.5-.38-2.242-.02-.141-.04-.284-.06-.425q-.145-1.1-.227-2.181c-.008-.123-.014-.247-.022-.371-.048-.752-.079-1.5-.077-2.24l.057-20.131c0-.856-.033-1.722-.088-2.594-.01-.142-.016-.285-.027-.428-.062-.835-.151-1.677-.263-2.523-.022-.165-.046-.328-.069-.493-.123-.86-.267-1.724-.44-2.592-.018-.095-.041-.189-.061-.285q-.26-1.266-.588-2.537c-.028-.107-.052-.215-.08-.322-.23-.869-.486-1.739-.76-2.608-.053-.169-.105-.337-.16-.5q-.419-1.29-.9-2.573c-.053-.141-.109-.282-.164-.423-.336-.875-.687-1.746-1.063-2.612l-.031-.073c-.384-.877-.793-1.746-1.216-2.611-.044-.09-.082-.183-.127-.272s-.078-.148-.115-.223q-.416-.834-.857-1.657c-.047-.088-.091-.177-.139-.266q-.513-.952-1.061-1.888c-.1-.177-.21-.353-.315-.529q-.4-.676-.817-1.342-.2-.314-.4-.626c-.274-.427-.553-.849-.835-1.27-.125-.186-.25-.374-.377-.56-.4-.583-.81-1.163-1.229-1.731l-.017-.024q-.638-.864-1.3-1.7c-.137-.173-.276-.343-.414-.514q-.472-.585-.954-1.156-.234-.279-.472-.553-.5-.575-1.01-1.133c-.1-.111-.2-.225-.3-.335-.044-.047-.089-.091-.133-.139-.224-.24-.453-.475-.679-.71-.2-.206-.4-.413-.6-.615-.232-.234-.467-.459-.7-.687-.2-.2-.4-.394-.6-.586-.24-.225-.484-.444-.727-.664-.2-.183-.4-.369-.606-.548-.253-.222-.509-.435-.764-.65-.2-.167-.4-.339-.6-.5-.264-.216-.531-.422-.8-.63-.2-.153-.391-.311-.589-.461-.281-.213-.565-.414-.849-.619-.186-.134-.371-.273-.558-.4-.324-.225-.651-.439-.979-.654-.15-.1-.3-.2-.45-.3q-.72-.459-1.45-.881l-2.728-1.574-21.722,12.622,2.728,1.575q.728.421,1.45.881c.151.1.3.2.45.3.327.215.655.428.979.654.187.131.372.27.558.4.284.2.569.406.849.619.2.15.393.308.589.461.267.208.535.414.8.629.2.164.4.335.6.5.255.216.511.428.764.65.2.18.4.366.606.548.242.22.487.439.727.664.2.191.4.39.6.586.235.227.47.453.7.687.2.2.4.409.6.614.226.236.455.471.679.711.145.155.287.316.43.474q.51.558,1.009,1.133.239.274.473.553.485.571.955,1.157c.137.171.276.34.412.512.441.559.877,1.125,1.3,1.7l.017.024c.419.569.826,1.147,1.227,1.731.129.185.253.374.378.561q.424.63.835,1.269c.133.208.266.417.4.626q.416.665.815,1.339c.105.177.214.354.318.533.362.623.717,1.252,1.06,1.886.048.088.094.18.14.269q.44.823.856,1.655c.082.164.16.329.241.494.423.864.832,1.733,1.215,2.611.012.024.021.05.032.075.376.864.727,1.734,1.062,2.607.055.142.112.285.166.428q.48,1.282.9,2.571c.054.168.107.336.16.5.274.869.53,1.739.76,2.608.028.107.052.215.08.322q.327,1.271.588,2.537c.019.095.043.19.061.285.173.868.317,1.731.44,2.591.023.166.047.331.069.5.112.846.2,1.687.263,2.522.011.143.017.286.025.428.055.873.091,1.739.089,2.594l-.057,20.131c0,.739.029,1.488.076,2.24.007.124.014.248.022.371q.081,1.084.227,2.181c.019.141.039.284.059.425.107.744.231,1.49.381,2.24.016.082.035.165.052.247q.225,1.094.508,2.194c.023.092.045.184.069.276.2.751.42,1.5.657,2.254.046.146.091.292.139.438q.362,1.114.777,2.222c.046.122.094.243.14.366.29.753.593,1.506.918,2.253l.029.069c.331.758.684,1.508,1.049,2.254.038.079.071.159.111.237s.067.129.1.193q.357.716.734,1.421c.043.081.083.161.126.242q.443.821.915,1.628c.09.156.185.309.276.464q.346.582.7,1.154.171.273.343.542.357.555.725,1.1c.107.159.214.321.322.479q.521.757,1.063,1.5l.016.022q.552.748,1.125,1.471c.117.149.236.294.355.441q.408.507.827,1,.2.241.409.479.429.494.869.976c.087.1.171.2.259.291.038.041.078.081.116.121.192.207.389.409.585.611.172.179.342.358.516.534.2.2.4.4.607.6.173.168.345.338.521.5.207.2.418.385.628.575.174.158.348.32.524.474.217.191.438.375.657.56.173.146.343.294.518.437.226.185.457.361.685.541.171.134.34.271.512.4.238.18.478.35.718.522.166.12.332.246.5.362.268.186.538.361.808.539.142.094.284.192.427.284q.622.4,1.251.76l46.542,26.871,21.722-12.624Z" transform="translate(-345.789 -119.729)" fill="#8f8f8f"/>
        <g id="Groupe_47" data-name="Groupe 47" transform="translate(537.028 613.666)">
          <path id="Tracé_77" data-name="Tracé 77" d="M876.283,737.316,898,724.692l7.54,13.061-21.722,12.623Z" transform="translate(-876.283 -724.692)" fill="#979797"/>
        </g>
        <g id="Groupe_50" data-name="Groupe 50" transform="translate(544.568 626.727)">
          <g id="Groupe_49" data-name="Groupe 49" clip-path="url(#clip-path-5)">
            <g id="Groupe_48" data-name="Groupe 48">
              <path id="Tracé_78" data-name="Tracé 78" d="M883.377,749.606,905.1,736.982a3.458,3.458,0,0,0,.446.61l-21.722,12.624a3.467,3.467,0,0,1-.446-.61" transform="translate(-883.377 -736.982)" fill="#8a8a8a"/>
              <path id="Tracé_79" data-name="Tracé 79" d="M883.8,750.18l21.722-12.624a2.55,2.55,0,0,0,.584.477,1.048,1.048,0,0,0,1.038.107L885.42,750.764a1.05,1.05,0,0,1-1.038-.107,2.547,2.547,0,0,1-.585-.477" transform="translate(-883.351 -736.946)" fill="#858585"/>
            </g>
          </g>
        </g>
        <g id="Groupe_53" data-name="Groupe 53" transform="translate(536.598 611.289)">
          <g id="Groupe_52" data-name="Groupe 52" clip-path="url(#clip-path-6)">
            <g id="Groupe_51" data-name="Groupe 51" transform="translate(0)">
              <path id="Tracé_81" data-name="Tracé 81" d="M876.3,735.079l21.722-12.624a.735.735,0,0,0-.229.2l-21.722,12.624a.723.723,0,0,1,.229-.2" transform="translate(-875.865 -722.455)" fill="#858585"/>
              <path id="Tracé_82" data-name="Tracé 82" d="M876.086,735.267l21.722-12.624a1.174,1.174,0,0,0-.206.645L875.88,735.912a1.176,1.176,0,0,1,.206-.645" transform="translate(-875.878 -722.443)" fill="#8a8a8a"/>
              <path id="Tracé_83" data-name="Tracé 83" d="M875.88,735.874,897.6,723.25a2.736,2.736,0,0,0,.312,1.318L876.192,737.19a2.743,2.743,0,0,1-.311-1.317" transform="translate(-875.878 -722.405)" fill="#8f8f8f"/>
              <path id="Tracé_84" data-name="Tracé 84" d="M876.173,737.112,897.9,724.49c.035.071.073.143.116.215L876.29,737.328c-.043-.071-.081-.143-.117-.216" transform="translate(-875.859 -722.327)" fill="#8a8a8a"/>
            </g>
          </g>
        </g>
        <g id="Groupe_56" data-name="Groupe 56" transform="translate(551.337 628.502)">
          <g id="Groupe_55" data-name="Groupe 55" clip-path="url(#clip-path-7)">
            <g id="Groupe_54" data-name="Groupe 54" transform="translate(0)">
              <path id="Tracé_86" data-name="Tracé 86" d="M890.164,751.276l21.723-12.624a.721.721,0,0,0-.221.2l-21.722,12.624a.73.73,0,0,1,.22-.2" transform="translate(-889.733 -738.652)" fill="#858585"/>
              <path id="Tracé_87" data-name="Tracé 87" d="M889.956,751.46l21.722-12.624a1.184,1.184,0,0,0-.207.651l-21.723,12.624a1.193,1.193,0,0,1,.208-.651" transform="translate(-889.746 -738.64)" fill="#8a8a8a"/>
              <path id="Tracé_88" data-name="Tracé 88" d="M889.748,752.073l21.723-12.624a2.753,2.753,0,0,0,.314,1.33L890.063,753.4a2.768,2.768,0,0,1-.315-1.33" transform="translate(-889.746 -738.602)" fill="#8f8f8f"/>
              <path id="Tracé_89" data-name="Tracé 89" d="M890.044,753.324,911.766,740.7c.033.067.069.135.107.2a3.526,3.526,0,0,0,.451.61L890.6,754.135a3.583,3.583,0,0,1-.45-.61c-.038-.067-.074-.135-.107-.2" transform="translate(-889.727 -738.523)" fill="#8a8a8a"/>
              <path id="Tracé_90" data-name="Tracé 90" d="M890.568,754.088l21.723-12.624a2.575,2.575,0,0,0,.587.48,1.053,1.053,0,0,0,1.039.108L892.2,754.675a1.05,1.05,0,0,1-1.039-.107,2.6,2.6,0,0,1-.588-.48" transform="translate(-889.694 -738.475)" fill="#858585"/>
            </g>
          </g>
        </g>
        <g id="Groupe_57" data-name="Groupe 57" transform="translate(540.132 610.465)">
          <path id="Tracé_92" data-name="Tracé 92" d="M879.2,738.109l21.722-12.623,6.678-3.805L885.881,734.3Z" transform="translate(-879.203 -721.68)" fill="gray"/>
        </g>
        <g id="Groupe_58" data-name="Groupe 58" transform="translate(551.696 613.286)">
          <path id="Tracé_93" data-name="Tracé 93" d="M890.084,736.958l21.722-12.623,6.628,11.488-21.722,12.623Z" transform="translate(-890.084 -724.334)" fill="#979797"/>
        </g>
        <g id="Groupe_59" data-name="Groupe 59" transform="translate(553.837 627.753)">
          <path id="Tracé_94" data-name="Tracé 94" d="M892.1,754.9l21.722-12.623,7.591-4.326-21.722,12.623Z" transform="translate(-892.099 -737.947)" fill="gray"/>
        </g>
        <g id="Groupe_62" data-name="Groupe 62" transform="translate(551.266 610.908)">
          <g id="Groupe_61" data-name="Groupe 61" transform="translate(0)" clip-path="url(#clip-path-8)">
            <g id="Groupe_60" data-name="Groupe 60" transform="translate(0)">
              <path id="Tracé_95" data-name="Tracé 95" d="M890.1,734.721,911.826,722.1a.711.711,0,0,0-.229.2L889.876,734.92a.712.712,0,0,1,.229-.2" transform="translate(-889.667 -722.097)" fill="#858585"/>
              <path id="Tracé_96" data-name="Tracé 96" d="M889.888,734.909l21.722-12.624a1.176,1.176,0,0,0-.206.645l-21.722,12.624a1.166,1.166,0,0,1,.206-.645" transform="translate(-889.679 -722.085)" fill="#8a8a8a"/>
              <path id="Tracé_97" data-name="Tracé 97" d="M889.682,735.516,911.4,722.892a2.737,2.737,0,0,0,.311,1.318l-21.722,12.622a2.73,2.73,0,0,1-.311-1.317" transform="translate(-889.68 -722.047)" fill="#8f8f8f"/>
              <path id="Tracé_98" data-name="Tracé 98" d="M889.975,736.754,911.7,724.132c.036.071.074.143.116.215L890.091,736.97c-.041-.071-.08-.143-.116-.216" transform="translate(-889.661 -721.969)" fill="#8a8a8a"/>
            </g>
          </g>
        </g>
        <path id="Tracé_100" data-name="Tracé 100" d="M930.286,752.992c.052-.107.1-.218.15-.328a15.766,15.766,0,0,0,.653-1.671c.007-.023.013-.048.02-.07.183-.575.334-1.182.467-1.808.028-.128.056-.254.081-.384q.185-.958.291-1.99c.013-.13.021-.264.032-.4.023-.272.053-.539.068-.818q.037-.692.038-1.415c0-.811-.035-1.634-.1-2.463-.021-.27-.057-.543-.085-.814-.056-.565-.12-1.132-.205-1.7-.048-.32-.106-.641-.163-.962-.095-.532-.2-1.065-.314-1.6-.072-.332-.149-.662-.23-.995-.132-.539-.277-1.077-.431-1.615-.091-.32-.18-.639-.278-.959-.182-.587-.383-1.171-.589-1.757-.094-.266-.18-.531-.279-.8-.316-.845-.651-1.687-1.016-2.523-.03-.066-.064-.132-.094-.2-.305-.692-.622-1.382-.96-2.063-.044-.089-.093-.176-.137-.265-.072-.146-.15-.289-.224-.435q-.536-1.046-1.12-2.07c-.065-.113-.125-.227-.191-.341-.432-.744-.885-1.476-1.352-2.2-.1-.162-.21-.322-.317-.482-.485-.73-.979-1.452-1.5-2.153l-.021-.027c-.511-.694-1.044-1.366-1.586-2.027-.119-.146-.237-.29-.358-.434-.5-.593-1-1.175-1.521-1.737-.051-.055-.1-.108-.156-.163-.065-.07-.132-.138-.2-.208-.6-.628-1.2-1.237-1.822-1.819l-.172-.157c-.634-.589-1.28-1.156-1.938-1.693-.043-.035-.086-.067-.13-.1-.675-.545-1.36-1.065-2.056-1.549-.027-.018-.053-.034-.079-.052-.716-.5-1.442-.959-2.178-1.384-6.076-3.508-11.58-3.832-15.555-1.523L873.018,717.47c3.975-2.309,9.479-1.985,15.555,1.523.735.425,1.461.888,2.178,1.384.026.018.052.034.079.052.7.485,1.381,1,2.054,1.548.045.035.089.068.133.1.657.536,1.3,1.1,1.936,1.691.057.054.116.105.174.159.62.582,1.225,1.191,1.821,1.818.066.07.133.138.2.208.573.612,1.131,1.248,1.676,1.9.121.143.241.29.36.437.541.659,1.073,1.331,1.585,2.023l.021.028c.517.7,1.011,1.423,1.494,2.153q.161.241.318.483c.467.722.919,1.453,1.352,2.2.066.113.128.228.192.342q.583,1.023,1.12,2.07c.074.145.151.288.223.433q.58,1.156,1.1,2.334c.028.065.061.129.089.193.365.835.7,1.678,1.017,2.524.1.265.184.53.277.795.207.586.408,1.171.59,1.758.1.319.187.639.278.959.154.539.3,1.078.432,1.615q.121.5.229.995c.117.535.219,1.068.314,1.6.056.32.115.641.161.961.086.571.149,1.137.206,1.7.028.271.064.544.084.814.064.829.1,1.653.1,2.464,0,.773-.045,1.51-.106,2.231-.011.133-.019.268-.033.4q-.1,1.031-.29,1.988c-.024.13-.053.256-.081.384-.133.626-.284,1.233-.466,1.807-.007.023-.013.048-.02.071a15.992,15.992,0,0,1-.651,1.67c-.05.11-.1.222-.151.329a13.822,13.822,0,0,1-.8,1.444c-.049.077-.1.147-.151.221a12.034,12.034,0,0,1-.876,1.157c-.052.061-.1.128-.155.187a10.967,10.967,0,0,1-1.09,1.055c-.085.072-.173.141-.26.21a10.426,10.426,0,0,1-1.248.868l21.722-12.623a10.525,10.525,0,0,0,1.249-.868c.087-.069.174-.138.259-.21a10.976,10.976,0,0,0,1.09-1.055c.053-.06.1-.127.155-.187.163-.19.328-.377.481-.58.138-.184.265-.383.394-.577.05-.074.1-.145.151-.221A13.772,13.772,0,0,0,930.286,752.992Z" transform="translate(-339.459 -112.364)" fill="#8f8f8f"/>
        <path id="Tracé_101" data-name="Tracé 101" d="M502.856,271.17c-4.643-2.68-8.848-2.927-11.885-1.162l-21.722,12.624c3.037-1.765,7.242-1.519,11.885,1.162L741.877,434.335,763.6,421.711Z" transform="translate(-364.802 -139.636)" fill="#969696"/>
        <path id="Tracé_102" data-name="Tracé 102" d="M787.651,462,562.287,331.883l-21.722,12.624L765.929,474.62a2.679,2.679,0,0,0,2.7.264l21.722-12.624A2.679,2.679,0,0,1,787.651,462Z" transform="translate(-360.326 -135.681)" fill="#969696"/>
        <path id="Tracé_103" data-name="Tracé 103" d="M751.127,407.184c.024-.39.055-.775.095-1.151.018-.169.039-.334.061-.5q.061-.486.138-.958c.028-.166.055-.331.085-.494.061-.324.13-.641.2-.953.031-.132.058-.267.09-.4.109-.433.229-.857.361-1.265.015-.047.032-.089.048-.135q.18-.542.387-1.056c.051-.125.106-.247.159-.371.111-.257.225-.51.346-.757.063-.129.128-.256.194-.382.125-.238.256-.47.392-.7.065-.109.13-.222.2-.329q.265-.418.553-.808c.031-.042.06-.088.091-.13.228-.3.47-.591.718-.867.073-.081.149-.155.223-.233.184-.193.371-.38.564-.56.092-.085.186-.167.279-.249.195-.169.393-.328.6-.482.089-.068.176-.138.267-.2.293-.209.593-.409.9-.59l-21.722,12.624c-.31.181-.61.379-.9.59-.09.064-.177.134-.267.2-.2.154-.4.313-.6.481-.095.082-.188.166-.281.251-.193.179-.38.365-.563.558-.074.078-.151.153-.224.234-.249.276-.49.563-.718.867l-.013.015c-.028.037-.052.079-.079.115q-.287.391-.553.808c-.068.107-.132.219-.2.329-.135.226-.266.458-.392.7-.066.125-.131.253-.193.382-.121.247-.236.5-.347.757-.052.124-.107.244-.158.371q-.207.515-.388,1.059c-.015.045-.033.087-.047.132-.133.409-.252.832-.361,1.266-.033.131-.061.267-.091.4-.072.311-.14.627-.2.95-.031.164-.06.329-.086.5q-.078.47-.138.956c-.021.167-.043.333-.061.5-.039.374-.07.757-.095,1.144-.006.1-.019.2-.024.3,0,.023,0,.05,0,.073-.024.482-.039.972-.04,1.474l-.02,7.033,21.722-12.624.02-7.033c0-.5.016-.993.04-1.475C751.107,407.423,751.119,407.305,751.127,407.184Z" transform="translate(-348.479 -131.806)" fill="#858585"/>
        <path id="Tracé_104" data-name="Tracé 104" d="M796.9,458.606c-.016-.206-.044-.415-.065-.622-.044-.433-.091-.865-.157-1.3-.036-.244-.081-.49-.124-.736-.071-.406-.15-.813-.239-1.222q-.083-.381-.176-.762c-.1-.411-.212-.823-.328-1.234-.07-.244-.138-.489-.214-.733-.138-.448-.292-.9-.45-1.342-.072-.2-.137-.408-.214-.611-.241-.647-.5-1.291-.778-1.93-.019-.045-.041-.088-.062-.133-.236-.537-.481-1.07-.743-1.6-.022-.046-.05-.089-.072-.135q-.579-1.157-1.23-2.281c-.094-.159-.194-.312-.29-.471q-.528-.882-1.1-1.734c-.162-.241-.327-.475-.494-.712q-.513-.73-1.054-1.432c-.177-.23-.353-.458-.535-.682q-.626-.775-1.288-1.5c-.1-.115-.2-.241-.3-.354-.028-.03-.057-.057-.086-.087-.288-.309-.588-.6-.885-.9-.222-.222-.439-.453-.666-.665-.317-.3-.643-.574-.968-.854-.219-.19-.433-.39-.655-.572-.363-.3-.738-.568-1.111-.842-.191-.141-.377-.3-.571-.43-.57-.4-1.148-.766-1.733-1.1l-29.266-16.9-21.722,12.624,29.265,16.9q.88.509,1.734,1.105c.193.135.38.289.572.43.372.274.746.544,1.109.842.223.182.439.384.659.575.323.28.648.554.964.85.226.214.444.445.667.666.3.3.6.587.885.9.132.141.256.293.386.437.441.489.873.989,1.291,1.507.181.223.356.452.532.68q.542.7,1.056,1.434c.166.235.332.47.493.71.382.569.747,1.15,1.1,1.739.094.157.194.309.286.467q.652,1.122,1.23,2.281.43.859.816,1.733c.02.045.043.088.062.132.28.64.537,1.284.778,1.931.075.2.141.408.214.611.157.446.31.894.45,1.341.076.246.143.49.214.735.118.411.228.821.328,1.232q.094.383.176.763c.089.408.168.816.239,1.222.044.245.088.492.124.737.066.437.114.869.157,1.3.021.207.049.416.065.622.048.634.078,1.264.075,1.884l-.387,136.3,21.722-12.622.387-136.3C796.973,459.87,796.943,459.241,796.9,458.606Z" transform="translate(-348.479 -130.481)" fill="#8f8f8f"/>
        <path id="Tracé_105" data-name="Tracé 105" d="M774.926,391.328c-7.711-4.452-14.711-4.858-19.769-1.918l-21.722,12.622c5.058-2.939,12.057-2.533,19.768,1.919l68.749,39.692,21.722-12.624Z" transform="translate(-348.22 -132.188)" fill="#969696"/>
        <g id="Groupe_65" data-name="Groupe 65" transform="translate(481.961 307.049)">
          <g id="Groupe_64" data-name="Groupe 64" transform="translate(0 0)" clip-path="url(#clip-path-9)">
            <g id="Groupe_63" data-name="Groupe 63">
              <path id="Tracé_106" data-name="Tracé 106" d="M826.649,448.808l21.722-12.624a3.833,3.833,0,0,0-1.141,1.023l-21.722,12.624a3.833,3.833,0,0,1,1.141-1.023" transform="translate(-824.403 -436.184)" fill="#858585"/>
              <path id="Tracé_107" data-name="Tracé 107" d="M825.573,449.771l21.722-12.624a6.151,6.151,0,0,0-1.092,3.41l-21.722,12.624a6.151,6.151,0,0,1,1.091-3.41" transform="translate(-824.467 -436.124)" fill="#8a8a8a"/>
              <path id="Tracé_108" data-name="Tracé 108" d="M824.482,452.98,846.2,440.356c-.008.162-.014.326-.014.5a14.969,14.969,0,0,0,1.671,6.5L826.139,459.97a14.953,14.953,0,0,1-1.671-6.5c0-.169.005-.334.014-.5" transform="translate(-824.468 -435.922)" fill="#8f8f8f"/>
              <path id="Tracé_109" data-name="Tracé 109" d="M826.04,459.558l21.722-12.624a18.339,18.339,0,0,0,2.937,4.294l-21.722,12.624a18.364,18.364,0,0,1-2.937-4.294" transform="translate(-824.369 -435.509)" fill="#8a8a8a"/>
              <path id="Tracé_110" data-name="Tracé 110" d="M828.8,463.6l21.722-12.624a13.342,13.342,0,0,0,3.068,2.507c2.133,1.231,4.069,1.343,5.469.529l-21.722,12.624c-1.4.814-3.336.7-5.469-.529A13.338,13.338,0,0,1,828.8,463.6" transform="translate(-824.196 -435.256)" fill="#858585"/>
            </g>
          </g>
        </g>
        <g id="Groupe_68" data-name="Groupe 68" transform="translate(493.742 316.087)">
          <g id="Groupe_67" data-name="Groupe 67" clip-path="url(#clip-path-10)">
            <g id="Groupe_66" data-name="Groupe 66">
              <path id="Tracé_112" data-name="Tracé 112" d="M836.46,457.31l21.722-12.622a10.418,10.418,0,0,1,.724,3.667c0,.126,0,.251-.011.372L837.173,461.35c.006-.121.01-.245.011-.372a10.43,10.43,0,0,0-.724-3.668" transform="translate(-835.496 -444.688)" fill="#8f8f8f"/>
              <path id="Tracé_113" data-name="Tracé 113" d="M837.179,461.112,858.9,448.488a4.626,4.626,0,0,1-.82,2.563l-21.722,12.624a4.626,4.626,0,0,0,.82-2.563" transform="translate(-835.502 -444.449)" fill="#8a8a8a"/>
              <path id="Tracé_114" data-name="Tracé 114" d="M836.41,463.524,858.131,450.9a2.879,2.879,0,0,1-.857.768l-21.722,12.624a2.88,2.88,0,0,0,.857-.768" transform="translate(-835.553 -444.298)" fill="#858585"/>
            </g>
          </g>
        </g>
        <g id="Groupe_71" data-name="Groupe 71" transform="translate(485.575 309)">
          <g id="Groupe_70" data-name="Groupe 70" transform="translate(0 0)" clip-path="url(#clip-path-11)">
            <g id="Groupe_69" data-name="Groupe 69">
              <path id="Tracé_116" data-name="Tracé 116" d="M827.868,451.034,849.59,438.41c1.051-.61,2.505-.526,4.108.4a9.961,9.961,0,0,1,2.291,1.872L834.267,453.3a9.941,9.941,0,0,0-2.292-1.872c-1.6-.925-3.055-1.009-4.106-.4" transform="translate(-827.868 -438.02)" fill="#858585"/>
              <path id="Tracé_117" data-name="Tracé 117" d="M833.889,453.147l21.722-12.624a13.122,13.122,0,0,1,1.056,1.3l-21.722,12.624a13.146,13.146,0,0,0-1.056-1.3" transform="translate(-827.49 -437.862)" fill="#8a8a8a"/>
            </g>
          </g>
        </g>
        <g id="Groupe_72" data-name="Groupe 72" transform="translate(495.35 314.326)">
          <path id="Tracé_119" data-name="Tracé 119" d="M837.066,455.655l21.722-12.623.4.685-21.722,12.623Z" transform="translate(-837.066 -443.031)" fill="#969696"/>
        </g>
        <g id="Groupe_73" data-name="Groupe 73" transform="translate(494.62 313.062)">
          <path id="Tracé_120" data-name="Tracé 120" d="M836.379,454.465,858.1,441.841l.4.691-21.722,12.623Z" transform="translate(-836.379 -441.841)" fill="#979797"/>
        </g>
        <g id="Groupe_74" data-name="Groupe 74" transform="translate(495.018 312.217)">
          <path id="Tracé_121" data-name="Tracé 121" d="M836.754,455.206l21.722-12.623,2.7-1.537L839.45,453.669Z" transform="translate(-836.754 -441.046)" fill="gray"/>
        </g>
        <g id="Groupe_77" data-name="Groupe 77" transform="translate(497.832 311.738)">
          <g id="Groupe_76" data-name="Groupe 76" transform="translate(0 0)" clip-path="url(#clip-path-12)">
            <g id="Groupe_75" data-name="Groupe 75">
              <path id="Tracé_122" data-name="Tracé 122" d="M839.4,453.25l21.722-12.624a.334.334,0,0,1,.333.034.826.826,0,0,1,.19.154l-21.723,12.624a.8.8,0,0,0-.189-.154.332.332,0,0,0-.333-.034" transform="translate(-839.401 -440.596)" fill="#858585"/>
              <path id="Tracé_123" data-name="Tracé 123" d="M839.892,453.426,861.615,440.8a1.149,1.149,0,0,1,.142.2c.01.018.019.035.028.053l-21.722,12.624-.028-.053a1.109,1.109,0,0,0-.143-.2" transform="translate(-839.37 -440.583)" fill="#8a8a8a"/>
              <path id="Tracé_124" data-name="Tracé 124" d="M840.053,453.66l21.722-12.624a.915.915,0,0,1,.1.436L840.155,454.1a.914.914,0,0,0-.1-.436" transform="translate(-839.36 -440.568)" fill="#8f8f8f"/>
              <path id="Tracé_125" data-name="Tracé 125" d="M840.153,454.07l21.722-12.624a.4.4,0,0,1-.069.217l-21.722,12.622a.391.391,0,0,0,.069-.216" transform="translate(-839.358 -440.543)" fill="#8a8a8a"/>
              <path id="Tracé_126" data-name="Tracé 126" d="M840.088,454.273,861.81,441.65a.252.252,0,0,1-.063.058l-21.722,12.624a.239.239,0,0,0,.063-.06" transform="translate(-839.362 -440.53)" fill="#858585"/>
            </g>
          </g>
        </g>
        <g id="Groupe_78" data-name="Groupe 78" transform="translate(495.75 315.011)">
          <path id="Tracé_128" data-name="Tracé 128" d="M837.442,456.3l21.722-12.623,10.133,2.1L847.575,458.4Z" transform="translate(-837.442 -443.675)" fill="#828282"/>
        </g>
        <g id="Groupe_79" data-name="Groupe 79" transform="translate(494.62 303.209)">
          <path id="Tracé_129" data-name="Tracé 129" d="M839.846,445.194l21.722-12.623-3.467,9.853-21.722,12.623Z" transform="translate(-836.379 -432.57)" fill="#8f8f8f"/>
        </g>
        <g id="Groupe_80" data-name="Groupe 80" transform="translate(501.984 304.49)">
          <path id="Tracé_130" data-name="Tracé 130" d="M843.308,446.4l21.722-12.623,4.932,8.54-21.722,12.623Z" transform="translate(-843.308 -433.775)" fill="#979797"/>
        </g>
        <g id="Groupe_81" data-name="Groupe 81" transform="translate(506.915 311.428)">
          <path id="Tracé_131" data-name="Tracé 131" d="M847.948,454.529l21.722-12.623,2.811-1.6-21.722,12.623Z" transform="translate(-847.948 -440.304)" fill="gray"/>
        </g>
        <g id="Groupe_82" data-name="Groupe 82" transform="translate(0 12.623)">
          <path id="Tracé_132" data-name="Tracé 132" d="M920.084,753.151c12.071,6.97,21.83,23.865,21.791,37.744s-9.862,19.469-21.933,12.5c-11.44-6.605-20.8-22.12-21.716-35.53l-46.542-26.871c-15.336-8.854-27.766-30.391-27.716-48.005l.057-20.131c.043-15.236-10.7-33.85-23.957-41.5l-2.727-1.574-.259,91.255c-.03,10.6-7.539,14.883-16.774,9.551L518.442,579.4c-.205,17.376-12.65,24.372-27.889,15.574l-75.943-43.845c-.993,12.306-10.406,16.985-21.846,10.379-12.072-6.969-21.831-23.865-21.792-37.743s9.862-19.469,21.934-12.5c11.441,6.606,20.8,22.12,21.716,35.528l75.943,43.847c13.157,7.6,23.912,1.577,24.111-13.413l-28.139-16.245c-9.228-5.328-16.689-18.25-16.659-28.853l.652-229.862L423.317,275C407.981,266.15,395.552,244.613,395.6,227l.046-16.32c-10.825-7.75-19.188-23.183-19.152-36.033.039-13.879,9.856-19.473,21.933-12.5s21.831,23.865,21.792,37.743c-.038,13.436-9.251,19.113-20.8,13.124l-.046,16.163c-.044,15.228,10.7,33.842,23.955,41.491L470.665,298c1.024-8.935,8.088-12.253,16.638-7.316L748.046,441.222l.019-7.034c.05-17.613,12.562-24.751,27.89-15.9L844.7,457.979c.811-12.614,10.307-17.478,21.876-10.8,12.071,6.97,21.83,23.873,21.791,37.752s-9.862,19.469-21.934,12.5c-11.312-6.532-20.586-21.773-21.684-35.083l-68.81-39.727c-13.253-7.652-24.071-1.487-24.113,13.742l-.02,7.033,29.265,16.9c9.235,5.332,16.7,18.252,16.665,28.865l-.387,136.3,2.728,1.575c15.335,8.854,27.767,30.387,27.717,48.008l-.057,20.131c-.044,15.226,10.7,33.841,23.955,41.491l46.542,26.871C899.231,751.226,908.645,746.546,920.084,753.151ZM606.75,466.394l.1-35.078a14.119,14.119,0,0,0-6.412-11.1l-81.385-46.987c-3.55-2.05-6.435-.4-6.447,3.673l-.1,35.078a14.114,14.114,0,0,0,6.405,11.094L600.3,470.065c3.555,2.052,6.443.408,6.454-3.671m-.36,126.746.1-35.078a14.118,14.118,0,0,0-6.412-11.1l-81.385-46.987c-3.55-2.05-6.435-.4-6.447,3.673l-.1,35.078a14.114,14.114,0,0,0,6.405,11.094l81.384,46.988c3.555,2.051,6.443.408,6.453-3.671m.181-63.373.1-35.078a14.117,14.117,0,0,0-6.412-11.1L518.873,436.6c-3.55-2.049-6.435-.4-6.447,3.674l-.1,35.078a14.117,14.117,0,0,0,6.405,11.094l81.385,46.987c3.555,2.052,6.443.408,6.454-3.67M780.385,483.29l.017-6a8.354,8.354,0,0,0-3.787-6.559L551.252,340.621c-2.1-1.209-3.806-.236-3.812,2.172l-.017,6a8.351,8.351,0,0,0,3.787,6.559L776.574,485.462c2.1,1.21,3.8.238,3.811-2.172m-289.5-167.622a9.252,9.252,0,0,0,4.194,7.27l27.012,15.6c2.329,1.343,4.22.266,4.228-2.409l.014-5.044a9.253,9.253,0,0,0-4.2-7.275l-27.012-15.6c-2.321-1.34-4.213-.261-4.22,2.414l-.015,5.044M860.659,466.73c-4.248-2.454-7.712-.479-7.726,4.4a16.942,16.942,0,0,0,7.676,13.3c4.24,2.448,7.705.472,7.719-4.408a13.955,13.955,0,0,0-.97-4.9l-1.68.115a10.43,10.43,0,0,1,.724,3.668c-.011,3.656-2.6,5.143-5.786,3.306a12.71,12.71,0,0,1-5.756-9.97c.011-3.657,2.61-5.138,5.793-3.3A11,11,0,0,1,864,472.11l1.124-1.155a14.686,14.686,0,0,0-4.467-4.226M738.01,513.962l.007-2.6-98.768-57.024-.007,2.6,98.768,57.025m-7.18,135.561.007-2.6-91.983-53.106-.007,2.594,91.983,53.107m-3.585-68.887-88.21-50.929-.007,2.6,88.21,50.929.007-2.6m-88.03-114.171,88.21,50.929.008-2.6-88.211-50.928-.006,2.6m278.4,318.226L911.1,773.416l6.677-3.8c.572-.326.575-1.394.007-2.378a2.977,2.977,0,0,0-1.033-1.088,1.043,1.043,0,0,0-1.037-.106l-7.711,4.4c-.58.321-.583,1.389-.006,2.377l7.539,13.061a2.969,2.969,0,0,0,1.031,1.087,1.05,1.05,0,0,0,1.038.107c.572-.325.575-1.393.007-2.377M932.4,786.9c.572-.325.575-1.393.006-2.377l-7.661-13.273a3.015,3.015,0,0,0-1.037-1.091,1.037,1.037,0,0,0-1.032-.1c-.58.321-.583,1.389-.007,2.377L929.3,783.92l-6.557,3.729c-.572.326-.574,1.394-.006,2.378a3.02,3.02,0,0,0,1.037,1.09,1.05,1.05,0,0,0,1.039.107l7.59-4.325M724.078,633.474l-85.2-49.189-.007,2.6,85.2,49.189.007-2.6M712.9,581.9l-73.888-42.659-.007,2.6L712.888,584.5l.008-2.6M869.058,462.355l-3.467,9.853.4.692,2.7-1.537a.409.409,0,0,1,.117-.447.332.332,0,0,1,.333.034.946.946,0,0,1,.333.35c.174.311.173.654,0,.764a.333.333,0,0,1-.327-.036.859.859,0,0,1-.128-.094l-2.69,1.539.4.684,10.133,2.1.752-3.8-5.026-8.705-3.523-1.393M398.072,180.106l3.292,8.767-3.488,5.092,4.037,2.332,1.551-2.939,1.517,4.709,4.125,2.382-3.426-9.147,3.332-4.879-4.025-2.324-1.428,2.706-1.36-4.316-4.126-2.382M698.758,507.784,639.2,473.4l-.007,2.6,59.563,34.389.007-2.6m-303.432,31.99.023-8.249-3.779-2.183-.024,8.43c0,1.379-.615,1.6-1.463,1.115a3.126,3.126,0,0,1-1.453-2.855l.023-8.374-3.794-2.19-.023,8.335a9.835,9.835,0,0,0,5.2,8.907c3.134,1.809,5.277,1.33,5.288-2.936M397.607,188.1l.023-8.25-3.78-2.182-.023,8.429c0,1.373-.609,1.6-1.457,1.112a3.116,3.116,0,0,1-1.453-2.854l.024-8.367-3.8-2.19-.023,8.328a9.824,9.824,0,0,0,5.2,8.907c3.133,1.809,5.268,1.333,5.281-2.932M686.56,547.6l-47.5-27.424-.007,2.6,47.5,27.422.007-2.6m189.206-85.565-2.812,1.6,4.931,8.54,2.811-1.6-4.93-8.539m-475.518,86.29.039-13.949-3.745-2.162-.039,13.949,3.745,2.162m255.914,67.632.007-2.6-17.344-10.013-.007,2.594,17.344,10.014" transform="translate(-370.971 -159.146)" fill="#fcfcfc"/>
        </g>
        <path id="Tracé_133" data-name="Tracé 133" d="M879.941,465.1c.052-.108.1-.219.15-.329a15.767,15.767,0,0,0,.653-1.67c.007-.023.013-.048.02-.07.183-.574.334-1.181.466-1.807.028-.129.056-.255.082-.386q.183-.956.29-1.986c.013-.131.021-.266.033-.4.023-.271.052-.538.067-.816q.037-.692.039-1.413c0-.811-.036-1.635-.1-2.464-.02-.271-.057-.544-.085-.816-.056-.564-.12-1.131-.205-1.7-.048-.321-.106-.643-.164-.965q-.139-.8-.311-1.6c-.073-.334-.15-.666-.232-1-.131-.537-.275-1.073-.429-1.61-.091-.322-.181-.642-.279-.963-.182-.586-.382-1.169-.588-1.753-.095-.267-.181-.535-.28-.8-.317-.846-.653-1.69-1.018-2.525-.023-.054-.05-.107-.074-.16-.31-.707-.634-1.409-.979-2.1-.044-.088-.091-.174-.135-.261-.072-.145-.149-.288-.223-.431q-.537-1.046-1.119-2.069c-.066-.115-.128-.232-.195-.345-.432-.745-.884-1.476-1.351-2.2-.105-.163-.211-.322-.318-.483-.484-.731-.979-1.454-1.5-2.155l-.011-.015c-.514-.7-1.05-1.373-1.594-2.037-.119-.146-.237-.29-.357-.434-.5-.594-1.005-1.179-1.526-1.742-.05-.054-.1-.106-.154-.16s-.128-.133-.191-.2c-.6-.63-1.205-1.241-1.827-1.825-.055-.053-.113-.1-.169-.155-.636-.59-1.282-1.157-1.941-1.7-.042-.035-.086-.067-.129-.1-.676-.546-1.361-1.065-2.058-1.549-.025-.018-.052-.034-.078-.051q-1.074-.744-2.178-1.385c-6.076-3.507-11.579-3.832-15.554-1.522l-21.722,12.622c3.975-2.309,9.478-1.985,15.554,1.523.735.424,1.461.888,2.178,1.384l.078.052c.7.484,1.381,1,2.055,1.548.044.035.088.068.132.1.659.537,1.305,1.1,1.94,1.694.056.052.114.1.169.155.621.582,1.229,1.193,1.825,1.823.065.068.131.135.2.2.572.613,1.13,1.249,1.676,1.9.121.145.241.291.36.437.543.662,1.077,1.337,1.59,2.032l.015.019c.516.7,1.012,1.424,1.5,2.154q.159.241.318.482c.466.723.919,1.455,1.352,2.2.066.114.128.23.192.343q.583,1.023,1.12,2.07c.073.145.151.288.223.433q.588,1.172,1.114,2.365c.023.054.051.107.074.16.366.836.7,1.68,1.018,2.526.1.267.185.535.279.8.206.583.406,1.167.588,1.753.1.321.188.641.279.962.153.538.3,1.074.429,1.611q.123.5.232,1c.116.533.218,1.065.311,1.6.057.322.116.644.164.964.085.571.149,1.137.205,1.7.028.272.064.545.085.816.063.829.1,1.653.1,2.464,0,.772-.046,1.509-.106,2.23-.012.132-.02.268-.033.4q-.105,1.031-.29,1.987c-.026.13-.054.256-.082.384-.133.626-.284,1.234-.467,1.809-.007.022-.013.046-.02.068a15.8,15.8,0,0,1-.653,1.672c-.05.109-.1.22-.15.327a13.781,13.781,0,0,1-.8,1.444c-.049.077-.1.148-.152.222a12.161,12.161,0,0,1-.875,1.156c-.053.062-.1.128-.156.188a10.973,10.973,0,0,1-1.09,1.055c-.085.072-.172.141-.259.21a10.523,10.523,0,0,1-1.249.868l21.722-12.622a10.673,10.673,0,0,0,1.249-.869c.087-.069.174-.138.259-.21a10.956,10.956,0,0,0,1.09-1.055c.054-.061.1-.126.156-.188.163-.19.328-.377.481-.58.138-.183.264-.382.393-.576.05-.074.1-.146.152-.222A13.91,13.91,0,0,0,879.941,465.1Z" transform="translate(-342.619 -130.435)" fill="#969696"/>
      </g>
    </g>
  </g>
</svg>
